; NON-PLATED HOLES START AT T1
; THROUGH (PLATED) HOLES START AT T100
M48
INCH
T100C0.137795
T101C0.043307
T102C0.030000
T103C0.039370
T104C0.038000
T105C0.035000
%
T100
X007055Y019659
X007055Y003158
X020555Y019659
X020555Y003158
T101
X002204Y010690
X002204Y012659
X025187Y010659
X012555Y002027
X014524Y002027
X012587Y020659
X025187Y012627
X014555Y020659
T102
X006258Y008632
X022051Y011452
X015510Y006006
X020051Y011452
X016137Y007905
X006258Y010632
T103
X022335Y016166
X024335Y017166
X024335Y015166
T104
X017190Y012349
X017190Y013849
X016055Y014659
X016055Y011539
X016055Y013099
T105
X019085Y017084
X002382Y006594
X012900Y011276
X009365Y013439
X009365Y011439
X017474Y009484
X012030Y005467
X021555Y007659
X014858Y008295
X006382Y006594
X013474Y009484
X009929Y008159
X012900Y015276
X019555Y007659
X020085Y017084
X009929Y006159
T00
M30
