G04 MADE WITH FRITZING*
G04 WWW.FRITZING.ORG*
G04 SINGLE SIDED*
G04 HOLES NOT PLATED*
G04 CONTOUR ON CENTER OF CONTOUR VECTOR*
%ASAXBY*%
%FSLAX23Y23*%
%MOIN*%
%OFA0B0*%
%SFA1.0B1.0*%
%ADD10R,0.001000X0.001000*%
%LNSILK0*%
G90*
G70*
G54D10*
X1332Y2266D02*
X1411Y2266D01*
X1301Y2265D02*
X1442Y2265D01*
X1282Y2264D02*
X1461Y2264D01*
X1264Y2263D02*
X1479Y2263D01*
X1250Y2262D02*
X1493Y2262D01*
X1236Y2261D02*
X1507Y2261D01*
X1225Y2260D02*
X1518Y2260D01*
X1214Y2259D02*
X1529Y2259D01*
X1204Y2258D02*
X1331Y2258D01*
X1412Y2258D02*
X1539Y2258D01*
X1194Y2257D02*
X1300Y2257D01*
X1443Y2257D02*
X1549Y2257D01*
X1185Y2256D02*
X1281Y2256D01*
X1462Y2256D02*
X1558Y2256D01*
X1177Y2255D02*
X1263Y2255D01*
X1480Y2255D02*
X1566Y2255D01*
X1168Y2254D02*
X1249Y2254D01*
X1494Y2254D02*
X1575Y2254D01*
X1160Y2253D02*
X1236Y2253D01*
X1507Y2253D02*
X1583Y2253D01*
X1153Y2252D02*
X1224Y2252D01*
X1519Y2252D02*
X1590Y2252D01*
X1145Y2251D02*
X1213Y2251D01*
X1530Y2251D02*
X1598Y2251D01*
X1138Y2250D02*
X1203Y2250D01*
X1540Y2250D02*
X1605Y2250D01*
X1131Y2249D02*
X1193Y2249D01*
X1550Y2249D02*
X1612Y2249D01*
X1124Y2248D02*
X1184Y2248D01*
X1559Y2248D02*
X1619Y2248D01*
X1118Y2247D02*
X1176Y2247D01*
X1567Y2247D02*
X1625Y2247D01*
X1112Y2246D02*
X1167Y2246D01*
X1576Y2246D02*
X1631Y2246D01*
X1105Y2245D02*
X1159Y2245D01*
X1584Y2245D02*
X1638Y2245D01*
X1099Y2244D02*
X1152Y2244D01*
X1591Y2244D02*
X1644Y2244D01*
X1093Y2243D02*
X1144Y2243D01*
X1599Y2243D02*
X1650Y2243D01*
X1087Y2242D02*
X1137Y2242D01*
X1606Y2242D02*
X1656Y2242D01*
X1082Y2241D02*
X1130Y2241D01*
X1613Y2241D02*
X1661Y2241D01*
X1076Y2240D02*
X1123Y2240D01*
X1620Y2240D02*
X1667Y2240D01*
X1071Y2239D02*
X1117Y2239D01*
X1626Y2239D02*
X1672Y2239D01*
X1065Y2238D02*
X1111Y2238D01*
X1632Y2238D02*
X1678Y2238D01*
X1060Y2237D02*
X1104Y2237D01*
X1639Y2237D02*
X1683Y2237D01*
X1055Y2236D02*
X1098Y2236D01*
X1645Y2236D02*
X1688Y2236D01*
X1050Y2235D02*
X1092Y2235D01*
X1651Y2235D02*
X1693Y2235D01*
X1045Y2234D02*
X1087Y2234D01*
X1656Y2234D02*
X1698Y2234D01*
X1040Y2233D02*
X1081Y2233D01*
X1662Y2233D02*
X1703Y2233D01*
X1035Y2232D02*
X1076Y2232D01*
X1667Y2232D02*
X1708Y2232D01*
X1030Y2231D02*
X1070Y2231D01*
X1673Y2231D02*
X1713Y2231D01*
X1026Y2230D02*
X1064Y2230D01*
X1679Y2230D02*
X1717Y2230D01*
X1021Y2229D02*
X1059Y2229D01*
X1684Y2229D02*
X1722Y2229D01*
X1017Y2228D02*
X1054Y2228D01*
X1689Y2228D02*
X1726Y2228D01*
X1012Y2227D02*
X1049Y2227D01*
X1694Y2227D02*
X1731Y2227D01*
X1008Y2226D02*
X1044Y2226D01*
X1699Y2226D02*
X1735Y2226D01*
X1003Y2225D02*
X1039Y2225D01*
X1704Y2225D02*
X1740Y2225D01*
X999Y2224D02*
X1034Y2224D01*
X1709Y2224D02*
X1744Y2224D01*
X994Y2223D02*
X1030Y2223D01*
X1713Y2223D02*
X1749Y2223D01*
X990Y2222D02*
X1025Y2222D01*
X1718Y2222D02*
X1753Y2222D01*
X986Y2221D02*
X1021Y2221D01*
X1722Y2221D02*
X1757Y2221D01*
X982Y2220D02*
X1016Y2220D01*
X1727Y2220D02*
X1761Y2220D01*
X978Y2219D02*
X1012Y2219D01*
X1731Y2219D02*
X1765Y2219D01*
X974Y2218D02*
X1007Y2218D01*
X1736Y2218D02*
X1769Y2218D01*
X970Y2217D02*
X1003Y2217D01*
X1740Y2217D02*
X1773Y2217D01*
X966Y2216D02*
X998Y2216D01*
X1745Y2216D02*
X1777Y2216D01*
X962Y2215D02*
X994Y2215D01*
X1749Y2215D02*
X1781Y2215D01*
X958Y2214D02*
X990Y2214D01*
X1753Y2214D02*
X1785Y2214D01*
X955Y2213D02*
X986Y2213D01*
X1757Y2213D02*
X1788Y2213D01*
X951Y2212D02*
X982Y2212D01*
X1761Y2212D02*
X1792Y2212D01*
X947Y2211D02*
X978Y2211D01*
X1765Y2211D02*
X1796Y2211D01*
X943Y2210D02*
X974Y2210D01*
X1769Y2210D02*
X1800Y2210D01*
X940Y2209D02*
X970Y2209D01*
X1773Y2209D02*
X1803Y2209D01*
X936Y2208D02*
X965Y2208D01*
X1778Y2208D02*
X1807Y2208D01*
X932Y2207D02*
X962Y2207D01*
X1781Y2207D02*
X1811Y2207D01*
X929Y2206D02*
X958Y2206D01*
X1785Y2206D02*
X1814Y2206D01*
X925Y2205D02*
X954Y2205D01*
X1789Y2205D02*
X1818Y2205D01*
X922Y2204D02*
X950Y2204D01*
X1793Y2204D02*
X1821Y2204D01*
X918Y2203D02*
X947Y2203D01*
X1796Y2203D02*
X1825Y2203D01*
X915Y2202D02*
X943Y2202D01*
X1800Y2202D02*
X1828Y2202D01*
X911Y2201D02*
X939Y2201D01*
X1804Y2201D02*
X1832Y2201D01*
X908Y2200D02*
X936Y2200D01*
X1807Y2200D02*
X1835Y2200D01*
X905Y2199D02*
X932Y2199D01*
X1811Y2199D02*
X1838Y2199D01*
X901Y2198D02*
X928Y2198D01*
X1815Y2198D02*
X1842Y2198D01*
X898Y2197D02*
X925Y2197D01*
X1818Y2197D02*
X1845Y2197D01*
X895Y2196D02*
X922Y2196D01*
X1821Y2196D02*
X1848Y2196D01*
X892Y2195D02*
X918Y2195D01*
X1825Y2195D02*
X1851Y2195D01*
X888Y2194D02*
X915Y2194D01*
X1828Y2194D02*
X1855Y2194D01*
X885Y2193D02*
X911Y2193D01*
X1832Y2193D02*
X1858Y2193D01*
X882Y2192D02*
X908Y2192D01*
X1835Y2192D02*
X1861Y2192D01*
X879Y2191D02*
X904Y2191D01*
X1839Y2191D02*
X1864Y2191D01*
X876Y2190D02*
X901Y2190D01*
X1842Y2190D02*
X1867Y2190D01*
X872Y2189D02*
X898Y2189D01*
X1845Y2189D02*
X1871Y2189D01*
X869Y2188D02*
X895Y2188D01*
X1848Y2188D02*
X1874Y2188D01*
X866Y2187D02*
X891Y2187D01*
X1852Y2187D02*
X1877Y2187D01*
X863Y2186D02*
X888Y2186D01*
X1855Y2186D02*
X1880Y2186D01*
X860Y2185D02*
X885Y2185D01*
X1858Y2185D02*
X1883Y2185D01*
X857Y2184D02*
X882Y2184D01*
X1861Y2184D02*
X1886Y2184D01*
X854Y2183D02*
X879Y2183D01*
X1864Y2183D02*
X1889Y2183D01*
X851Y2182D02*
X875Y2182D01*
X1868Y2182D02*
X1892Y2182D01*
X848Y2181D02*
X872Y2181D01*
X1871Y2181D02*
X1895Y2181D01*
X846Y2180D02*
X869Y2180D01*
X1874Y2180D02*
X1897Y2180D01*
X843Y2179D02*
X866Y2179D01*
X1877Y2179D02*
X1900Y2179D01*
X840Y2178D02*
X863Y2178D01*
X1880Y2178D02*
X1903Y2178D01*
X837Y2177D02*
X860Y2177D01*
X1883Y2177D02*
X1906Y2177D01*
X834Y2176D02*
X857Y2176D01*
X1886Y2176D02*
X1909Y2176D01*
X831Y2175D02*
X854Y2175D01*
X1889Y2175D02*
X1912Y2175D01*
X828Y2174D02*
X851Y2174D01*
X1892Y2174D02*
X1915Y2174D01*
X826Y2173D02*
X848Y2173D01*
X1895Y2173D02*
X1917Y2173D01*
X823Y2172D02*
X845Y2172D01*
X1898Y2172D02*
X1920Y2172D01*
X820Y2171D02*
X843Y2171D01*
X1900Y2171D02*
X1923Y2171D01*
X817Y2170D02*
X840Y2170D01*
X1903Y2170D02*
X1926Y2170D01*
X815Y2169D02*
X837Y2169D01*
X1906Y2169D02*
X1928Y2169D01*
X812Y2168D02*
X834Y2168D01*
X1909Y2168D02*
X1931Y2168D01*
X809Y2167D02*
X831Y2167D01*
X1912Y2167D02*
X1934Y2167D01*
X806Y2166D02*
X828Y2166D01*
X1915Y2166D02*
X1937Y2166D01*
X804Y2165D02*
X826Y2165D01*
X1917Y2165D02*
X1939Y2165D01*
X801Y2164D02*
X823Y2164D01*
X1920Y2164D02*
X1942Y2164D01*
X799Y2163D02*
X820Y2163D01*
X1923Y2163D02*
X1944Y2163D01*
X796Y2162D02*
X817Y2162D01*
X1926Y2162D02*
X1947Y2162D01*
X793Y2161D02*
X815Y2161D01*
X1928Y2161D02*
X1950Y2161D01*
X791Y2160D02*
X812Y2160D01*
X1931Y2160D02*
X1952Y2160D01*
X788Y2159D02*
X809Y2159D01*
X1934Y2159D02*
X1955Y2159D01*
X786Y2158D02*
X806Y2158D01*
X1937Y2158D02*
X1957Y2158D01*
X783Y2157D02*
X804Y2157D01*
X1939Y2157D02*
X1960Y2157D01*
X780Y2156D02*
X801Y2156D01*
X1942Y2156D02*
X1963Y2156D01*
X778Y2155D02*
X799Y2155D01*
X1944Y2155D02*
X1965Y2155D01*
X775Y2154D02*
X796Y2154D01*
X1947Y2154D02*
X1968Y2154D01*
X773Y2153D02*
X794Y2153D01*
X1949Y2153D02*
X1970Y2153D01*
X770Y2152D02*
X791Y2152D01*
X1952Y2152D02*
X1973Y2152D01*
X768Y2151D02*
X788Y2151D01*
X1955Y2151D02*
X1975Y2151D01*
X766Y2150D02*
X786Y2150D01*
X1957Y2150D02*
X1977Y2150D01*
X763Y2149D02*
X783Y2149D01*
X1960Y2149D02*
X1980Y2149D01*
X761Y2148D02*
X781Y2148D01*
X1962Y2148D02*
X1982Y2148D01*
X758Y2147D02*
X778Y2147D01*
X1965Y2147D02*
X1985Y2147D01*
X756Y2146D02*
X776Y2146D01*
X1967Y2146D02*
X1987Y2146D01*
X753Y2145D02*
X773Y2145D01*
X1970Y2145D02*
X1990Y2145D01*
X751Y2144D02*
X771Y2144D01*
X1972Y2144D02*
X1992Y2144D01*
X748Y2143D02*
X768Y2143D01*
X1975Y2143D02*
X1995Y2143D01*
X746Y2142D02*
X766Y2142D01*
X1977Y2142D02*
X1997Y2142D01*
X744Y2141D02*
X763Y2141D01*
X1980Y2141D02*
X1999Y2141D01*
X742Y2140D02*
X761Y2140D01*
X1982Y2140D02*
X2001Y2140D01*
X739Y2139D02*
X759Y2139D01*
X1984Y2139D02*
X2004Y2139D01*
X737Y2138D02*
X756Y2138D01*
X1987Y2138D02*
X2006Y2138D01*
X735Y2137D02*
X754Y2137D01*
X1989Y2137D02*
X2008Y2137D01*
X732Y2136D02*
X751Y2136D01*
X1992Y2136D02*
X2011Y2136D01*
X730Y2135D02*
X749Y2135D01*
X1994Y2135D02*
X2013Y2135D01*
X728Y2134D02*
X747Y2134D01*
X1996Y2134D02*
X2015Y2134D01*
X725Y2133D02*
X744Y2133D01*
X1999Y2133D02*
X2018Y2133D01*
X723Y2132D02*
X742Y2132D01*
X2001Y2132D02*
X2020Y2132D01*
X721Y2131D02*
X740Y2131D01*
X2003Y2131D02*
X2022Y2131D01*
X719Y2130D02*
X737Y2130D01*
X2006Y2130D02*
X2024Y2130D01*
X716Y2129D02*
X735Y2129D01*
X2008Y2129D02*
X2027Y2129D01*
X714Y2128D02*
X733Y2128D01*
X2010Y2128D02*
X2029Y2128D01*
X712Y2127D02*
X730Y2127D01*
X2013Y2127D02*
X2031Y2127D01*
X710Y2126D02*
X728Y2126D01*
X2015Y2126D02*
X2033Y2126D01*
X708Y2125D02*
X726Y2125D01*
X2017Y2125D02*
X2035Y2125D01*
X706Y2124D02*
X724Y2124D01*
X2019Y2124D02*
X2037Y2124D01*
X703Y2123D02*
X721Y2123D01*
X2022Y2123D02*
X2040Y2123D01*
X701Y2122D02*
X719Y2122D01*
X2024Y2122D02*
X2042Y2122D01*
X699Y2121D02*
X717Y2121D01*
X2026Y2121D02*
X2044Y2121D01*
X697Y2120D02*
X715Y2120D01*
X2028Y2120D02*
X2046Y2120D01*
X695Y2119D02*
X713Y2119D01*
X2030Y2119D02*
X2048Y2119D01*
X692Y2118D02*
X710Y2118D01*
X2033Y2118D02*
X2051Y2118D01*
X690Y2117D02*
X708Y2117D01*
X2035Y2117D02*
X2053Y2117D01*
X688Y2116D02*
X706Y2116D01*
X2037Y2116D02*
X2055Y2116D01*
X686Y2115D02*
X704Y2115D01*
X2039Y2115D02*
X2057Y2115D01*
X684Y2114D02*
X702Y2114D01*
X2041Y2114D02*
X2059Y2114D01*
X682Y2113D02*
X700Y2113D01*
X2043Y2113D02*
X2061Y2113D01*
X680Y2112D02*
X697Y2112D01*
X2046Y2112D02*
X2063Y2112D01*
X678Y2111D02*
X695Y2111D01*
X2048Y2111D02*
X2065Y2111D01*
X676Y2110D02*
X693Y2110D01*
X2050Y2110D02*
X2067Y2110D01*
X674Y2109D02*
X691Y2109D01*
X2052Y2109D02*
X2069Y2109D01*
X672Y2108D02*
X689Y2108D01*
X2054Y2108D02*
X2071Y2108D01*
X670Y2107D02*
X687Y2107D01*
X2056Y2107D02*
X2073Y2107D01*
X668Y2106D02*
X685Y2106D01*
X2058Y2106D02*
X2075Y2106D01*
X666Y2105D02*
X683Y2105D01*
X2060Y2105D02*
X2077Y2105D01*
X664Y2104D02*
X681Y2104D01*
X2062Y2104D02*
X2079Y2104D01*
X662Y2103D02*
X679Y2103D01*
X2064Y2103D02*
X2081Y2103D01*
X660Y2102D02*
X677Y2102D01*
X2066Y2102D02*
X2083Y2102D01*
X658Y2101D02*
X675Y2101D01*
X2068Y2101D02*
X2085Y2101D01*
X656Y2100D02*
X672Y2100D01*
X2071Y2100D02*
X2087Y2100D01*
X654Y2099D02*
X670Y2099D01*
X2073Y2099D02*
X2089Y2099D01*
X652Y2098D02*
X668Y2098D01*
X2075Y2098D02*
X2091Y2098D01*
X650Y2097D02*
X666Y2097D01*
X2077Y2097D02*
X2093Y2097D01*
X648Y2096D02*
X664Y2096D01*
X2079Y2096D02*
X2095Y2096D01*
X646Y2095D02*
X662Y2095D01*
X2081Y2095D02*
X2097Y2095D01*
X644Y2094D02*
X660Y2094D01*
X2083Y2094D02*
X2099Y2094D01*
X642Y2093D02*
X658Y2093D01*
X2085Y2093D02*
X2101Y2093D01*
X640Y2092D02*
X656Y2092D01*
X2087Y2092D02*
X2103Y2092D01*
X638Y2091D02*
X655Y2091D01*
X2088Y2091D02*
X2105Y2091D01*
X636Y2090D02*
X653Y2090D01*
X2090Y2090D02*
X2107Y2090D01*
X634Y2089D02*
X651Y2089D01*
X2092Y2089D02*
X2109Y2089D01*
X632Y2088D02*
X649Y2088D01*
X2094Y2088D02*
X2111Y2088D01*
X631Y2087D02*
X647Y2087D01*
X2096Y2087D02*
X2112Y2087D01*
X629Y2086D02*
X645Y2086D01*
X2098Y2086D02*
X2114Y2086D01*
X627Y2085D02*
X643Y2085D01*
X2100Y2085D02*
X2116Y2085D01*
X625Y2084D02*
X641Y2084D01*
X2102Y2084D02*
X2118Y2084D01*
X623Y2083D02*
X639Y2083D01*
X2104Y2083D02*
X2120Y2083D01*
X621Y2082D02*
X637Y2082D01*
X2106Y2082D02*
X2122Y2082D01*
X620Y2081D02*
X635Y2081D01*
X2108Y2081D02*
X2123Y2081D01*
X618Y2080D02*
X633Y2080D01*
X2110Y2080D02*
X2125Y2080D01*
X616Y2079D02*
X631Y2079D01*
X2112Y2079D02*
X2127Y2079D01*
X614Y2078D02*
X630Y2078D01*
X2113Y2078D02*
X2129Y2078D01*
X612Y2077D02*
X628Y2077D01*
X2115Y2077D02*
X2131Y2077D01*
X610Y2076D02*
X626Y2076D01*
X2117Y2076D02*
X2133Y2076D01*
X608Y2075D02*
X624Y2075D01*
X2119Y2075D02*
X2135Y2075D01*
X607Y2074D02*
X622Y2074D01*
X2121Y2074D02*
X2136Y2074D01*
X605Y2073D02*
X620Y2073D01*
X2123Y2073D02*
X2138Y2073D01*
X603Y2072D02*
X619Y2072D01*
X2124Y2072D02*
X2140Y2072D01*
X601Y2071D02*
X617Y2071D01*
X2126Y2071D02*
X2142Y2071D01*
X600Y2070D02*
X615Y2070D01*
X2128Y2070D02*
X2143Y2070D01*
X598Y2069D02*
X613Y2069D01*
X2130Y2069D02*
X2145Y2069D01*
X596Y2068D02*
X611Y2068D01*
X2132Y2068D02*
X2147Y2068D01*
X594Y2067D02*
X609Y2067D01*
X2134Y2067D02*
X2149Y2067D01*
X593Y2066D02*
X608Y2066D01*
X2135Y2066D02*
X2150Y2066D01*
X591Y2065D02*
X606Y2065D01*
X2137Y2065D02*
X2152Y2065D01*
X589Y2064D02*
X604Y2064D01*
X2139Y2064D02*
X2154Y2064D01*
X587Y2063D02*
X602Y2063D01*
X2141Y2063D02*
X2156Y2063D01*
X586Y2062D02*
X601Y2062D01*
X2142Y2062D02*
X2157Y2062D01*
X584Y2061D02*
X599Y2061D01*
X2144Y2061D02*
X2159Y2061D01*
X582Y2060D02*
X597Y2060D01*
X2146Y2060D02*
X2161Y2060D01*
X580Y2059D02*
X595Y2059D01*
X2148Y2059D02*
X2163Y2059D01*
X579Y2058D02*
X594Y2058D01*
X2149Y2058D02*
X2164Y2058D01*
X577Y2057D02*
X592Y2057D01*
X2151Y2057D02*
X2166Y2057D01*
X575Y2056D02*
X590Y2056D01*
X2153Y2056D02*
X2168Y2056D01*
X574Y2055D02*
X588Y2055D01*
X2155Y2055D02*
X2169Y2055D01*
X572Y2054D02*
X587Y2054D01*
X2156Y2054D02*
X2171Y2054D01*
X570Y2053D02*
X585Y2053D01*
X2158Y2053D02*
X2173Y2053D01*
X569Y2052D02*
X583Y2052D01*
X2160Y2052D02*
X2174Y2052D01*
X567Y2051D02*
X581Y2051D01*
X2162Y2051D02*
X2176Y2051D01*
X565Y2050D02*
X580Y2050D01*
X2163Y2050D02*
X2178Y2050D01*
X564Y2049D02*
X578Y2049D01*
X2165Y2049D02*
X2179Y2049D01*
X562Y2048D02*
X576Y2048D01*
X2167Y2048D02*
X2181Y2048D01*
X560Y2047D02*
X575Y2047D01*
X2168Y2047D02*
X2183Y2047D01*
X559Y2046D02*
X573Y2046D01*
X2170Y2046D02*
X2184Y2046D01*
X557Y2045D02*
X571Y2045D01*
X2172Y2045D02*
X2186Y2045D01*
X555Y2044D02*
X570Y2044D01*
X2173Y2044D02*
X2188Y2044D01*
X554Y2043D02*
X568Y2043D01*
X2175Y2043D02*
X2189Y2043D01*
X552Y2042D02*
X566Y2042D01*
X2177Y2042D02*
X2191Y2042D01*
X550Y2041D02*
X565Y2041D01*
X2178Y2041D02*
X2193Y2041D01*
X549Y2040D02*
X563Y2040D01*
X2180Y2040D02*
X2194Y2040D01*
X547Y2039D02*
X561Y2039D01*
X2182Y2039D02*
X2196Y2039D01*
X546Y2038D02*
X560Y2038D01*
X2183Y2038D02*
X2197Y2038D01*
X544Y2037D02*
X558Y2037D01*
X2185Y2037D02*
X2199Y2037D01*
X542Y2036D02*
X556Y2036D01*
X2187Y2036D02*
X2201Y2036D01*
X541Y2035D02*
X555Y2035D01*
X2188Y2035D02*
X2202Y2035D01*
X539Y2034D02*
X553Y2034D01*
X2190Y2034D02*
X2204Y2034D01*
X538Y2033D02*
X552Y2033D01*
X2191Y2033D02*
X2205Y2033D01*
X536Y2032D02*
X550Y2032D01*
X2193Y2032D02*
X2207Y2032D01*
X534Y2031D02*
X548Y2031D01*
X2195Y2031D02*
X2208Y2031D01*
X533Y2030D02*
X547Y2030D01*
X2196Y2030D02*
X2210Y2030D01*
X531Y2029D02*
X545Y2029D01*
X2198Y2029D02*
X2212Y2029D01*
X530Y2028D02*
X544Y2028D01*
X2199Y2028D02*
X2213Y2028D01*
X528Y2027D02*
X542Y2027D01*
X2201Y2027D02*
X2215Y2027D01*
X527Y2026D02*
X540Y2026D01*
X2203Y2026D02*
X2216Y2026D01*
X525Y2025D02*
X539Y2025D01*
X2204Y2025D02*
X2218Y2025D01*
X524Y2024D02*
X537Y2024D01*
X2206Y2024D02*
X2219Y2024D01*
X522Y2023D02*
X536Y2023D01*
X2207Y2023D02*
X2221Y2023D01*
X521Y2022D02*
X534Y2022D01*
X2209Y2022D02*
X2222Y2022D01*
X519Y2021D02*
X533Y2021D01*
X2210Y2021D02*
X2224Y2021D01*
X517Y2020D02*
X531Y2020D01*
X2212Y2020D02*
X2225Y2020D01*
X516Y2019D02*
X529Y2019D01*
X2214Y2019D02*
X2227Y2019D01*
X514Y2018D02*
X528Y2018D01*
X2215Y2018D02*
X2229Y2018D01*
X513Y2017D02*
X526Y2017D01*
X2217Y2017D02*
X2230Y2017D01*
X511Y2016D02*
X525Y2016D01*
X2218Y2016D02*
X2232Y2016D01*
X510Y2015D02*
X523Y2015D01*
X2220Y2015D02*
X2233Y2015D01*
X508Y2014D02*
X522Y2014D01*
X2221Y2014D02*
X2235Y2014D01*
X507Y2013D02*
X520Y2013D01*
X2223Y2013D02*
X2236Y2013D01*
X505Y2012D02*
X519Y2012D01*
X2224Y2012D02*
X2238Y2012D01*
X504Y2011D02*
X517Y2011D01*
X2226Y2011D02*
X2239Y2011D01*
X502Y2010D02*
X516Y2010D01*
X2227Y2010D02*
X2241Y2010D01*
X501Y2009D02*
X514Y2009D01*
X2229Y2009D02*
X2242Y2009D01*
X499Y2008D02*
X513Y2008D01*
X2230Y2008D02*
X2244Y2008D01*
X498Y2007D02*
X511Y2007D01*
X2232Y2007D02*
X2245Y2007D01*
X497Y2006D02*
X510Y2006D01*
X2233Y2006D02*
X2246Y2006D01*
X495Y2005D02*
X508Y2005D01*
X2235Y2005D02*
X2248Y2005D01*
X494Y2004D02*
X507Y2004D01*
X2236Y2004D02*
X2249Y2004D01*
X492Y2003D02*
X505Y2003D01*
X2238Y2003D02*
X2251Y2003D01*
X491Y2002D02*
X504Y2002D01*
X2239Y2002D02*
X2252Y2002D01*
X489Y2001D02*
X502Y2001D01*
X2241Y2001D02*
X2254Y2001D01*
X488Y2000D02*
X501Y2000D01*
X2242Y2000D02*
X2255Y2000D01*
X487Y1999D02*
X499Y1999D01*
X2244Y1999D02*
X2256Y1999D01*
X485Y1998D02*
X498Y1998D01*
X2245Y1998D02*
X2258Y1998D01*
X484Y1997D02*
X497Y1997D01*
X2246Y1997D02*
X2259Y1997D01*
X482Y1996D02*
X495Y1996D01*
X2248Y1996D02*
X2261Y1996D01*
X481Y1995D02*
X494Y1995D01*
X2249Y1995D02*
X2262Y1995D01*
X479Y1994D02*
X492Y1994D01*
X2251Y1994D02*
X2264Y1994D01*
X478Y1993D02*
X491Y1993D01*
X2252Y1993D02*
X2265Y1993D01*
X476Y1992D02*
X489Y1992D01*
X2254Y1992D02*
X2267Y1992D01*
X475Y1991D02*
X488Y1991D01*
X2255Y1991D02*
X2268Y1991D01*
X474Y1990D02*
X487Y1990D01*
X2256Y1990D02*
X2269Y1990D01*
X472Y1989D02*
X485Y1989D01*
X2258Y1989D02*
X2271Y1989D01*
X471Y1988D02*
X484Y1988D01*
X2259Y1988D02*
X2272Y1988D01*
X470Y1987D02*
X482Y1987D01*
X2261Y1987D02*
X2273Y1987D01*
X468Y1986D02*
X481Y1986D01*
X2262Y1986D02*
X2275Y1986D01*
X467Y1985D02*
X479Y1985D01*
X2264Y1985D02*
X2276Y1985D01*
X465Y1984D02*
X478Y1984D01*
X2265Y1984D02*
X2278Y1984D01*
X464Y1983D02*
X477Y1983D01*
X2266Y1983D02*
X2279Y1983D01*
X463Y1982D02*
X475Y1982D01*
X2268Y1982D02*
X2280Y1982D01*
X461Y1981D02*
X474Y1981D01*
X2269Y1981D02*
X2282Y1981D01*
X460Y1980D02*
X473Y1980D01*
X2270Y1980D02*
X2283Y1980D01*
X459Y1979D02*
X471Y1979D01*
X2272Y1979D02*
X2284Y1979D01*
X457Y1978D02*
X470Y1978D01*
X2273Y1978D02*
X2286Y1978D01*
X456Y1977D02*
X468Y1977D01*
X2275Y1977D02*
X2287Y1977D01*
X455Y1976D02*
X467Y1976D01*
X2276Y1976D02*
X2288Y1976D01*
X453Y1975D02*
X466Y1975D01*
X2277Y1975D02*
X2290Y1975D01*
X452Y1974D02*
X464Y1974D01*
X2279Y1974D02*
X2291Y1974D01*
X450Y1973D02*
X463Y1973D01*
X2280Y1973D02*
X2293Y1973D01*
X449Y1972D02*
X462Y1972D01*
X2281Y1972D02*
X2294Y1972D01*
X448Y1971D02*
X460Y1971D01*
X2283Y1971D02*
X2295Y1971D01*
X446Y1970D02*
X459Y1970D01*
X2284Y1970D02*
X2297Y1970D01*
X445Y1969D02*
X457Y1969D01*
X2286Y1969D02*
X2298Y1969D01*
X444Y1968D02*
X456Y1968D01*
X2287Y1968D02*
X2299Y1968D01*
X443Y1967D02*
X455Y1967D01*
X2288Y1967D02*
X2300Y1967D01*
X441Y1966D02*
X453Y1966D01*
X2290Y1966D02*
X2302Y1966D01*
X440Y1965D02*
X452Y1965D01*
X2291Y1965D02*
X2303Y1965D01*
X439Y1964D02*
X451Y1964D01*
X2292Y1964D02*
X2304Y1964D01*
X437Y1963D02*
X449Y1963D01*
X2294Y1963D02*
X2306Y1963D01*
X436Y1962D02*
X448Y1962D01*
X2295Y1962D02*
X2307Y1962D01*
X435Y1961D02*
X447Y1961D01*
X2296Y1961D02*
X2308Y1961D01*
X433Y1960D02*
X446Y1960D01*
X2297Y1960D02*
X2310Y1960D01*
X432Y1959D02*
X444Y1959D01*
X2299Y1959D02*
X2311Y1959D01*
X431Y1958D02*
X443Y1958D01*
X2300Y1958D02*
X2312Y1958D01*
X430Y1957D02*
X442Y1957D01*
X2301Y1957D02*
X2313Y1957D01*
X428Y1956D02*
X440Y1956D01*
X2303Y1956D02*
X2315Y1956D01*
X427Y1955D02*
X439Y1955D01*
X2304Y1955D02*
X2316Y1955D01*
X426Y1954D02*
X438Y1954D01*
X2305Y1954D02*
X2317Y1954D01*
X424Y1953D02*
X436Y1953D01*
X2307Y1953D02*
X2319Y1953D01*
X423Y1952D02*
X435Y1952D01*
X2308Y1952D02*
X2320Y1952D01*
X422Y1951D02*
X434Y1951D01*
X2309Y1951D02*
X2321Y1951D01*
X421Y1950D02*
X433Y1950D01*
X2310Y1950D02*
X2322Y1950D01*
X419Y1949D02*
X431Y1949D01*
X2312Y1949D02*
X2324Y1949D01*
X418Y1948D02*
X430Y1948D01*
X2313Y1948D02*
X2325Y1948D01*
X417Y1947D02*
X429Y1947D01*
X2314Y1947D02*
X2326Y1947D01*
X416Y1946D02*
X427Y1946D01*
X2316Y1946D02*
X2327Y1946D01*
X414Y1945D02*
X426Y1945D01*
X2317Y1945D02*
X2329Y1945D01*
X413Y1944D02*
X425Y1944D01*
X2318Y1944D02*
X2330Y1944D01*
X412Y1943D02*
X424Y1943D01*
X2319Y1943D02*
X2331Y1943D01*
X411Y1942D02*
X422Y1942D01*
X2320Y1942D02*
X2332Y1942D01*
X410Y1941D02*
X421Y1941D01*
X2322Y1941D02*
X2333Y1941D01*
X408Y1940D02*
X420Y1940D01*
X2323Y1940D02*
X2335Y1940D01*
X407Y1939D02*
X419Y1939D01*
X2324Y1939D02*
X2336Y1939D01*
X406Y1938D02*
X418Y1938D01*
X2325Y1938D02*
X2337Y1938D01*
X405Y1937D02*
X416Y1937D01*
X2327Y1937D02*
X2338Y1937D01*
X403Y1936D02*
X415Y1936D01*
X2328Y1936D02*
X2340Y1936D01*
X402Y1935D02*
X414Y1935D01*
X2329Y1935D02*
X2341Y1935D01*
X401Y1934D02*
X413Y1934D01*
X2330Y1934D02*
X2342Y1934D01*
X400Y1933D02*
X411Y1933D01*
X2332Y1933D02*
X2343Y1933D01*
X399Y1932D02*
X410Y1932D01*
X2333Y1932D02*
X2344Y1932D01*
X397Y1931D02*
X409Y1931D01*
X2334Y1931D02*
X2346Y1931D01*
X396Y1930D02*
X408Y1930D01*
X2335Y1930D02*
X2347Y1930D01*
X395Y1929D02*
X406Y1929D01*
X2337Y1929D02*
X2348Y1929D01*
X394Y1928D02*
X405Y1928D01*
X2338Y1928D02*
X2349Y1928D01*
X393Y1927D02*
X404Y1927D01*
X2339Y1927D02*
X2350Y1927D01*
X391Y1926D02*
X403Y1926D01*
X2340Y1926D02*
X2352Y1926D01*
X390Y1925D02*
X402Y1925D01*
X2341Y1925D02*
X2353Y1925D01*
X389Y1924D02*
X400Y1924D01*
X2343Y1924D02*
X2354Y1924D01*
X388Y1923D02*
X399Y1923D01*
X2344Y1923D02*
X2355Y1923D01*
X387Y1922D02*
X398Y1922D01*
X2345Y1922D02*
X2356Y1922D01*
X385Y1921D02*
X397Y1921D01*
X2346Y1921D02*
X2358Y1921D01*
X384Y1920D02*
X396Y1920D01*
X2347Y1920D02*
X2359Y1920D01*
X383Y1919D02*
X395Y1919D01*
X2348Y1919D02*
X2360Y1919D01*
X382Y1918D02*
X393Y1918D01*
X2350Y1918D02*
X2361Y1918D01*
X381Y1917D02*
X392Y1917D01*
X2351Y1917D02*
X2362Y1917D01*
X380Y1916D02*
X391Y1916D01*
X2352Y1916D02*
X2363Y1916D01*
X378Y1915D02*
X390Y1915D01*
X2353Y1915D02*
X2365Y1915D01*
X377Y1914D02*
X389Y1914D01*
X2354Y1914D02*
X2366Y1914D01*
X376Y1913D02*
X387Y1913D01*
X2356Y1913D02*
X2367Y1913D01*
X375Y1912D02*
X386Y1912D01*
X2357Y1912D02*
X2368Y1912D01*
X374Y1911D02*
X385Y1911D01*
X2358Y1911D02*
X2369Y1911D01*
X373Y1910D02*
X384Y1910D01*
X2359Y1910D02*
X2370Y1910D01*
X372Y1909D02*
X383Y1909D01*
X2360Y1909D02*
X2371Y1909D01*
X371Y1908D02*
X382Y1908D01*
X2361Y1908D02*
X2372Y1908D01*
X369Y1907D02*
X380Y1907D01*
X2363Y1907D02*
X2374Y1907D01*
X368Y1906D02*
X379Y1906D01*
X2364Y1906D02*
X2375Y1906D01*
X367Y1905D02*
X378Y1905D01*
X2365Y1905D02*
X2376Y1905D01*
X366Y1904D02*
X377Y1904D01*
X2366Y1904D02*
X2377Y1904D01*
X365Y1903D02*
X376Y1903D01*
X2367Y1903D02*
X2378Y1903D01*
X364Y1902D02*
X375Y1902D01*
X2368Y1902D02*
X2379Y1902D01*
X363Y1901D02*
X374Y1901D01*
X2369Y1901D02*
X2380Y1901D01*
X362Y1900D02*
X373Y1900D01*
X2370Y1900D02*
X2381Y1900D01*
X360Y1899D02*
X371Y1899D01*
X2372Y1899D02*
X2383Y1899D01*
X359Y1898D02*
X370Y1898D01*
X2373Y1898D02*
X2384Y1898D01*
X358Y1897D02*
X369Y1897D01*
X2374Y1897D02*
X2385Y1897D01*
X357Y1896D02*
X368Y1896D01*
X2375Y1896D02*
X2386Y1896D01*
X356Y1895D02*
X367Y1895D01*
X2376Y1895D02*
X2387Y1895D01*
X355Y1894D02*
X366Y1894D01*
X2377Y1894D02*
X2388Y1894D01*
X354Y1893D02*
X365Y1893D01*
X2378Y1893D02*
X2389Y1893D01*
X353Y1892D02*
X364Y1892D01*
X2379Y1892D02*
X2390Y1892D01*
X352Y1891D02*
X362Y1891D01*
X2381Y1891D02*
X2391Y1891D01*
X351Y1890D02*
X361Y1890D01*
X2382Y1890D02*
X2392Y1890D01*
X349Y1889D02*
X360Y1889D01*
X2383Y1889D02*
X2394Y1889D01*
X348Y1888D02*
X359Y1888D01*
X2384Y1888D02*
X2395Y1888D01*
X347Y1887D02*
X358Y1887D01*
X2385Y1887D02*
X2396Y1887D01*
X346Y1886D02*
X357Y1886D01*
X2386Y1886D02*
X2397Y1886D01*
X345Y1885D02*
X356Y1885D01*
X2387Y1885D02*
X2398Y1885D01*
X344Y1884D02*
X355Y1884D01*
X2388Y1884D02*
X2399Y1884D01*
X343Y1883D02*
X354Y1883D01*
X2389Y1883D02*
X2400Y1883D01*
X342Y1882D02*
X353Y1882D01*
X2390Y1882D02*
X2401Y1882D01*
X341Y1881D02*
X352Y1881D01*
X2391Y1881D02*
X2402Y1881D01*
X340Y1880D02*
X351Y1880D01*
X2392Y1880D02*
X2403Y1880D01*
X339Y1879D02*
X349Y1879D01*
X2394Y1879D02*
X2404Y1879D01*
X338Y1878D02*
X348Y1878D01*
X2395Y1878D02*
X2405Y1878D01*
X337Y1877D02*
X347Y1877D01*
X2396Y1877D02*
X2406Y1877D01*
X335Y1876D02*
X346Y1876D01*
X2397Y1876D02*
X2408Y1876D01*
X334Y1875D02*
X345Y1875D01*
X2398Y1875D02*
X2409Y1875D01*
X333Y1874D02*
X344Y1874D01*
X2399Y1874D02*
X2410Y1874D01*
X332Y1873D02*
X343Y1873D01*
X2400Y1873D02*
X2411Y1873D01*
X331Y1872D02*
X342Y1872D01*
X2401Y1872D02*
X2412Y1872D01*
X330Y1871D02*
X341Y1871D01*
X2402Y1871D02*
X2413Y1871D01*
X329Y1870D02*
X340Y1870D01*
X2403Y1870D02*
X2414Y1870D01*
X328Y1869D02*
X339Y1869D01*
X2404Y1869D02*
X2415Y1869D01*
X327Y1868D02*
X338Y1868D01*
X2405Y1868D02*
X2416Y1868D01*
X326Y1867D02*
X337Y1867D01*
X2406Y1867D02*
X2417Y1867D01*
X325Y1866D02*
X336Y1866D01*
X2407Y1866D02*
X2418Y1866D01*
X324Y1865D02*
X335Y1865D01*
X2408Y1865D02*
X2419Y1865D01*
X323Y1864D02*
X334Y1864D01*
X2409Y1864D02*
X2420Y1864D01*
X322Y1863D02*
X333Y1863D01*
X2410Y1863D02*
X2421Y1863D01*
X321Y1862D02*
X332Y1862D01*
X2411Y1862D02*
X2422Y1862D01*
X320Y1861D02*
X330Y1861D01*
X2413Y1861D02*
X2423Y1861D01*
X319Y1860D02*
X329Y1860D01*
X2414Y1860D02*
X2424Y1860D01*
X318Y1859D02*
X328Y1859D01*
X2415Y1859D02*
X2425Y1859D01*
X317Y1858D02*
X327Y1858D01*
X2416Y1858D02*
X2426Y1858D01*
X316Y1857D02*
X326Y1857D01*
X2417Y1857D02*
X2427Y1857D01*
X315Y1856D02*
X325Y1856D01*
X2418Y1856D02*
X2428Y1856D01*
X314Y1855D02*
X324Y1855D01*
X2419Y1855D02*
X2429Y1855D01*
X313Y1854D02*
X323Y1854D01*
X2420Y1854D02*
X2430Y1854D01*
X312Y1853D02*
X322Y1853D01*
X2421Y1853D02*
X2431Y1853D01*
X311Y1852D02*
X321Y1852D01*
X2422Y1852D02*
X2432Y1852D01*
X310Y1851D02*
X320Y1851D01*
X2423Y1851D02*
X2433Y1851D01*
X309Y1850D02*
X319Y1850D01*
X2424Y1850D02*
X2434Y1850D01*
X308Y1849D02*
X318Y1849D01*
X2425Y1849D02*
X2435Y1849D01*
X307Y1848D02*
X317Y1848D01*
X2426Y1848D02*
X2436Y1848D01*
X306Y1847D02*
X316Y1847D01*
X2427Y1847D02*
X2437Y1847D01*
X305Y1846D02*
X315Y1846D01*
X2428Y1846D02*
X2438Y1846D01*
X304Y1845D02*
X314Y1845D01*
X2429Y1845D02*
X2439Y1845D01*
X303Y1844D02*
X313Y1844D01*
X2430Y1844D02*
X2440Y1844D01*
X302Y1843D02*
X312Y1843D01*
X2431Y1843D02*
X2441Y1843D01*
X301Y1842D02*
X311Y1842D01*
X2432Y1842D02*
X2442Y1842D01*
X300Y1841D02*
X310Y1841D01*
X2433Y1841D02*
X2443Y1841D01*
X299Y1840D02*
X309Y1840D01*
X2434Y1840D02*
X2444Y1840D01*
X298Y1839D02*
X308Y1839D01*
X2435Y1839D02*
X2445Y1839D01*
X297Y1838D02*
X307Y1838D01*
X2436Y1838D02*
X2446Y1838D01*
X296Y1837D02*
X306Y1837D01*
X2437Y1837D02*
X2447Y1837D01*
X295Y1836D02*
X305Y1836D01*
X2438Y1836D02*
X2448Y1836D01*
X294Y1835D02*
X305Y1835D01*
X2438Y1835D02*
X2449Y1835D01*
X293Y1834D02*
X304Y1834D01*
X2439Y1834D02*
X2450Y1834D01*
X292Y1833D02*
X303Y1833D01*
X2440Y1833D02*
X2451Y1833D01*
X292Y1832D02*
X302Y1832D01*
X2441Y1832D02*
X2451Y1832D01*
X291Y1831D02*
X301Y1831D01*
X2442Y1831D02*
X2452Y1831D01*
X290Y1830D02*
X300Y1830D01*
X2443Y1830D02*
X2453Y1830D01*
X289Y1829D02*
X299Y1829D01*
X2444Y1829D02*
X2454Y1829D01*
X288Y1828D02*
X298Y1828D01*
X2445Y1828D02*
X2455Y1828D01*
X287Y1827D02*
X297Y1827D01*
X2446Y1827D02*
X2456Y1827D01*
X286Y1826D02*
X296Y1826D01*
X2447Y1826D02*
X2457Y1826D01*
X285Y1825D02*
X295Y1825D01*
X2448Y1825D02*
X2458Y1825D01*
X284Y1824D02*
X294Y1824D01*
X2449Y1824D02*
X2459Y1824D01*
X283Y1823D02*
X293Y1823D01*
X2450Y1823D02*
X2460Y1823D01*
X282Y1822D02*
X292Y1822D01*
X2451Y1822D02*
X2461Y1822D01*
X281Y1821D02*
X291Y1821D01*
X2452Y1821D02*
X2462Y1821D01*
X280Y1820D02*
X290Y1820D01*
X2453Y1820D02*
X2463Y1820D01*
X279Y1819D02*
X289Y1819D01*
X2454Y1819D02*
X2464Y1819D01*
X279Y1818D02*
X288Y1818D01*
X2455Y1818D02*
X2464Y1818D01*
X278Y1817D02*
X287Y1817D01*
X2456Y1817D02*
X2465Y1817D01*
X277Y1816D02*
X287Y1816D01*
X2456Y1816D02*
X2466Y1816D01*
X276Y1815D02*
X286Y1815D01*
X2457Y1815D02*
X2467Y1815D01*
X275Y1814D02*
X285Y1814D01*
X2458Y1814D02*
X2468Y1814D01*
X274Y1813D02*
X284Y1813D01*
X2459Y1813D02*
X2469Y1813D01*
X273Y1812D02*
X283Y1812D01*
X2460Y1812D02*
X2470Y1812D01*
X272Y1811D02*
X282Y1811D01*
X2461Y1811D02*
X2471Y1811D01*
X271Y1810D02*
X281Y1810D01*
X2462Y1810D02*
X2472Y1810D01*
X270Y1809D02*
X280Y1809D01*
X2463Y1809D02*
X2473Y1809D01*
X269Y1808D02*
X279Y1808D01*
X2464Y1808D02*
X2474Y1808D01*
X269Y1807D02*
X278Y1807D01*
X2465Y1807D02*
X2474Y1807D01*
X268Y1806D02*
X277Y1806D01*
X2466Y1806D02*
X2475Y1806D01*
X267Y1805D02*
X276Y1805D01*
X2467Y1805D02*
X2476Y1805D01*
X266Y1804D02*
X275Y1804D01*
X2468Y1804D02*
X2477Y1804D01*
X265Y1803D02*
X275Y1803D01*
X2468Y1803D02*
X2478Y1803D01*
X264Y1802D02*
X274Y1802D01*
X2469Y1802D02*
X2479Y1802D01*
X263Y1801D02*
X273Y1801D01*
X2470Y1801D02*
X2480Y1801D01*
X262Y1800D02*
X272Y1800D01*
X2471Y1800D02*
X2481Y1800D01*
X261Y1799D02*
X271Y1799D01*
X2472Y1799D02*
X2482Y1799D01*
X261Y1798D02*
X270Y1798D01*
X2473Y1798D02*
X2482Y1798D01*
X260Y1797D02*
X269Y1797D01*
X2474Y1797D02*
X2483Y1797D01*
X259Y1796D02*
X268Y1796D01*
X2475Y1796D02*
X2484Y1796D01*
X258Y1795D02*
X268Y1795D01*
X2475Y1795D02*
X2485Y1795D01*
X257Y1794D02*
X267Y1794D01*
X2476Y1794D02*
X2486Y1794D01*
X256Y1793D02*
X266Y1793D01*
X2477Y1793D02*
X2487Y1793D01*
X255Y1792D02*
X265Y1792D01*
X2478Y1792D02*
X2488Y1792D01*
X254Y1791D02*
X264Y1791D01*
X2479Y1791D02*
X2489Y1791D01*
X254Y1790D02*
X263Y1790D01*
X2480Y1790D02*
X2489Y1790D01*
X253Y1789D02*
X262Y1789D01*
X2481Y1789D02*
X2490Y1789D01*
X252Y1788D02*
X261Y1788D01*
X2482Y1788D02*
X2491Y1788D01*
X251Y1787D02*
X260Y1787D01*
X2483Y1787D02*
X2492Y1787D01*
X250Y1786D02*
X260Y1786D01*
X2483Y1786D02*
X2493Y1786D01*
X249Y1785D02*
X259Y1785D01*
X2484Y1785D02*
X2494Y1785D01*
X248Y1784D02*
X258Y1784D01*
X2485Y1784D02*
X2495Y1784D01*
X248Y1783D02*
X257Y1783D01*
X2486Y1783D02*
X2495Y1783D01*
X247Y1782D02*
X256Y1782D01*
X2487Y1782D02*
X2496Y1782D01*
X246Y1781D02*
X255Y1781D01*
X2488Y1781D02*
X2497Y1781D01*
X245Y1780D02*
X254Y1780D01*
X2489Y1780D02*
X2498Y1780D01*
X244Y1779D02*
X254Y1779D01*
X2489Y1779D02*
X2499Y1779D01*
X243Y1778D02*
X253Y1778D01*
X2490Y1778D02*
X2500Y1778D01*
X243Y1777D02*
X252Y1777D01*
X2491Y1777D02*
X2500Y1777D01*
X242Y1776D02*
X251Y1776D01*
X2492Y1776D02*
X2501Y1776D01*
X241Y1775D02*
X250Y1775D01*
X2493Y1775D02*
X2502Y1775D01*
X240Y1774D02*
X249Y1774D01*
X2494Y1774D02*
X2503Y1774D01*
X239Y1773D02*
X249Y1773D01*
X2494Y1773D02*
X2504Y1773D01*
X238Y1772D02*
X248Y1772D01*
X2495Y1772D02*
X2505Y1772D01*
X238Y1771D02*
X247Y1771D01*
X2496Y1771D02*
X2505Y1771D01*
X237Y1770D02*
X246Y1770D01*
X2497Y1770D02*
X2506Y1770D01*
X236Y1769D02*
X245Y1769D01*
X2498Y1769D02*
X2507Y1769D01*
X235Y1768D02*
X244Y1768D01*
X2499Y1768D02*
X2508Y1768D01*
X234Y1767D02*
X244Y1767D01*
X2499Y1767D02*
X2509Y1767D01*
X233Y1766D02*
X243Y1766D01*
X2500Y1766D02*
X2510Y1766D01*
X233Y1765D02*
X242Y1765D01*
X2501Y1765D02*
X2510Y1765D01*
X232Y1764D02*
X241Y1764D01*
X2502Y1764D02*
X2511Y1764D01*
X231Y1763D02*
X240Y1763D01*
X2503Y1763D02*
X2512Y1763D01*
X230Y1762D02*
X239Y1762D01*
X2504Y1762D02*
X2513Y1762D01*
X229Y1761D02*
X239Y1761D01*
X2504Y1761D02*
X2514Y1761D01*
X229Y1760D02*
X238Y1760D01*
X2505Y1760D02*
X2514Y1760D01*
X228Y1759D02*
X237Y1759D01*
X2506Y1759D02*
X2515Y1759D01*
X227Y1758D02*
X236Y1758D01*
X2507Y1758D02*
X2516Y1758D01*
X226Y1757D02*
X235Y1757D01*
X2508Y1757D02*
X2517Y1757D01*
X225Y1756D02*
X235Y1756D01*
X2508Y1756D02*
X2518Y1756D01*
X225Y1755D02*
X234Y1755D01*
X2509Y1755D02*
X2518Y1755D01*
X224Y1754D02*
X233Y1754D01*
X2510Y1754D02*
X2519Y1754D01*
X223Y1753D02*
X232Y1753D01*
X2511Y1753D02*
X2520Y1753D01*
X222Y1752D02*
X231Y1752D01*
X2512Y1752D02*
X2521Y1752D01*
X221Y1751D02*
X231Y1751D01*
X2512Y1751D02*
X2522Y1751D01*
X221Y1750D02*
X230Y1750D01*
X2513Y1750D02*
X2522Y1750D01*
X220Y1749D02*
X229Y1749D01*
X2514Y1749D02*
X2523Y1749D01*
X219Y1748D02*
X228Y1748D01*
X2515Y1748D02*
X2524Y1748D01*
X218Y1747D02*
X227Y1747D01*
X2516Y1747D02*
X2525Y1747D01*
X217Y1746D02*
X227Y1746D01*
X2516Y1746D02*
X2526Y1746D01*
X217Y1745D02*
X226Y1745D01*
X2517Y1745D02*
X2526Y1745D01*
X216Y1744D02*
X225Y1744D01*
X2518Y1744D02*
X2527Y1744D01*
X215Y1743D02*
X224Y1743D01*
X2519Y1743D02*
X2528Y1743D01*
X214Y1742D02*
X223Y1742D01*
X2520Y1742D02*
X2529Y1742D01*
X214Y1741D02*
X223Y1741D01*
X2520Y1741D02*
X2529Y1741D01*
X213Y1740D02*
X222Y1740D01*
X2521Y1740D02*
X2530Y1740D01*
X212Y1739D02*
X221Y1739D01*
X2522Y1739D02*
X2531Y1739D01*
X211Y1738D02*
X220Y1738D01*
X2523Y1738D02*
X2532Y1738D01*
X211Y1737D02*
X219Y1737D01*
X2524Y1737D02*
X2532Y1737D01*
X210Y1736D02*
X219Y1736D01*
X2524Y1736D02*
X2533Y1736D01*
X209Y1735D02*
X218Y1735D01*
X2525Y1735D02*
X2534Y1735D01*
X208Y1734D02*
X217Y1734D01*
X2526Y1734D02*
X2535Y1734D01*
X208Y1733D02*
X216Y1733D01*
X2527Y1733D02*
X2535Y1733D01*
X207Y1732D02*
X216Y1732D01*
X2527Y1732D02*
X2536Y1732D01*
X206Y1731D02*
X215Y1731D01*
X2528Y1731D02*
X2537Y1731D01*
X205Y1730D02*
X214Y1730D01*
X2529Y1730D02*
X2538Y1730D01*
X205Y1729D02*
X213Y1729D01*
X2530Y1729D02*
X2538Y1729D01*
X204Y1728D02*
X213Y1728D01*
X2530Y1728D02*
X2539Y1728D01*
X203Y1727D02*
X212Y1727D01*
X2531Y1727D02*
X2540Y1727D01*
X202Y1726D02*
X211Y1726D01*
X2532Y1726D02*
X2541Y1726D01*
X202Y1725D02*
X210Y1725D01*
X2533Y1725D02*
X2541Y1725D01*
X201Y1724D02*
X210Y1724D01*
X2533Y1724D02*
X2542Y1724D01*
X200Y1723D02*
X209Y1723D01*
X2534Y1723D02*
X2543Y1723D01*
X199Y1722D02*
X208Y1722D01*
X2535Y1722D02*
X2544Y1722D01*
X199Y1721D02*
X207Y1721D01*
X2536Y1721D02*
X2544Y1721D01*
X198Y1720D02*
X207Y1720D01*
X2536Y1720D02*
X2545Y1720D01*
X197Y1719D02*
X206Y1719D01*
X2537Y1719D02*
X2546Y1719D01*
X196Y1718D02*
X205Y1718D01*
X2538Y1718D02*
X2547Y1718D01*
X196Y1717D02*
X204Y1717D01*
X2539Y1717D02*
X2547Y1717D01*
X195Y1716D02*
X204Y1716D01*
X2539Y1716D02*
X2548Y1716D01*
X194Y1715D02*
X203Y1715D01*
X2540Y1715D02*
X2549Y1715D01*
X194Y1714D02*
X202Y1714D01*
X2541Y1714D02*
X2549Y1714D01*
X193Y1713D02*
X201Y1713D01*
X2542Y1713D02*
X2550Y1713D01*
X192Y1712D02*
X201Y1712D01*
X2542Y1712D02*
X2551Y1712D01*
X191Y1711D02*
X200Y1711D01*
X2543Y1711D02*
X2552Y1711D01*
X191Y1710D02*
X199Y1710D01*
X2544Y1710D02*
X2552Y1710D01*
X190Y1709D02*
X199Y1709D01*
X2544Y1709D02*
X2553Y1709D01*
X189Y1708D02*
X198Y1708D01*
X2545Y1708D02*
X2554Y1708D01*
X188Y1707D02*
X197Y1707D01*
X2546Y1707D02*
X2554Y1707D01*
X188Y1706D02*
X196Y1706D01*
X2547Y1706D02*
X2555Y1706D01*
X187Y1705D02*
X196Y1705D01*
X2547Y1705D02*
X2556Y1705D01*
X186Y1704D02*
X195Y1704D01*
X2548Y1704D02*
X2557Y1704D01*
X186Y1703D02*
X194Y1703D01*
X2549Y1703D02*
X2557Y1703D01*
X185Y1702D02*
X194Y1702D01*
X2549Y1702D02*
X2558Y1702D01*
X184Y1701D02*
X193Y1701D01*
X2550Y1701D02*
X2559Y1701D01*
X183Y1700D02*
X192Y1700D01*
X2551Y1700D02*
X2560Y1700D01*
X183Y1699D02*
X191Y1699D01*
X2552Y1699D02*
X2560Y1699D01*
X182Y1698D02*
X191Y1698D01*
X2552Y1698D02*
X2561Y1698D01*
X181Y1697D02*
X190Y1697D01*
X2553Y1697D02*
X2562Y1697D01*
X181Y1696D02*
X189Y1696D01*
X2554Y1696D02*
X2562Y1696D01*
X180Y1695D02*
X189Y1695D01*
X2554Y1695D02*
X2563Y1695D01*
X179Y1694D02*
X188Y1694D01*
X2555Y1694D02*
X2564Y1694D01*
X179Y1693D02*
X187Y1693D01*
X2556Y1693D02*
X2564Y1693D01*
X178Y1692D02*
X186Y1692D01*
X2557Y1692D02*
X2565Y1692D01*
X177Y1691D02*
X186Y1691D01*
X2557Y1691D02*
X2566Y1691D01*
X177Y1690D02*
X185Y1690D01*
X2558Y1690D02*
X2566Y1690D01*
X176Y1689D02*
X184Y1689D01*
X2559Y1689D02*
X2567Y1689D01*
X175Y1688D02*
X184Y1688D01*
X2559Y1688D02*
X2568Y1688D01*
X175Y1687D02*
X183Y1687D01*
X2560Y1687D02*
X2568Y1687D01*
X174Y1686D02*
X182Y1686D01*
X2561Y1686D02*
X2569Y1686D01*
X173Y1685D02*
X182Y1685D01*
X2561Y1685D02*
X2570Y1685D01*
X173Y1684D02*
X181Y1684D01*
X2562Y1684D02*
X2570Y1684D01*
X172Y1683D02*
X180Y1683D01*
X2563Y1683D02*
X2571Y1683D01*
X171Y1682D02*
X180Y1682D01*
X2563Y1682D02*
X2572Y1682D01*
X171Y1681D02*
X179Y1681D01*
X2564Y1681D02*
X2572Y1681D01*
X170Y1680D02*
X178Y1680D01*
X2565Y1680D02*
X2573Y1680D01*
X169Y1679D02*
X178Y1679D01*
X2565Y1679D02*
X2574Y1679D01*
X169Y1678D02*
X177Y1678D01*
X2566Y1678D02*
X2574Y1678D01*
X168Y1677D02*
X176Y1677D01*
X2567Y1677D02*
X2575Y1677D01*
X167Y1676D02*
X176Y1676D01*
X2567Y1676D02*
X2576Y1676D01*
X166Y1675D02*
X175Y1675D01*
X2568Y1675D02*
X2577Y1675D01*
X166Y1674D02*
X174Y1674D01*
X2569Y1674D02*
X2577Y1674D01*
X165Y1673D02*
X174Y1673D01*
X2569Y1673D02*
X2578Y1673D01*
X165Y1672D02*
X173Y1672D01*
X2570Y1672D02*
X2578Y1672D01*
X164Y1671D02*
X172Y1671D01*
X2571Y1671D02*
X2579Y1671D01*
X163Y1670D02*
X172Y1670D01*
X2571Y1670D02*
X2580Y1670D01*
X163Y1669D02*
X171Y1669D01*
X2572Y1669D02*
X2580Y1669D01*
X162Y1668D02*
X170Y1668D01*
X2573Y1668D02*
X2581Y1668D01*
X161Y1667D02*
X170Y1667D01*
X2573Y1667D02*
X2582Y1667D01*
X161Y1666D02*
X169Y1666D01*
X2574Y1666D02*
X2582Y1666D01*
X160Y1665D02*
X168Y1665D01*
X2575Y1665D02*
X2583Y1665D01*
X159Y1664D02*
X168Y1664D01*
X2575Y1664D02*
X2584Y1664D01*
X159Y1663D02*
X167Y1663D01*
X2576Y1663D02*
X2584Y1663D01*
X158Y1662D02*
X166Y1662D01*
X2577Y1662D02*
X2585Y1662D01*
X157Y1661D02*
X166Y1661D01*
X2577Y1661D02*
X2586Y1661D01*
X157Y1660D02*
X165Y1660D01*
X2578Y1660D02*
X2586Y1660D01*
X156Y1659D02*
X164Y1659D01*
X2578Y1659D02*
X2587Y1659D01*
X156Y1658D02*
X164Y1658D01*
X2579Y1658D02*
X2587Y1658D01*
X155Y1657D02*
X163Y1657D01*
X2580Y1657D02*
X2588Y1657D01*
X154Y1656D02*
X163Y1656D01*
X2580Y1656D02*
X2589Y1656D01*
X154Y1655D02*
X162Y1655D01*
X2581Y1655D02*
X2589Y1655D01*
X153Y1654D02*
X161Y1654D01*
X2582Y1654D02*
X2590Y1654D01*
X152Y1653D02*
X161Y1653D01*
X2582Y1653D02*
X2591Y1653D01*
X152Y1652D02*
X160Y1652D01*
X2583Y1652D02*
X2591Y1652D01*
X151Y1651D02*
X159Y1651D01*
X2584Y1651D02*
X2592Y1651D01*
X150Y1650D02*
X159Y1650D01*
X2584Y1650D02*
X2593Y1650D01*
X150Y1649D02*
X158Y1649D01*
X2585Y1649D02*
X2593Y1649D01*
X149Y1648D02*
X157Y1648D01*
X2586Y1648D02*
X2594Y1648D01*
X149Y1647D02*
X157Y1647D01*
X2586Y1647D02*
X2594Y1647D01*
X148Y1646D02*
X156Y1646D01*
X2587Y1646D02*
X2595Y1646D01*
X147Y1645D02*
X156Y1645D01*
X2587Y1645D02*
X2596Y1645D01*
X147Y1644D02*
X155Y1644D01*
X2588Y1644D02*
X2596Y1644D01*
X146Y1643D02*
X154Y1643D01*
X2589Y1643D02*
X2597Y1643D01*
X146Y1642D02*
X154Y1642D01*
X2589Y1642D02*
X2597Y1642D01*
X145Y1641D02*
X153Y1641D01*
X2590Y1641D02*
X2598Y1641D01*
X144Y1640D02*
X153Y1640D01*
X2590Y1640D02*
X2599Y1640D01*
X144Y1639D02*
X152Y1639D01*
X2591Y1639D02*
X2599Y1639D01*
X143Y1638D02*
X151Y1638D01*
X2592Y1638D02*
X2600Y1638D01*
X143Y1637D02*
X151Y1637D01*
X2592Y1637D02*
X2600Y1637D01*
X142Y1636D02*
X150Y1636D01*
X2593Y1636D02*
X2601Y1636D01*
X141Y1635D02*
X150Y1635D01*
X2593Y1635D02*
X2602Y1635D01*
X141Y1634D02*
X149Y1634D01*
X2594Y1634D02*
X2602Y1634D01*
X140Y1633D02*
X148Y1633D01*
X2595Y1633D02*
X2603Y1633D01*
X140Y1632D02*
X148Y1632D01*
X2595Y1632D02*
X2603Y1632D01*
X139Y1631D02*
X147Y1631D01*
X2596Y1631D02*
X2604Y1631D01*
X138Y1630D02*
X147Y1630D01*
X2596Y1630D02*
X2605Y1630D01*
X138Y1629D02*
X146Y1629D01*
X2597Y1629D02*
X2605Y1629D01*
X137Y1628D02*
X145Y1628D01*
X2598Y1628D02*
X2606Y1628D01*
X137Y1627D02*
X145Y1627D01*
X2598Y1627D02*
X2606Y1627D01*
X136Y1626D02*
X144Y1626D01*
X2599Y1626D02*
X2607Y1626D01*
X135Y1625D02*
X144Y1625D01*
X2599Y1625D02*
X2608Y1625D01*
X135Y1624D02*
X143Y1624D01*
X2600Y1624D02*
X2608Y1624D01*
X134Y1623D02*
X142Y1623D01*
X2601Y1623D02*
X2609Y1623D01*
X134Y1622D02*
X142Y1622D01*
X2601Y1622D02*
X2609Y1622D01*
X133Y1621D02*
X141Y1621D01*
X2602Y1621D02*
X2610Y1621D01*
X133Y1620D02*
X141Y1620D01*
X2602Y1620D02*
X2610Y1620D01*
X132Y1619D02*
X140Y1619D01*
X2603Y1619D02*
X2611Y1619D01*
X131Y1618D02*
X139Y1618D01*
X2604Y1618D02*
X2612Y1618D01*
X131Y1617D02*
X139Y1617D01*
X2604Y1617D02*
X2612Y1617D01*
X130Y1616D02*
X138Y1616D01*
X2605Y1616D02*
X2613Y1616D01*
X130Y1615D02*
X138Y1615D01*
X2605Y1615D02*
X2613Y1615D01*
X129Y1614D02*
X137Y1614D01*
X2606Y1614D02*
X2614Y1614D01*
X129Y1613D02*
X137Y1613D01*
X2606Y1613D02*
X2614Y1613D01*
X128Y1612D02*
X136Y1612D01*
X2607Y1612D02*
X2615Y1612D01*
X127Y1611D02*
X135Y1611D01*
X2608Y1611D02*
X2616Y1611D01*
X127Y1610D02*
X135Y1610D01*
X2608Y1610D02*
X2616Y1610D01*
X126Y1609D02*
X134Y1609D01*
X2609Y1609D02*
X2617Y1609D01*
X126Y1608D02*
X134Y1608D01*
X2609Y1608D02*
X2617Y1608D01*
X125Y1607D02*
X133Y1607D01*
X2610Y1607D02*
X2618Y1607D01*
X125Y1606D02*
X133Y1606D01*
X2610Y1606D02*
X2618Y1606D01*
X124Y1605D02*
X132Y1605D01*
X2611Y1605D02*
X2619Y1605D01*
X124Y1604D02*
X131Y1604D01*
X2612Y1604D02*
X2619Y1604D01*
X123Y1603D02*
X131Y1603D01*
X2612Y1603D02*
X2620Y1603D01*
X122Y1602D02*
X130Y1602D01*
X2613Y1602D02*
X2621Y1602D01*
X122Y1601D02*
X130Y1601D01*
X2613Y1601D02*
X2621Y1601D01*
X121Y1600D02*
X129Y1600D01*
X2614Y1600D02*
X2622Y1600D01*
X121Y1599D02*
X129Y1599D01*
X2614Y1599D02*
X2622Y1599D01*
X120Y1598D02*
X128Y1598D01*
X2615Y1598D02*
X2623Y1598D01*
X120Y1597D02*
X128Y1597D01*
X2615Y1597D02*
X2623Y1597D01*
X119Y1596D02*
X127Y1596D01*
X2616Y1596D02*
X2624Y1596D01*
X119Y1595D02*
X126Y1595D01*
X2617Y1595D02*
X2624Y1595D01*
X118Y1594D02*
X126Y1594D01*
X2617Y1594D02*
X2625Y1594D01*
X118Y1593D02*
X125Y1593D01*
X2618Y1593D02*
X2625Y1593D01*
X117Y1592D02*
X125Y1592D01*
X2618Y1592D02*
X2626Y1592D01*
X116Y1591D02*
X124Y1591D01*
X2619Y1591D02*
X2627Y1591D01*
X116Y1590D02*
X124Y1590D01*
X2619Y1590D02*
X2627Y1590D01*
X115Y1589D02*
X123Y1589D01*
X2620Y1589D02*
X2628Y1589D01*
X115Y1588D02*
X123Y1588D01*
X2620Y1588D02*
X2628Y1588D01*
X114Y1587D02*
X122Y1587D01*
X2621Y1587D02*
X2629Y1587D01*
X114Y1586D02*
X122Y1586D01*
X2621Y1586D02*
X2629Y1586D01*
X113Y1585D02*
X121Y1585D01*
X2622Y1585D02*
X2630Y1585D01*
X113Y1584D02*
X121Y1584D01*
X2622Y1584D02*
X2630Y1584D01*
X112Y1583D02*
X120Y1583D01*
X2623Y1583D02*
X2631Y1583D01*
X112Y1582D02*
X120Y1582D01*
X2623Y1582D02*
X2631Y1582D01*
X111Y1581D02*
X119Y1581D01*
X2624Y1581D02*
X2632Y1581D01*
X111Y1580D02*
X118Y1580D01*
X2625Y1580D02*
X2632Y1580D01*
X110Y1579D02*
X118Y1579D01*
X2625Y1579D02*
X2633Y1579D01*
X110Y1578D02*
X117Y1578D01*
X2626Y1578D02*
X2633Y1578D01*
X109Y1577D02*
X117Y1577D01*
X2626Y1577D02*
X2634Y1577D01*
X109Y1576D02*
X116Y1576D01*
X2627Y1576D02*
X2634Y1576D01*
X108Y1575D02*
X116Y1575D01*
X2627Y1575D02*
X2635Y1575D01*
X107Y1574D02*
X115Y1574D01*
X2628Y1574D02*
X2635Y1574D01*
X107Y1573D02*
X115Y1573D01*
X2628Y1573D02*
X2636Y1573D01*
X107Y1572D02*
X114Y1572D01*
X2629Y1572D02*
X2636Y1572D01*
X106Y1571D02*
X114Y1571D01*
X2629Y1571D02*
X2637Y1571D01*
X106Y1570D02*
X113Y1570D01*
X2630Y1570D02*
X2637Y1570D01*
X105Y1569D02*
X113Y1569D01*
X2630Y1569D02*
X2638Y1569D01*
X105Y1568D02*
X112Y1568D01*
X2631Y1568D02*
X2638Y1568D01*
X104Y1567D02*
X112Y1567D01*
X2631Y1567D02*
X2639Y1567D01*
X104Y1566D02*
X111Y1566D01*
X2632Y1566D02*
X2639Y1566D01*
X103Y1565D02*
X111Y1565D01*
X2632Y1565D02*
X2640Y1565D01*
X103Y1564D02*
X110Y1564D01*
X2633Y1564D02*
X2640Y1564D01*
X102Y1563D02*
X110Y1563D01*
X2633Y1563D02*
X2641Y1563D01*
X102Y1562D02*
X109Y1562D01*
X2634Y1562D02*
X2641Y1562D01*
X101Y1561D02*
X109Y1561D01*
X2634Y1561D02*
X2642Y1561D01*
X101Y1560D02*
X108Y1560D01*
X2635Y1560D02*
X2642Y1560D01*
X100Y1559D02*
X108Y1559D01*
X2635Y1559D02*
X2643Y1559D01*
X100Y1558D02*
X107Y1558D01*
X2636Y1558D02*
X2643Y1558D01*
X99Y1557D02*
X107Y1557D01*
X2636Y1557D02*
X2644Y1557D01*
X99Y1556D02*
X106Y1556D01*
X2637Y1556D02*
X2644Y1556D01*
X98Y1555D02*
X106Y1555D01*
X2637Y1555D02*
X2645Y1555D01*
X98Y1554D02*
X105Y1554D01*
X2638Y1554D02*
X2645Y1554D01*
X97Y1553D02*
X105Y1553D01*
X2638Y1553D02*
X2646Y1553D01*
X97Y1552D02*
X104Y1552D01*
X2639Y1552D02*
X2646Y1552D01*
X96Y1551D02*
X104Y1551D01*
X2639Y1551D02*
X2647Y1551D01*
X96Y1550D02*
X103Y1550D01*
X2640Y1550D02*
X2647Y1550D01*
X95Y1549D02*
X103Y1549D01*
X2640Y1549D02*
X2648Y1549D01*
X95Y1548D02*
X102Y1548D01*
X2641Y1548D02*
X2648Y1548D01*
X94Y1547D02*
X102Y1547D01*
X2641Y1547D02*
X2649Y1547D01*
X94Y1546D02*
X101Y1546D01*
X2642Y1546D02*
X2649Y1546D01*
X93Y1545D02*
X101Y1545D01*
X2642Y1545D02*
X2650Y1545D01*
X93Y1544D02*
X100Y1544D01*
X2643Y1544D02*
X2650Y1544D01*
X92Y1543D02*
X100Y1543D01*
X2643Y1543D02*
X2651Y1543D01*
X92Y1542D02*
X100Y1542D01*
X2643Y1542D02*
X2651Y1542D01*
X91Y1541D02*
X99Y1541D01*
X2644Y1541D02*
X2652Y1541D01*
X91Y1540D02*
X99Y1540D01*
X2644Y1540D02*
X2652Y1540D01*
X91Y1539D02*
X98Y1539D01*
X2645Y1539D02*
X2652Y1539D01*
X90Y1538D02*
X98Y1538D01*
X2645Y1538D02*
X2653Y1538D01*
X90Y1537D02*
X97Y1537D01*
X2646Y1537D02*
X2653Y1537D01*
X89Y1536D02*
X97Y1536D01*
X2646Y1536D02*
X2654Y1536D01*
X89Y1535D02*
X96Y1535D01*
X2647Y1535D02*
X2654Y1535D01*
X88Y1534D02*
X96Y1534D01*
X2647Y1534D02*
X2655Y1534D01*
X88Y1533D02*
X95Y1533D01*
X2648Y1533D02*
X2655Y1533D01*
X87Y1532D02*
X95Y1532D01*
X2648Y1532D02*
X2656Y1532D01*
X87Y1531D02*
X94Y1531D01*
X2649Y1531D02*
X2656Y1531D01*
X86Y1530D02*
X94Y1530D01*
X2649Y1530D02*
X2657Y1530D01*
X86Y1529D02*
X94Y1529D01*
X2649Y1529D02*
X2657Y1529D01*
X85Y1528D02*
X93Y1528D01*
X2650Y1528D02*
X2658Y1528D01*
X85Y1527D02*
X93Y1527D01*
X2650Y1527D02*
X2658Y1527D01*
X85Y1526D02*
X92Y1526D01*
X2651Y1526D02*
X2658Y1526D01*
X84Y1525D02*
X92Y1525D01*
X2651Y1525D02*
X2659Y1525D01*
X84Y1524D02*
X91Y1524D01*
X2652Y1524D02*
X2659Y1524D01*
X83Y1523D02*
X91Y1523D01*
X2652Y1523D02*
X2660Y1523D01*
X83Y1522D02*
X90Y1522D01*
X2653Y1522D02*
X2660Y1522D01*
X82Y1521D02*
X90Y1521D01*
X2653Y1521D02*
X2661Y1521D01*
X82Y1520D02*
X89Y1520D01*
X2654Y1520D02*
X2661Y1520D01*
X81Y1519D02*
X89Y1519D01*
X2654Y1519D02*
X2662Y1519D01*
X81Y1518D02*
X89Y1518D01*
X2654Y1518D02*
X2662Y1518D01*
X81Y1517D02*
X88Y1517D01*
X2655Y1517D02*
X2662Y1517D01*
X80Y1516D02*
X88Y1516D01*
X2655Y1516D02*
X2663Y1516D01*
X80Y1515D02*
X87Y1515D01*
X2656Y1515D02*
X2663Y1515D01*
X79Y1514D02*
X87Y1514D01*
X2656Y1514D02*
X2664Y1514D01*
X79Y1513D02*
X86Y1513D01*
X2657Y1513D02*
X2664Y1513D01*
X78Y1512D02*
X86Y1512D01*
X2657Y1512D02*
X2665Y1512D01*
X78Y1511D02*
X86Y1511D01*
X2657Y1511D02*
X2665Y1511D01*
X78Y1510D02*
X85Y1510D01*
X2658Y1510D02*
X2665Y1510D01*
X77Y1509D02*
X85Y1509D01*
X2658Y1509D02*
X2666Y1509D01*
X77Y1508D02*
X84Y1508D01*
X2659Y1508D02*
X2666Y1508D01*
X76Y1507D02*
X84Y1507D01*
X2659Y1507D02*
X2667Y1507D01*
X76Y1506D02*
X83Y1506D01*
X2660Y1506D02*
X2667Y1506D01*
X75Y1505D02*
X83Y1505D01*
X2660Y1505D02*
X2668Y1505D01*
X75Y1504D02*
X83Y1504D01*
X2660Y1504D02*
X2668Y1504D01*
X75Y1503D02*
X82Y1503D01*
X2661Y1503D02*
X2668Y1503D01*
X74Y1502D02*
X82Y1502D01*
X2661Y1502D02*
X2669Y1502D01*
X74Y1501D02*
X81Y1501D01*
X2662Y1501D02*
X2669Y1501D01*
X73Y1500D02*
X81Y1500D01*
X2662Y1500D02*
X2670Y1500D01*
X73Y1499D02*
X80Y1499D01*
X2663Y1499D02*
X2670Y1499D01*
X72Y1498D02*
X80Y1498D01*
X2663Y1498D02*
X2671Y1498D01*
X72Y1497D02*
X80Y1497D01*
X2663Y1497D02*
X2671Y1497D01*
X72Y1496D02*
X79Y1496D01*
X2664Y1496D02*
X2671Y1496D01*
X71Y1495D02*
X79Y1495D01*
X2664Y1495D02*
X2672Y1495D01*
X71Y1494D02*
X78Y1494D01*
X2665Y1494D02*
X2672Y1494D01*
X71Y1493D02*
X78Y1493D01*
X2665Y1493D02*
X2672Y1493D01*
X70Y1492D02*
X78Y1492D01*
X2665Y1492D02*
X2673Y1492D01*
X70Y1491D02*
X77Y1491D01*
X2666Y1491D02*
X2673Y1491D01*
X69Y1490D02*
X77Y1490D01*
X2666Y1490D02*
X2674Y1490D01*
X69Y1489D02*
X76Y1489D01*
X2667Y1489D02*
X2674Y1489D01*
X69Y1488D02*
X76Y1488D01*
X2667Y1488D02*
X2674Y1488D01*
X68Y1487D02*
X76Y1487D01*
X2667Y1487D02*
X2675Y1487D01*
X68Y1486D02*
X75Y1486D01*
X2668Y1486D02*
X2675Y1486D01*
X67Y1485D02*
X75Y1485D01*
X2668Y1485D02*
X2676Y1485D01*
X67Y1484D02*
X74Y1484D01*
X2669Y1484D02*
X2676Y1484D01*
X67Y1483D02*
X74Y1483D01*
X2669Y1483D02*
X2676Y1483D01*
X66Y1482D02*
X74Y1482D01*
X2669Y1482D02*
X2677Y1482D01*
X66Y1481D02*
X73Y1481D01*
X2670Y1481D02*
X2677Y1481D01*
X65Y1480D02*
X73Y1480D01*
X2670Y1480D02*
X2678Y1480D01*
X65Y1479D02*
X72Y1479D01*
X2671Y1479D02*
X2678Y1479D01*
X65Y1478D02*
X72Y1478D01*
X2671Y1478D02*
X2678Y1478D01*
X64Y1477D02*
X72Y1477D01*
X2671Y1477D02*
X2679Y1477D01*
X64Y1476D02*
X71Y1476D01*
X2672Y1476D02*
X2679Y1476D01*
X63Y1475D02*
X71Y1475D01*
X2672Y1475D02*
X2680Y1475D01*
X63Y1474D02*
X70Y1474D01*
X2673Y1474D02*
X2680Y1474D01*
X63Y1473D02*
X70Y1473D01*
X2673Y1473D02*
X2680Y1473D01*
X62Y1472D02*
X70Y1472D01*
X2673Y1472D02*
X2681Y1472D01*
X62Y1471D02*
X69Y1471D01*
X2674Y1471D02*
X2681Y1471D01*
X61Y1470D02*
X69Y1470D01*
X2674Y1470D02*
X2682Y1470D01*
X61Y1469D02*
X68Y1469D01*
X2675Y1469D02*
X2682Y1469D01*
X61Y1468D02*
X68Y1468D01*
X2675Y1468D02*
X2682Y1468D01*
X60Y1467D02*
X68Y1467D01*
X2675Y1467D02*
X2683Y1467D01*
X60Y1466D02*
X67Y1466D01*
X2676Y1466D02*
X2683Y1466D01*
X60Y1465D02*
X67Y1465D01*
X2676Y1465D02*
X2683Y1465D01*
X59Y1464D02*
X67Y1464D01*
X2676Y1464D02*
X2684Y1464D01*
X59Y1463D02*
X66Y1463D01*
X2677Y1463D02*
X2684Y1463D01*
X59Y1462D02*
X66Y1462D01*
X2677Y1462D02*
X2684Y1462D01*
X58Y1461D02*
X66Y1461D01*
X2677Y1461D02*
X2685Y1461D01*
X58Y1460D02*
X65Y1460D01*
X2678Y1460D02*
X2685Y1460D01*
X58Y1459D02*
X65Y1459D01*
X2678Y1459D02*
X2685Y1459D01*
X57Y1458D02*
X64Y1458D01*
X2679Y1458D02*
X2686Y1458D01*
X57Y1457D02*
X64Y1457D01*
X2679Y1457D02*
X2686Y1457D01*
X56Y1456D02*
X64Y1456D01*
X2679Y1456D02*
X2687Y1456D01*
X56Y1455D02*
X63Y1455D01*
X2680Y1455D02*
X2687Y1455D01*
X56Y1454D02*
X63Y1454D01*
X2680Y1454D02*
X2687Y1454D01*
X55Y1453D02*
X63Y1453D01*
X2680Y1453D02*
X2688Y1453D01*
X55Y1452D02*
X62Y1452D01*
X2681Y1452D02*
X2688Y1452D01*
X55Y1451D02*
X62Y1451D01*
X2681Y1451D02*
X2688Y1451D01*
X54Y1450D02*
X62Y1450D01*
X2681Y1450D02*
X2689Y1450D01*
X54Y1449D02*
X61Y1449D01*
X2682Y1449D02*
X2689Y1449D01*
X54Y1448D02*
X61Y1448D01*
X2682Y1448D02*
X2689Y1448D01*
X53Y1447D02*
X61Y1447D01*
X2682Y1447D02*
X2690Y1447D01*
X53Y1446D02*
X60Y1446D01*
X2683Y1446D02*
X2690Y1446D01*
X52Y1445D02*
X60Y1445D01*
X2683Y1445D02*
X2691Y1445D01*
X52Y1444D02*
X59Y1444D01*
X2684Y1444D02*
X2691Y1444D01*
X52Y1443D02*
X59Y1443D01*
X2684Y1443D02*
X2691Y1443D01*
X51Y1442D02*
X59Y1442D01*
X2684Y1442D02*
X2692Y1442D01*
X51Y1441D02*
X58Y1441D01*
X2685Y1441D02*
X2692Y1441D01*
X51Y1440D02*
X58Y1440D01*
X2685Y1440D02*
X2692Y1440D01*
X50Y1439D02*
X58Y1439D01*
X2685Y1439D02*
X2693Y1439D01*
X50Y1438D02*
X57Y1438D01*
X2686Y1438D02*
X2693Y1438D01*
X50Y1437D02*
X57Y1437D01*
X2686Y1437D02*
X2693Y1437D01*
X49Y1436D02*
X57Y1436D01*
X2686Y1436D02*
X2694Y1436D01*
X49Y1435D02*
X56Y1435D01*
X2687Y1435D02*
X2694Y1435D01*
X49Y1434D02*
X56Y1434D01*
X2687Y1434D02*
X2694Y1434D01*
X49Y1433D02*
X56Y1433D01*
X2687Y1433D02*
X2694Y1433D01*
X48Y1432D02*
X55Y1432D01*
X2688Y1432D02*
X2695Y1432D01*
X48Y1431D02*
X55Y1431D01*
X2688Y1431D02*
X2695Y1431D01*
X48Y1430D02*
X55Y1430D01*
X2688Y1430D02*
X2695Y1430D01*
X47Y1429D02*
X54Y1429D01*
X2689Y1429D02*
X2696Y1429D01*
X47Y1428D02*
X54Y1428D01*
X2689Y1428D02*
X2696Y1428D01*
X47Y1427D02*
X54Y1427D01*
X2689Y1427D02*
X2696Y1427D01*
X46Y1426D02*
X53Y1426D01*
X2690Y1426D02*
X2697Y1426D01*
X46Y1425D02*
X53Y1425D01*
X2690Y1425D02*
X2697Y1425D01*
X46Y1424D02*
X53Y1424D01*
X2690Y1424D02*
X2697Y1424D01*
X45Y1423D02*
X52Y1423D01*
X2691Y1423D02*
X2698Y1423D01*
X45Y1422D02*
X52Y1422D01*
X2691Y1422D02*
X2698Y1422D01*
X45Y1421D02*
X52Y1421D01*
X2691Y1421D02*
X2698Y1421D01*
X44Y1420D02*
X51Y1420D01*
X2692Y1420D02*
X2699Y1420D01*
X44Y1419D02*
X51Y1419D01*
X2692Y1419D02*
X2699Y1419D01*
X44Y1418D02*
X51Y1418D01*
X2692Y1418D02*
X2699Y1418D01*
X43Y1417D02*
X51Y1417D01*
X2692Y1417D02*
X2700Y1417D01*
X43Y1416D02*
X50Y1416D01*
X2693Y1416D02*
X2700Y1416D01*
X43Y1415D02*
X50Y1415D01*
X2693Y1415D02*
X2700Y1415D01*
X42Y1414D02*
X50Y1414D01*
X2693Y1414D02*
X2701Y1414D01*
X42Y1413D02*
X49Y1413D01*
X2694Y1413D02*
X2701Y1413D01*
X42Y1412D02*
X49Y1412D01*
X2694Y1412D02*
X2701Y1412D01*
X41Y1411D02*
X49Y1411D01*
X2694Y1411D02*
X2702Y1411D01*
X41Y1410D02*
X48Y1410D01*
X2695Y1410D02*
X2702Y1410D01*
X41Y1409D02*
X48Y1409D01*
X2695Y1409D02*
X2702Y1409D01*
X41Y1408D02*
X48Y1408D01*
X2695Y1408D02*
X2702Y1408D01*
X40Y1407D02*
X47Y1407D01*
X2696Y1407D02*
X2703Y1407D01*
X40Y1406D02*
X47Y1406D01*
X2696Y1406D02*
X2703Y1406D01*
X40Y1405D02*
X47Y1405D01*
X2696Y1405D02*
X2703Y1405D01*
X39Y1404D02*
X47Y1404D01*
X2696Y1404D02*
X2704Y1404D01*
X39Y1403D02*
X46Y1403D01*
X2697Y1403D02*
X2704Y1403D01*
X39Y1402D02*
X46Y1402D01*
X2697Y1402D02*
X2704Y1402D01*
X39Y1401D02*
X46Y1401D01*
X2697Y1401D02*
X2704Y1401D01*
X38Y1400D02*
X45Y1400D01*
X2698Y1400D02*
X2705Y1400D01*
X38Y1399D02*
X45Y1399D01*
X2698Y1399D02*
X2705Y1399D01*
X38Y1398D02*
X45Y1398D01*
X2698Y1398D02*
X2705Y1398D01*
X37Y1397D02*
X45Y1397D01*
X2698Y1397D02*
X2706Y1397D01*
X37Y1396D02*
X44Y1396D01*
X2699Y1396D02*
X2706Y1396D01*
X37Y1395D02*
X44Y1395D01*
X2699Y1395D02*
X2706Y1395D01*
X36Y1394D02*
X44Y1394D01*
X2699Y1394D02*
X2707Y1394D01*
X36Y1393D02*
X43Y1393D01*
X2700Y1393D02*
X2707Y1393D01*
X36Y1392D02*
X43Y1392D01*
X2700Y1392D02*
X2707Y1392D01*
X36Y1391D02*
X43Y1391D01*
X2700Y1391D02*
X2707Y1391D01*
X35Y1390D02*
X42Y1390D01*
X2701Y1390D02*
X2708Y1390D01*
X35Y1389D02*
X42Y1389D01*
X2701Y1389D02*
X2708Y1389D01*
X35Y1388D02*
X42Y1388D01*
X2701Y1388D02*
X2708Y1388D01*
X34Y1387D02*
X42Y1387D01*
X2701Y1387D02*
X2709Y1387D01*
X34Y1386D02*
X41Y1386D01*
X2702Y1386D02*
X2709Y1386D01*
X34Y1385D02*
X41Y1385D01*
X2702Y1385D02*
X2709Y1385D01*
X34Y1384D02*
X41Y1384D01*
X2702Y1384D02*
X2709Y1384D01*
X33Y1383D02*
X41Y1383D01*
X2702Y1383D02*
X2710Y1383D01*
X33Y1382D02*
X40Y1382D01*
X2703Y1382D02*
X2710Y1382D01*
X33Y1381D02*
X40Y1381D01*
X2703Y1381D02*
X2710Y1381D01*
X33Y1380D02*
X40Y1380D01*
X2703Y1380D02*
X2710Y1380D01*
X32Y1379D02*
X40Y1379D01*
X2703Y1379D02*
X2711Y1379D01*
X32Y1378D02*
X39Y1378D01*
X2704Y1378D02*
X2711Y1378D01*
X32Y1377D02*
X39Y1377D01*
X2704Y1377D02*
X2711Y1377D01*
X32Y1376D02*
X39Y1376D01*
X2704Y1376D02*
X2711Y1376D01*
X31Y1375D02*
X38Y1375D01*
X2705Y1375D02*
X2712Y1375D01*
X31Y1374D02*
X38Y1374D01*
X2705Y1374D02*
X2712Y1374D01*
X31Y1373D02*
X38Y1373D01*
X2705Y1373D02*
X2712Y1373D01*
X31Y1372D02*
X38Y1372D01*
X2705Y1372D02*
X2712Y1372D01*
X30Y1371D02*
X37Y1371D01*
X2706Y1371D02*
X2713Y1371D01*
X30Y1370D02*
X37Y1370D01*
X2706Y1370D02*
X2713Y1370D01*
X30Y1369D02*
X37Y1369D01*
X2706Y1369D02*
X2713Y1369D01*
X29Y1368D02*
X37Y1368D01*
X2706Y1368D02*
X2714Y1368D01*
X29Y1367D02*
X36Y1367D01*
X2707Y1367D02*
X2714Y1367D01*
X29Y1366D02*
X36Y1366D01*
X2707Y1366D02*
X2714Y1366D01*
X29Y1365D02*
X36Y1365D01*
X2707Y1365D02*
X2714Y1365D01*
X28Y1364D02*
X36Y1364D01*
X2707Y1364D02*
X2715Y1364D01*
X28Y1363D02*
X35Y1363D01*
X2708Y1363D02*
X2715Y1363D01*
X28Y1362D02*
X35Y1362D01*
X2708Y1362D02*
X2715Y1362D01*
X28Y1361D02*
X35Y1361D01*
X2708Y1361D02*
X2715Y1361D01*
X27Y1360D02*
X35Y1360D01*
X2708Y1360D02*
X2716Y1360D01*
X27Y1359D02*
X34Y1359D01*
X2709Y1359D02*
X2716Y1359D01*
X27Y1358D02*
X34Y1358D01*
X2709Y1358D02*
X2716Y1358D01*
X27Y1357D02*
X34Y1357D01*
X2709Y1357D02*
X2716Y1357D01*
X26Y1356D02*
X34Y1356D01*
X2709Y1356D02*
X2717Y1356D01*
X26Y1355D02*
X33Y1355D01*
X2710Y1355D02*
X2717Y1355D01*
X26Y1354D02*
X33Y1354D01*
X2710Y1354D02*
X2717Y1354D01*
X26Y1353D02*
X33Y1353D01*
X2710Y1353D02*
X2717Y1353D01*
X26Y1352D02*
X33Y1352D01*
X2710Y1352D02*
X2717Y1352D01*
X25Y1351D02*
X32Y1351D01*
X2711Y1351D02*
X2718Y1351D01*
X25Y1350D02*
X32Y1350D01*
X2711Y1350D02*
X2718Y1350D01*
X25Y1349D02*
X32Y1349D01*
X2711Y1349D02*
X2718Y1349D01*
X25Y1348D02*
X32Y1348D01*
X2711Y1348D02*
X2718Y1348D01*
X24Y1347D02*
X31Y1347D01*
X2711Y1347D02*
X2719Y1347D01*
X24Y1346D02*
X31Y1346D01*
X2712Y1346D02*
X2719Y1346D01*
X24Y1345D02*
X31Y1345D01*
X2712Y1345D02*
X2719Y1345D01*
X24Y1344D02*
X31Y1344D01*
X2712Y1344D02*
X2719Y1344D01*
X23Y1343D02*
X31Y1343D01*
X2712Y1343D02*
X2720Y1343D01*
X23Y1342D02*
X30Y1342D01*
X2713Y1342D02*
X2720Y1342D01*
X23Y1341D02*
X30Y1341D01*
X2713Y1341D02*
X2720Y1341D01*
X23Y1340D02*
X30Y1340D01*
X2713Y1340D02*
X2720Y1340D01*
X23Y1339D02*
X30Y1339D01*
X2713Y1339D02*
X2720Y1339D01*
X22Y1338D02*
X29Y1338D01*
X2714Y1338D02*
X2721Y1338D01*
X22Y1337D02*
X29Y1337D01*
X2714Y1337D02*
X2721Y1337D01*
X22Y1336D02*
X29Y1336D01*
X2714Y1336D02*
X2721Y1336D01*
X22Y1335D02*
X29Y1335D01*
X2714Y1335D02*
X2721Y1335D01*
X21Y1334D02*
X28Y1334D01*
X2715Y1334D02*
X2722Y1334D01*
X21Y1333D02*
X28Y1333D01*
X2715Y1333D02*
X2722Y1333D01*
X21Y1332D02*
X28Y1332D01*
X2715Y1332D02*
X2722Y1332D01*
X21Y1331D02*
X28Y1331D01*
X2715Y1331D02*
X2722Y1331D01*
X21Y1330D02*
X28Y1330D01*
X2715Y1330D02*
X2722Y1330D01*
X20Y1329D02*
X27Y1329D01*
X2716Y1329D02*
X2723Y1329D01*
X20Y1328D02*
X27Y1328D01*
X2716Y1328D02*
X2723Y1328D01*
X20Y1327D02*
X27Y1327D01*
X2716Y1327D02*
X2723Y1327D01*
X20Y1326D02*
X27Y1326D01*
X2716Y1326D02*
X2723Y1326D01*
X20Y1325D02*
X27Y1325D01*
X2716Y1325D02*
X2723Y1325D01*
X19Y1324D02*
X26Y1324D01*
X2717Y1324D02*
X2724Y1324D01*
X19Y1323D02*
X26Y1323D01*
X2717Y1323D02*
X2724Y1323D01*
X19Y1322D02*
X26Y1322D01*
X2717Y1322D02*
X2724Y1322D01*
X19Y1321D02*
X26Y1321D01*
X2717Y1321D02*
X2724Y1321D01*
X19Y1320D02*
X26Y1320D01*
X2717Y1320D02*
X2724Y1320D01*
X18Y1319D02*
X25Y1319D01*
X2718Y1319D02*
X2725Y1319D01*
X18Y1318D02*
X25Y1318D01*
X2718Y1318D02*
X2725Y1318D01*
X18Y1317D02*
X25Y1317D01*
X2718Y1317D02*
X2725Y1317D01*
X18Y1316D02*
X25Y1316D01*
X2718Y1316D02*
X2725Y1316D01*
X18Y1315D02*
X25Y1315D01*
X2718Y1315D02*
X2725Y1315D01*
X17Y1314D02*
X24Y1314D01*
X2719Y1314D02*
X2726Y1314D01*
X17Y1313D02*
X24Y1313D01*
X2719Y1313D02*
X2726Y1313D01*
X17Y1312D02*
X24Y1312D01*
X2719Y1312D02*
X2726Y1312D01*
X17Y1311D02*
X24Y1311D01*
X2719Y1311D02*
X2726Y1311D01*
X17Y1310D02*
X24Y1310D01*
X2719Y1310D02*
X2726Y1310D01*
X16Y1309D02*
X23Y1309D01*
X2720Y1309D02*
X2727Y1309D01*
X16Y1308D02*
X23Y1308D01*
X2720Y1308D02*
X2727Y1308D01*
X16Y1307D02*
X23Y1307D01*
X2720Y1307D02*
X2727Y1307D01*
X16Y1306D02*
X23Y1306D01*
X2720Y1306D02*
X2727Y1306D01*
X16Y1305D02*
X23Y1305D01*
X2720Y1305D02*
X2727Y1305D01*
X15Y1304D02*
X22Y1304D01*
X2721Y1304D02*
X2728Y1304D01*
X15Y1303D02*
X22Y1303D01*
X2721Y1303D02*
X2728Y1303D01*
X15Y1302D02*
X22Y1302D01*
X2721Y1302D02*
X2728Y1302D01*
X15Y1301D02*
X22Y1301D01*
X2721Y1301D02*
X2728Y1301D01*
X15Y1300D02*
X22Y1300D01*
X2721Y1300D02*
X2728Y1300D01*
X15Y1299D02*
X22Y1299D01*
X2721Y1299D02*
X2728Y1299D01*
X14Y1298D02*
X21Y1298D01*
X2722Y1298D02*
X2729Y1298D01*
X14Y1297D02*
X21Y1297D01*
X2722Y1297D02*
X2729Y1297D01*
X14Y1296D02*
X21Y1296D01*
X2722Y1296D02*
X2729Y1296D01*
X14Y1295D02*
X21Y1295D01*
X2722Y1295D02*
X2729Y1295D01*
X14Y1294D02*
X21Y1294D01*
X2722Y1294D02*
X2729Y1294D01*
X13Y1293D02*
X21Y1293D01*
X2722Y1293D02*
X2730Y1293D01*
X13Y1292D02*
X20Y1292D01*
X2723Y1292D02*
X2730Y1292D01*
X13Y1291D02*
X20Y1291D01*
X2723Y1291D02*
X2730Y1291D01*
X13Y1290D02*
X20Y1290D01*
X2723Y1290D02*
X2730Y1290D01*
X13Y1289D02*
X20Y1289D01*
X2723Y1289D02*
X2730Y1289D01*
X13Y1288D02*
X20Y1288D01*
X2723Y1288D02*
X2730Y1288D01*
X12Y1287D02*
X20Y1287D01*
X2723Y1287D02*
X2731Y1287D01*
X12Y1286D02*
X19Y1286D01*
X2724Y1286D02*
X2731Y1286D01*
X12Y1285D02*
X19Y1285D01*
X2724Y1285D02*
X2731Y1285D01*
X12Y1284D02*
X19Y1284D01*
X2724Y1284D02*
X2731Y1284D01*
X12Y1283D02*
X19Y1283D01*
X2724Y1283D02*
X2731Y1283D01*
X12Y1282D02*
X19Y1282D01*
X2724Y1282D02*
X2731Y1282D01*
X11Y1281D02*
X19Y1281D01*
X2724Y1281D02*
X2732Y1281D01*
X11Y1280D02*
X18Y1280D01*
X2725Y1280D02*
X2732Y1280D01*
X11Y1279D02*
X18Y1279D01*
X2725Y1279D02*
X2732Y1279D01*
X11Y1278D02*
X18Y1278D01*
X2725Y1278D02*
X2732Y1278D01*
X11Y1277D02*
X18Y1277D01*
X2725Y1277D02*
X2732Y1277D01*
X11Y1276D02*
X18Y1276D01*
X2725Y1276D02*
X2732Y1276D01*
X11Y1275D02*
X18Y1275D01*
X2725Y1275D02*
X2732Y1275D01*
X10Y1274D02*
X17Y1274D01*
X2726Y1274D02*
X2733Y1274D01*
X10Y1273D02*
X17Y1273D01*
X2726Y1273D02*
X2733Y1273D01*
X10Y1272D02*
X17Y1272D01*
X2726Y1272D02*
X2733Y1272D01*
X10Y1271D02*
X17Y1271D01*
X2726Y1271D02*
X2733Y1271D01*
X10Y1270D02*
X17Y1270D01*
X2726Y1270D02*
X2733Y1270D01*
X10Y1269D02*
X17Y1269D01*
X2726Y1269D02*
X2733Y1269D01*
X10Y1268D02*
X17Y1268D01*
X2726Y1268D02*
X2733Y1268D01*
X9Y1267D02*
X16Y1267D01*
X2727Y1267D02*
X2734Y1267D01*
X9Y1266D02*
X16Y1266D01*
X2727Y1266D02*
X2734Y1266D01*
X9Y1265D02*
X16Y1265D01*
X2727Y1265D02*
X2734Y1265D01*
X9Y1264D02*
X16Y1264D01*
X2727Y1264D02*
X2734Y1264D01*
X9Y1263D02*
X16Y1263D01*
X2727Y1263D02*
X2734Y1263D01*
X9Y1262D02*
X16Y1262D01*
X2727Y1262D02*
X2734Y1262D01*
X9Y1261D02*
X16Y1261D01*
X2727Y1261D02*
X2734Y1261D01*
X8Y1260D02*
X15Y1260D01*
X2728Y1260D02*
X2735Y1260D01*
X8Y1259D02*
X15Y1259D01*
X2728Y1259D02*
X2735Y1259D01*
X8Y1258D02*
X15Y1258D01*
X2728Y1258D02*
X2735Y1258D01*
X8Y1257D02*
X15Y1257D01*
X2728Y1257D02*
X2735Y1257D01*
X8Y1256D02*
X15Y1256D01*
X2728Y1256D02*
X2735Y1256D01*
X8Y1255D02*
X15Y1255D01*
X2728Y1255D02*
X2735Y1255D01*
X8Y1254D02*
X15Y1254D01*
X2728Y1254D02*
X2735Y1254D01*
X8Y1253D02*
X15Y1253D01*
X2728Y1253D02*
X2735Y1253D01*
X7Y1252D02*
X14Y1252D01*
X2729Y1252D02*
X2736Y1252D01*
X7Y1251D02*
X14Y1251D01*
X2729Y1251D02*
X2736Y1251D01*
X7Y1250D02*
X14Y1250D01*
X2729Y1250D02*
X2736Y1250D01*
X7Y1249D02*
X14Y1249D01*
X2729Y1249D02*
X2736Y1249D01*
X7Y1248D02*
X14Y1248D01*
X2729Y1248D02*
X2736Y1248D01*
X7Y1247D02*
X14Y1247D01*
X2729Y1247D02*
X2736Y1247D01*
X7Y1246D02*
X14Y1246D01*
X2729Y1246D02*
X2736Y1246D01*
X7Y1245D02*
X14Y1245D01*
X2729Y1245D02*
X2736Y1245D01*
X6Y1244D02*
X13Y1244D01*
X2730Y1244D02*
X2737Y1244D01*
X6Y1243D02*
X13Y1243D01*
X2730Y1243D02*
X2737Y1243D01*
X6Y1242D02*
X13Y1242D01*
X2730Y1242D02*
X2737Y1242D01*
X6Y1241D02*
X13Y1241D01*
X2730Y1241D02*
X2737Y1241D01*
X6Y1240D02*
X13Y1240D01*
X2730Y1240D02*
X2737Y1240D01*
X6Y1239D02*
X13Y1239D01*
X2730Y1239D02*
X2737Y1239D01*
X6Y1238D02*
X13Y1238D01*
X2730Y1238D02*
X2737Y1238D01*
X6Y1237D02*
X13Y1237D01*
X2730Y1237D02*
X2737Y1237D01*
X6Y1236D02*
X13Y1236D01*
X2730Y1236D02*
X2737Y1236D01*
X5Y1235D02*
X12Y1235D01*
X2731Y1235D02*
X2738Y1235D01*
X5Y1234D02*
X12Y1234D01*
X2731Y1234D02*
X2738Y1234D01*
X5Y1233D02*
X12Y1233D01*
X2731Y1233D02*
X2738Y1233D01*
X5Y1232D02*
X12Y1232D01*
X2731Y1232D02*
X2738Y1232D01*
X5Y1231D02*
X12Y1231D01*
X2731Y1231D02*
X2738Y1231D01*
X5Y1230D02*
X12Y1230D01*
X2731Y1230D02*
X2738Y1230D01*
X5Y1229D02*
X12Y1229D01*
X2731Y1229D02*
X2738Y1229D01*
X5Y1228D02*
X12Y1228D01*
X2731Y1228D02*
X2738Y1228D01*
X5Y1227D02*
X12Y1227D01*
X2731Y1227D02*
X2738Y1227D01*
X4Y1226D02*
X12Y1226D01*
X2731Y1226D02*
X2738Y1226D01*
X4Y1225D02*
X11Y1225D01*
X2732Y1225D02*
X2739Y1225D01*
X4Y1224D02*
X11Y1224D01*
X2732Y1224D02*
X2739Y1224D01*
X4Y1223D02*
X11Y1223D01*
X2732Y1223D02*
X2739Y1223D01*
X4Y1222D02*
X11Y1222D01*
X2732Y1222D02*
X2739Y1222D01*
X4Y1221D02*
X11Y1221D01*
X2732Y1221D02*
X2739Y1221D01*
X4Y1220D02*
X11Y1220D01*
X2732Y1220D02*
X2739Y1220D01*
X4Y1219D02*
X11Y1219D01*
X2732Y1219D02*
X2739Y1219D01*
X4Y1218D02*
X11Y1218D01*
X2732Y1218D02*
X2739Y1218D01*
X4Y1217D02*
X11Y1217D01*
X2732Y1217D02*
X2739Y1217D01*
X4Y1216D02*
X11Y1216D01*
X2732Y1216D02*
X2739Y1216D01*
X3Y1215D02*
X11Y1215D01*
X2732Y1215D02*
X2740Y1215D01*
X3Y1214D02*
X10Y1214D01*
X2733Y1214D02*
X2740Y1214D01*
X3Y1213D02*
X10Y1213D01*
X2733Y1213D02*
X2740Y1213D01*
X3Y1212D02*
X10Y1212D01*
X2733Y1212D02*
X2740Y1212D01*
X3Y1211D02*
X10Y1211D01*
X2733Y1211D02*
X2740Y1211D01*
X3Y1210D02*
X10Y1210D01*
X2733Y1210D02*
X2740Y1210D01*
X3Y1209D02*
X10Y1209D01*
X2733Y1209D02*
X2740Y1209D01*
X3Y1208D02*
X10Y1208D01*
X2733Y1208D02*
X2740Y1208D01*
X3Y1207D02*
X10Y1207D01*
X2733Y1207D02*
X2740Y1207D01*
X3Y1206D02*
X10Y1206D01*
X2733Y1206D02*
X2740Y1206D01*
X3Y1205D02*
X10Y1205D01*
X2733Y1205D02*
X2740Y1205D01*
X3Y1204D02*
X10Y1204D01*
X2733Y1204D02*
X2740Y1204D01*
X3Y1203D02*
X10Y1203D01*
X2733Y1203D02*
X2740Y1203D01*
X2Y1202D02*
X9Y1202D01*
X2734Y1202D02*
X2741Y1202D01*
X2Y1201D02*
X9Y1201D01*
X2734Y1201D02*
X2741Y1201D01*
X2Y1200D02*
X9Y1200D01*
X2734Y1200D02*
X2741Y1200D01*
X2Y1199D02*
X9Y1199D01*
X2734Y1199D02*
X2741Y1199D01*
X2Y1198D02*
X9Y1198D01*
X2734Y1198D02*
X2741Y1198D01*
X2Y1197D02*
X9Y1197D01*
X2734Y1197D02*
X2741Y1197D01*
X2Y1196D02*
X9Y1196D01*
X2734Y1196D02*
X2741Y1196D01*
X2Y1195D02*
X9Y1195D01*
X2734Y1195D02*
X2741Y1195D01*
X2Y1194D02*
X9Y1194D01*
X2734Y1194D02*
X2741Y1194D01*
X2Y1193D02*
X9Y1193D01*
X2734Y1193D02*
X2741Y1193D01*
X2Y1192D02*
X9Y1192D01*
X2734Y1192D02*
X2741Y1192D01*
X2Y1191D02*
X9Y1191D01*
X2734Y1191D02*
X2741Y1191D01*
X2Y1190D02*
X9Y1190D01*
X2734Y1190D02*
X2741Y1190D01*
X2Y1189D02*
X9Y1189D01*
X2734Y1189D02*
X2741Y1189D01*
X2Y1188D02*
X9Y1188D01*
X2734Y1188D02*
X2741Y1188D01*
X2Y1187D02*
X9Y1187D01*
X2734Y1187D02*
X2741Y1187D01*
X1Y1186D02*
X8Y1186D01*
X2735Y1186D02*
X2742Y1186D01*
X1Y1185D02*
X8Y1185D01*
X2735Y1185D02*
X2742Y1185D01*
X1Y1184D02*
X8Y1184D01*
X2735Y1184D02*
X2742Y1184D01*
X1Y1183D02*
X8Y1183D01*
X2735Y1183D02*
X2742Y1183D01*
X1Y1182D02*
X8Y1182D01*
X2735Y1182D02*
X2742Y1182D01*
X1Y1181D02*
X8Y1181D01*
X2735Y1181D02*
X2742Y1181D01*
X1Y1180D02*
X8Y1180D01*
X2735Y1180D02*
X2742Y1180D01*
X1Y1179D02*
X8Y1179D01*
X2735Y1179D02*
X2742Y1179D01*
X1Y1178D02*
X8Y1178D01*
X2735Y1178D02*
X2742Y1178D01*
X1Y1177D02*
X8Y1177D01*
X2735Y1177D02*
X2742Y1177D01*
X1Y1176D02*
X8Y1176D01*
X2735Y1176D02*
X2742Y1176D01*
X1Y1175D02*
X8Y1175D01*
X2735Y1175D02*
X2742Y1175D01*
X1Y1174D02*
X8Y1174D01*
X2735Y1174D02*
X2742Y1174D01*
X1Y1173D02*
X8Y1173D01*
X2735Y1173D02*
X2742Y1173D01*
X1Y1172D02*
X8Y1172D01*
X2735Y1172D02*
X2742Y1172D01*
X1Y1171D02*
X8Y1171D01*
X2735Y1171D02*
X2742Y1171D01*
X1Y1170D02*
X8Y1170D01*
X2735Y1170D02*
X2742Y1170D01*
X1Y1169D02*
X8Y1169D01*
X2735Y1169D02*
X2742Y1169D01*
X1Y1168D02*
X8Y1168D01*
X2735Y1168D02*
X2742Y1168D01*
X1Y1167D02*
X8Y1167D01*
X2735Y1167D02*
X2742Y1167D01*
X1Y1166D02*
X8Y1166D01*
X2735Y1166D02*
X2742Y1166D01*
X1Y1165D02*
X8Y1165D01*
X2735Y1165D02*
X2742Y1165D01*
X0Y1164D02*
X7Y1164D01*
X2736Y1164D02*
X2743Y1164D01*
X0Y1163D02*
X7Y1163D01*
X2736Y1163D02*
X2743Y1163D01*
X0Y1162D02*
X7Y1162D01*
X2736Y1162D02*
X2743Y1162D01*
X0Y1161D02*
X7Y1161D01*
X2736Y1161D02*
X2743Y1161D01*
X0Y1160D02*
X7Y1160D01*
X2736Y1160D02*
X2743Y1160D01*
X0Y1159D02*
X7Y1159D01*
X2736Y1159D02*
X2743Y1159D01*
X0Y1158D02*
X7Y1158D01*
X2736Y1158D02*
X2743Y1158D01*
X0Y1157D02*
X7Y1157D01*
X2736Y1157D02*
X2743Y1157D01*
X0Y1156D02*
X7Y1156D01*
X2736Y1156D02*
X2743Y1156D01*
X0Y1155D02*
X7Y1155D01*
X2736Y1155D02*
X2743Y1155D01*
X0Y1154D02*
X7Y1154D01*
X2736Y1154D02*
X2743Y1154D01*
X0Y1153D02*
X7Y1153D01*
X2736Y1153D02*
X2743Y1153D01*
X0Y1152D02*
X7Y1152D01*
X2736Y1152D02*
X2743Y1152D01*
X0Y1151D02*
X7Y1151D01*
X2736Y1151D02*
X2743Y1151D01*
X0Y1150D02*
X7Y1150D01*
X2736Y1150D02*
X2743Y1150D01*
X0Y1149D02*
X7Y1149D01*
X2736Y1149D02*
X2743Y1149D01*
X0Y1148D02*
X7Y1148D01*
X2736Y1148D02*
X2743Y1148D01*
X0Y1147D02*
X7Y1147D01*
X2736Y1147D02*
X2743Y1147D01*
X0Y1146D02*
X7Y1146D01*
X2736Y1146D02*
X2743Y1146D01*
X0Y1145D02*
X7Y1145D01*
X2736Y1145D02*
X2743Y1145D01*
X0Y1144D02*
X7Y1144D01*
X2736Y1144D02*
X2743Y1144D01*
X0Y1143D02*
X7Y1143D01*
X2736Y1143D02*
X2743Y1143D01*
X0Y1142D02*
X7Y1142D01*
X2736Y1142D02*
X2743Y1142D01*
X0Y1141D02*
X7Y1141D01*
X2736Y1141D02*
X2743Y1141D01*
X0Y1140D02*
X7Y1140D01*
X2736Y1140D02*
X2743Y1140D01*
X0Y1139D02*
X7Y1139D01*
X2736Y1139D02*
X2743Y1139D01*
X0Y1138D02*
X7Y1138D01*
X2736Y1138D02*
X2743Y1138D01*
X0Y1137D02*
X7Y1137D01*
X2736Y1137D02*
X2743Y1137D01*
X0Y1136D02*
X7Y1136D01*
X2736Y1136D02*
X2743Y1136D01*
X0Y1135D02*
X7Y1135D01*
X2736Y1135D02*
X2743Y1135D01*
X0Y1134D02*
X7Y1134D01*
X2736Y1134D02*
X2743Y1134D01*
X0Y1133D02*
X7Y1133D01*
X2736Y1133D02*
X2743Y1133D01*
X0Y1132D02*
X7Y1132D01*
X2736Y1132D02*
X2743Y1132D01*
X0Y1131D02*
X7Y1131D01*
X2736Y1131D02*
X2743Y1131D01*
X0Y1130D02*
X7Y1130D01*
X2736Y1130D02*
X2743Y1130D01*
X0Y1129D02*
X7Y1129D01*
X2736Y1129D02*
X2743Y1129D01*
X0Y1128D02*
X7Y1128D01*
X2736Y1128D02*
X2743Y1128D01*
X0Y1127D02*
X7Y1127D01*
X2736Y1127D02*
X2743Y1127D01*
X0Y1126D02*
X7Y1126D01*
X2736Y1126D02*
X2743Y1126D01*
X0Y1125D02*
X7Y1125D01*
X2736Y1125D02*
X2743Y1125D01*
X0Y1124D02*
X7Y1124D01*
X2736Y1124D02*
X2743Y1124D01*
X0Y1123D02*
X7Y1123D01*
X2736Y1123D02*
X2743Y1123D01*
X0Y1122D02*
X7Y1122D01*
X2736Y1122D02*
X2743Y1122D01*
X0Y1121D02*
X7Y1121D01*
X2736Y1121D02*
X2743Y1121D01*
X0Y1120D02*
X7Y1120D01*
X2736Y1120D02*
X2743Y1120D01*
X0Y1119D02*
X7Y1119D01*
X2736Y1119D02*
X2743Y1119D01*
X0Y1118D02*
X7Y1118D01*
X2736Y1118D02*
X2743Y1118D01*
X0Y1117D02*
X7Y1117D01*
X2736Y1117D02*
X2743Y1117D01*
X0Y1116D02*
X7Y1116D01*
X2736Y1116D02*
X2743Y1116D01*
X0Y1115D02*
X7Y1115D01*
X2736Y1115D02*
X2743Y1115D01*
X0Y1114D02*
X7Y1114D01*
X2736Y1114D02*
X2743Y1114D01*
X0Y1113D02*
X7Y1113D01*
X2736Y1113D02*
X2743Y1113D01*
X0Y1112D02*
X7Y1112D01*
X2736Y1112D02*
X2743Y1112D01*
X0Y1111D02*
X7Y1111D01*
X2736Y1111D02*
X2743Y1111D01*
X0Y1110D02*
X7Y1110D01*
X2736Y1110D02*
X2743Y1110D01*
X0Y1109D02*
X7Y1109D01*
X2736Y1109D02*
X2743Y1109D01*
X0Y1108D02*
X7Y1108D01*
X2736Y1108D02*
X2743Y1108D01*
X0Y1107D02*
X7Y1107D01*
X2736Y1107D02*
X2743Y1107D01*
X0Y1106D02*
X7Y1106D01*
X2736Y1106D02*
X2743Y1106D01*
X0Y1105D02*
X7Y1105D01*
X2736Y1105D02*
X2743Y1105D01*
X0Y1104D02*
X7Y1104D01*
X2736Y1104D02*
X2743Y1104D01*
X1Y1103D02*
X8Y1103D01*
X2735Y1103D02*
X2742Y1103D01*
X1Y1102D02*
X8Y1102D01*
X2735Y1102D02*
X2742Y1102D01*
X1Y1101D02*
X8Y1101D01*
X2735Y1101D02*
X2742Y1101D01*
X1Y1100D02*
X8Y1100D01*
X2735Y1100D02*
X2742Y1100D01*
X1Y1099D02*
X8Y1099D01*
X2735Y1099D02*
X2742Y1099D01*
X1Y1098D02*
X8Y1098D01*
X2735Y1098D02*
X2742Y1098D01*
X1Y1097D02*
X8Y1097D01*
X2735Y1097D02*
X2742Y1097D01*
X1Y1096D02*
X8Y1096D01*
X2735Y1096D02*
X2742Y1096D01*
X1Y1095D02*
X8Y1095D01*
X2735Y1095D02*
X2742Y1095D01*
X1Y1094D02*
X8Y1094D01*
X2735Y1094D02*
X2742Y1094D01*
X1Y1093D02*
X8Y1093D01*
X2735Y1093D02*
X2742Y1093D01*
X1Y1092D02*
X8Y1092D01*
X2735Y1092D02*
X2742Y1092D01*
X1Y1091D02*
X8Y1091D01*
X2735Y1091D02*
X2742Y1091D01*
X1Y1090D02*
X8Y1090D01*
X2735Y1090D02*
X2742Y1090D01*
X1Y1089D02*
X8Y1089D01*
X2735Y1089D02*
X2742Y1089D01*
X1Y1088D02*
X8Y1088D01*
X2735Y1088D02*
X2742Y1088D01*
X1Y1087D02*
X8Y1087D01*
X2735Y1087D02*
X2742Y1087D01*
X1Y1086D02*
X8Y1086D01*
X2735Y1086D02*
X2742Y1086D01*
X1Y1085D02*
X8Y1085D01*
X2735Y1085D02*
X2742Y1085D01*
X1Y1084D02*
X8Y1084D01*
X2735Y1084D02*
X2742Y1084D01*
X1Y1083D02*
X8Y1083D01*
X2735Y1083D02*
X2742Y1083D01*
X1Y1082D02*
X8Y1082D01*
X2735Y1082D02*
X2742Y1082D01*
X2Y1081D02*
X9Y1081D01*
X2734Y1081D02*
X2741Y1081D01*
X2Y1080D02*
X9Y1080D01*
X2734Y1080D02*
X2741Y1080D01*
X2Y1079D02*
X9Y1079D01*
X2734Y1079D02*
X2741Y1079D01*
X2Y1078D02*
X9Y1078D01*
X2734Y1078D02*
X2741Y1078D01*
X2Y1077D02*
X9Y1077D01*
X2734Y1077D02*
X2741Y1077D01*
X2Y1076D02*
X9Y1076D01*
X2734Y1076D02*
X2741Y1076D01*
X2Y1075D02*
X9Y1075D01*
X2734Y1075D02*
X2741Y1075D01*
X2Y1074D02*
X9Y1074D01*
X2734Y1074D02*
X2741Y1074D01*
X2Y1073D02*
X9Y1073D01*
X2734Y1073D02*
X2741Y1073D01*
X2Y1072D02*
X9Y1072D01*
X2734Y1072D02*
X2741Y1072D01*
X2Y1071D02*
X9Y1071D01*
X2734Y1071D02*
X2741Y1071D01*
X2Y1070D02*
X9Y1070D01*
X2734Y1070D02*
X2741Y1070D01*
X2Y1069D02*
X9Y1069D01*
X2734Y1069D02*
X2741Y1069D01*
X2Y1068D02*
X9Y1068D01*
X2734Y1068D02*
X2741Y1068D01*
X2Y1067D02*
X9Y1067D01*
X2734Y1067D02*
X2741Y1067D01*
X2Y1066D02*
X9Y1066D01*
X2734Y1066D02*
X2741Y1066D01*
X3Y1065D02*
X10Y1065D01*
X2733Y1065D02*
X2740Y1065D01*
X3Y1064D02*
X10Y1064D01*
X2733Y1064D02*
X2740Y1064D01*
X3Y1063D02*
X10Y1063D01*
X2733Y1063D02*
X2740Y1063D01*
X3Y1062D02*
X10Y1062D01*
X2733Y1062D02*
X2740Y1062D01*
X3Y1061D02*
X10Y1061D01*
X2733Y1061D02*
X2740Y1061D01*
X3Y1060D02*
X10Y1060D01*
X2733Y1060D02*
X2740Y1060D01*
X3Y1059D02*
X10Y1059D01*
X2733Y1059D02*
X2740Y1059D01*
X3Y1058D02*
X10Y1058D01*
X2733Y1058D02*
X2740Y1058D01*
X3Y1057D02*
X10Y1057D01*
X2733Y1057D02*
X2740Y1057D01*
X3Y1056D02*
X10Y1056D01*
X2733Y1056D02*
X2740Y1056D01*
X3Y1055D02*
X10Y1055D01*
X2733Y1055D02*
X2740Y1055D01*
X3Y1054D02*
X10Y1054D01*
X2733Y1054D02*
X2740Y1054D01*
X3Y1053D02*
X11Y1053D01*
X2732Y1053D02*
X2740Y1053D01*
X4Y1052D02*
X11Y1052D01*
X2732Y1052D02*
X2739Y1052D01*
X4Y1051D02*
X11Y1051D01*
X2732Y1051D02*
X2739Y1051D01*
X4Y1050D02*
X11Y1050D01*
X2732Y1050D02*
X2739Y1050D01*
X4Y1049D02*
X11Y1049D01*
X2732Y1049D02*
X2739Y1049D01*
X4Y1048D02*
X11Y1048D01*
X2732Y1048D02*
X2739Y1048D01*
X4Y1047D02*
X11Y1047D01*
X2732Y1047D02*
X2739Y1047D01*
X4Y1046D02*
X11Y1046D01*
X2732Y1046D02*
X2739Y1046D01*
X4Y1045D02*
X11Y1045D01*
X2732Y1045D02*
X2739Y1045D01*
X4Y1044D02*
X11Y1044D01*
X2732Y1044D02*
X2739Y1044D01*
X4Y1043D02*
X11Y1043D01*
X2732Y1043D02*
X2739Y1043D01*
X4Y1042D02*
X12Y1042D01*
X2731Y1042D02*
X2738Y1042D01*
X5Y1041D02*
X12Y1041D01*
X2731Y1041D02*
X2738Y1041D01*
X5Y1040D02*
X12Y1040D01*
X2731Y1040D02*
X2738Y1040D01*
X5Y1039D02*
X12Y1039D01*
X2731Y1039D02*
X2738Y1039D01*
X5Y1038D02*
X12Y1038D01*
X2731Y1038D02*
X2738Y1038D01*
X5Y1037D02*
X12Y1037D01*
X2731Y1037D02*
X2738Y1037D01*
X5Y1036D02*
X12Y1036D01*
X2731Y1036D02*
X2738Y1036D01*
X5Y1035D02*
X12Y1035D01*
X2731Y1035D02*
X2738Y1035D01*
X5Y1034D02*
X12Y1034D01*
X2731Y1034D02*
X2738Y1034D01*
X5Y1033D02*
X12Y1033D01*
X2731Y1033D02*
X2738Y1033D01*
X6Y1032D02*
X13Y1032D01*
X2730Y1032D02*
X2737Y1032D01*
X6Y1031D02*
X13Y1031D01*
X2730Y1031D02*
X2737Y1031D01*
X6Y1030D02*
X13Y1030D01*
X2730Y1030D02*
X2737Y1030D01*
X6Y1029D02*
X13Y1029D01*
X2730Y1029D02*
X2737Y1029D01*
X6Y1028D02*
X13Y1028D01*
X2730Y1028D02*
X2737Y1028D01*
X6Y1027D02*
X13Y1027D01*
X2730Y1027D02*
X2737Y1027D01*
X6Y1026D02*
X13Y1026D01*
X2730Y1026D02*
X2737Y1026D01*
X6Y1025D02*
X13Y1025D01*
X2730Y1025D02*
X2737Y1025D01*
X6Y1024D02*
X13Y1024D01*
X2730Y1024D02*
X2737Y1024D01*
X7Y1023D02*
X14Y1023D01*
X2729Y1023D02*
X2736Y1023D01*
X7Y1022D02*
X14Y1022D01*
X2729Y1022D02*
X2736Y1022D01*
X7Y1021D02*
X14Y1021D01*
X2729Y1021D02*
X2736Y1021D01*
X7Y1020D02*
X14Y1020D01*
X2729Y1020D02*
X2736Y1020D01*
X7Y1019D02*
X14Y1019D01*
X2729Y1019D02*
X2736Y1019D01*
X7Y1018D02*
X14Y1018D01*
X2729Y1018D02*
X2736Y1018D01*
X7Y1017D02*
X14Y1017D01*
X2729Y1017D02*
X2736Y1017D01*
X7Y1016D02*
X14Y1016D01*
X2729Y1016D02*
X2736Y1016D01*
X8Y1015D02*
X15Y1015D01*
X2728Y1015D02*
X2735Y1015D01*
X8Y1014D02*
X15Y1014D01*
X2728Y1014D02*
X2735Y1014D01*
X8Y1013D02*
X15Y1013D01*
X2728Y1013D02*
X2735Y1013D01*
X8Y1012D02*
X15Y1012D01*
X2728Y1012D02*
X2735Y1012D01*
X8Y1011D02*
X15Y1011D01*
X2728Y1011D02*
X2735Y1011D01*
X8Y1010D02*
X15Y1010D01*
X2728Y1010D02*
X2735Y1010D01*
X8Y1009D02*
X15Y1009D01*
X2728Y1009D02*
X2735Y1009D01*
X8Y1008D02*
X15Y1008D01*
X2728Y1008D02*
X2735Y1008D01*
X9Y1007D02*
X16Y1007D01*
X2727Y1007D02*
X2734Y1007D01*
X9Y1006D02*
X16Y1006D01*
X2727Y1006D02*
X2734Y1006D01*
X9Y1005D02*
X16Y1005D01*
X2727Y1005D02*
X2734Y1005D01*
X9Y1004D02*
X16Y1004D01*
X2727Y1004D02*
X2734Y1004D01*
X9Y1003D02*
X16Y1003D01*
X2727Y1003D02*
X2734Y1003D01*
X9Y1002D02*
X16Y1002D01*
X2727Y1002D02*
X2734Y1002D01*
X9Y1001D02*
X16Y1001D01*
X2727Y1001D02*
X2734Y1001D01*
X10Y1000D02*
X17Y1000D01*
X2726Y1000D02*
X2733Y1000D01*
X10Y999D02*
X17Y999D01*
X2726Y999D02*
X2733Y999D01*
X10Y998D02*
X17Y998D01*
X2726Y998D02*
X2733Y998D01*
X10Y997D02*
X17Y997D01*
X2726Y997D02*
X2733Y997D01*
X10Y996D02*
X17Y996D01*
X2726Y996D02*
X2733Y996D01*
X10Y995D02*
X17Y995D01*
X2726Y995D02*
X2733Y995D01*
X10Y994D02*
X17Y994D01*
X2726Y994D02*
X2733Y994D01*
X11Y993D02*
X18Y993D01*
X2725Y993D02*
X2732Y993D01*
X11Y992D02*
X18Y992D01*
X2725Y992D02*
X2732Y992D01*
X11Y991D02*
X18Y991D01*
X2725Y991D02*
X2732Y991D01*
X11Y990D02*
X18Y990D01*
X2725Y990D02*
X2732Y990D01*
X11Y989D02*
X18Y989D01*
X2725Y989D02*
X2732Y989D01*
X11Y988D02*
X18Y988D01*
X2725Y988D02*
X2732Y988D01*
X11Y987D02*
X19Y987D01*
X2724Y987D02*
X2732Y987D01*
X12Y986D02*
X19Y986D01*
X2724Y986D02*
X2731Y986D01*
X12Y985D02*
X19Y985D01*
X2724Y985D02*
X2731Y985D01*
X12Y984D02*
X19Y984D01*
X2724Y984D02*
X2731Y984D01*
X12Y983D02*
X19Y983D01*
X2724Y983D02*
X2731Y983D01*
X12Y982D02*
X19Y982D01*
X2724Y982D02*
X2731Y982D01*
X12Y981D02*
X20Y981D01*
X2723Y981D02*
X2731Y981D01*
X13Y980D02*
X20Y980D01*
X2723Y980D02*
X2730Y980D01*
X13Y979D02*
X20Y979D01*
X2723Y979D02*
X2730Y979D01*
X13Y978D02*
X20Y978D01*
X2723Y978D02*
X2730Y978D01*
X13Y977D02*
X20Y977D01*
X2723Y977D02*
X2730Y977D01*
X13Y976D02*
X20Y976D01*
X2723Y976D02*
X2730Y976D01*
X13Y975D02*
X21Y975D01*
X2722Y975D02*
X2730Y975D01*
X14Y974D02*
X21Y974D01*
X2722Y974D02*
X2729Y974D01*
X14Y973D02*
X21Y973D01*
X2722Y973D02*
X2729Y973D01*
X14Y972D02*
X21Y972D01*
X2722Y972D02*
X2729Y972D01*
X14Y971D02*
X21Y971D01*
X2722Y971D02*
X2729Y971D01*
X14Y970D02*
X21Y970D01*
X2722Y970D02*
X2729Y970D01*
X15Y969D02*
X22Y969D01*
X2721Y969D02*
X2728Y969D01*
X15Y968D02*
X22Y968D01*
X2721Y968D02*
X2728Y968D01*
X15Y967D02*
X22Y967D01*
X2721Y967D02*
X2728Y967D01*
X15Y966D02*
X22Y966D01*
X2721Y966D02*
X2728Y966D01*
X15Y965D02*
X22Y965D01*
X2721Y965D02*
X2728Y965D01*
X15Y964D02*
X22Y964D01*
X2721Y964D02*
X2728Y964D01*
X16Y963D02*
X23Y963D01*
X2720Y963D02*
X2727Y963D01*
X16Y962D02*
X23Y962D01*
X2720Y962D02*
X2727Y962D01*
X16Y961D02*
X23Y961D01*
X2720Y961D02*
X2727Y961D01*
X16Y960D02*
X23Y960D01*
X2720Y960D02*
X2727Y960D01*
X16Y959D02*
X23Y959D01*
X2720Y959D02*
X2727Y959D01*
X17Y958D02*
X24Y958D01*
X2719Y958D02*
X2726Y958D01*
X17Y957D02*
X24Y957D01*
X2719Y957D02*
X2726Y957D01*
X17Y956D02*
X24Y956D01*
X2719Y956D02*
X2726Y956D01*
X17Y955D02*
X24Y955D01*
X2719Y955D02*
X2726Y955D01*
X17Y954D02*
X24Y954D01*
X2719Y954D02*
X2726Y954D01*
X18Y953D02*
X25Y953D01*
X2718Y953D02*
X2725Y953D01*
X18Y952D02*
X25Y952D01*
X2718Y952D02*
X2725Y952D01*
X18Y951D02*
X25Y951D01*
X2718Y951D02*
X2725Y951D01*
X18Y950D02*
X25Y950D01*
X2718Y950D02*
X2725Y950D01*
X18Y949D02*
X25Y949D01*
X2718Y949D02*
X2725Y949D01*
X19Y948D02*
X26Y948D01*
X2717Y948D02*
X2724Y948D01*
X19Y947D02*
X26Y947D01*
X2717Y947D02*
X2724Y947D01*
X19Y946D02*
X26Y946D01*
X2717Y946D02*
X2724Y946D01*
X19Y945D02*
X26Y945D01*
X2717Y945D02*
X2724Y945D01*
X19Y944D02*
X26Y944D01*
X2717Y944D02*
X2724Y944D01*
X20Y943D02*
X27Y943D01*
X2716Y943D02*
X2723Y943D01*
X20Y942D02*
X27Y942D01*
X2716Y942D02*
X2723Y942D01*
X20Y941D02*
X27Y941D01*
X2716Y941D02*
X2723Y941D01*
X20Y940D02*
X27Y940D01*
X2716Y940D02*
X2723Y940D01*
X20Y939D02*
X27Y939D01*
X2716Y939D02*
X2723Y939D01*
X21Y938D02*
X28Y938D01*
X2715Y938D02*
X2722Y938D01*
X21Y937D02*
X28Y937D01*
X2715Y937D02*
X2722Y937D01*
X21Y936D02*
X28Y936D01*
X2715Y936D02*
X2722Y936D01*
X21Y935D02*
X28Y935D01*
X2715Y935D02*
X2722Y935D01*
X21Y934D02*
X28Y934D01*
X2715Y934D02*
X2722Y934D01*
X22Y933D02*
X29Y933D01*
X2714Y933D02*
X2721Y933D01*
X22Y932D02*
X29Y932D01*
X2714Y932D02*
X2721Y932D01*
X22Y931D02*
X29Y931D01*
X2714Y931D02*
X2721Y931D01*
X22Y930D02*
X29Y930D01*
X2714Y930D02*
X2721Y930D01*
X23Y929D02*
X30Y929D01*
X2713Y929D02*
X2720Y929D01*
X23Y928D02*
X30Y928D01*
X2713Y928D02*
X2720Y928D01*
X23Y927D02*
X30Y927D01*
X2713Y927D02*
X2720Y927D01*
X23Y926D02*
X30Y926D01*
X2713Y926D02*
X2720Y926D01*
X23Y925D02*
X31Y925D01*
X2712Y925D02*
X2720Y925D01*
X24Y924D02*
X31Y924D01*
X2712Y924D02*
X2719Y924D01*
X24Y923D02*
X31Y923D01*
X2712Y923D02*
X2719Y923D01*
X24Y922D02*
X31Y922D01*
X2712Y922D02*
X2719Y922D01*
X24Y921D02*
X31Y921D01*
X2712Y921D02*
X2719Y921D01*
X25Y920D02*
X32Y920D01*
X2711Y920D02*
X2718Y920D01*
X25Y919D02*
X32Y919D01*
X2711Y919D02*
X2718Y919D01*
X25Y918D02*
X32Y918D01*
X2711Y918D02*
X2718Y918D01*
X25Y917D02*
X32Y917D01*
X2711Y917D02*
X2718Y917D01*
X26Y916D02*
X33Y916D01*
X2710Y916D02*
X2717Y916D01*
X26Y915D02*
X33Y915D01*
X2710Y915D02*
X2717Y915D01*
X26Y914D02*
X33Y914D01*
X2710Y914D02*
X2717Y914D01*
X26Y913D02*
X33Y913D01*
X2710Y913D02*
X2717Y913D01*
X26Y912D02*
X34Y912D01*
X2709Y912D02*
X2717Y912D01*
X27Y911D02*
X34Y911D01*
X2709Y911D02*
X2716Y911D01*
X27Y910D02*
X34Y910D01*
X2709Y910D02*
X2716Y910D01*
X27Y909D02*
X34Y909D01*
X2709Y909D02*
X2716Y909D01*
X27Y908D02*
X35Y908D01*
X2708Y908D02*
X2716Y908D01*
X28Y907D02*
X35Y907D01*
X2708Y907D02*
X2715Y907D01*
X28Y906D02*
X35Y906D01*
X2708Y906D02*
X2715Y906D01*
X28Y905D02*
X35Y905D01*
X2708Y905D02*
X2715Y905D01*
X28Y904D02*
X36Y904D01*
X2707Y904D02*
X2715Y904D01*
X29Y903D02*
X36Y903D01*
X2707Y903D02*
X2714Y903D01*
X29Y902D02*
X36Y902D01*
X2707Y902D02*
X2714Y902D01*
X29Y901D02*
X36Y901D01*
X2707Y901D02*
X2714Y901D01*
X29Y900D02*
X37Y900D01*
X2706Y900D02*
X2714Y900D01*
X30Y899D02*
X37Y899D01*
X2706Y899D02*
X2713Y899D01*
X30Y898D02*
X37Y898D01*
X2706Y898D02*
X2713Y898D01*
X30Y897D02*
X37Y897D01*
X2706Y897D02*
X2713Y897D01*
X30Y896D02*
X38Y896D01*
X2705Y896D02*
X2712Y896D01*
X31Y895D02*
X38Y895D01*
X2705Y895D02*
X2712Y895D01*
X31Y894D02*
X38Y894D01*
X2705Y894D02*
X2712Y894D01*
X31Y893D02*
X38Y893D01*
X2705Y893D02*
X2712Y893D01*
X32Y892D02*
X39Y892D01*
X2704Y892D02*
X2711Y892D01*
X32Y891D02*
X39Y891D01*
X2704Y891D02*
X2711Y891D01*
X32Y890D02*
X39Y890D01*
X2704Y890D02*
X2711Y890D01*
X32Y889D02*
X40Y889D01*
X2703Y889D02*
X2711Y889D01*
X33Y888D02*
X40Y888D01*
X2703Y888D02*
X2710Y888D01*
X33Y887D02*
X40Y887D01*
X2703Y887D02*
X2710Y887D01*
X33Y886D02*
X40Y886D01*
X2703Y886D02*
X2710Y886D01*
X33Y885D02*
X41Y885D01*
X2702Y885D02*
X2710Y885D01*
X34Y884D02*
X41Y884D01*
X2702Y884D02*
X2709Y884D01*
X34Y883D02*
X41Y883D01*
X2702Y883D02*
X2709Y883D01*
X34Y882D02*
X41Y882D01*
X2702Y882D02*
X2709Y882D01*
X34Y881D02*
X42Y881D01*
X2701Y881D02*
X2709Y881D01*
X35Y880D02*
X42Y880D01*
X2701Y880D02*
X2708Y880D01*
X35Y879D02*
X42Y879D01*
X2701Y879D02*
X2708Y879D01*
X35Y878D02*
X42Y878D01*
X2701Y878D02*
X2708Y878D01*
X36Y877D02*
X43Y877D01*
X2700Y877D02*
X2707Y877D01*
X36Y876D02*
X43Y876D01*
X2700Y876D02*
X2707Y876D01*
X36Y875D02*
X43Y875D01*
X2700Y875D02*
X2707Y875D01*
X36Y874D02*
X44Y874D01*
X2699Y874D02*
X2707Y874D01*
X37Y873D02*
X44Y873D01*
X2699Y873D02*
X2706Y873D01*
X37Y872D02*
X44Y872D01*
X2699Y872D02*
X2706Y872D01*
X37Y871D02*
X45Y871D01*
X2698Y871D02*
X2706Y871D01*
X38Y870D02*
X45Y870D01*
X2698Y870D02*
X2705Y870D01*
X38Y869D02*
X45Y869D01*
X2698Y869D02*
X2705Y869D01*
X38Y868D02*
X45Y868D01*
X2698Y868D02*
X2705Y868D01*
X39Y867D02*
X46Y867D01*
X2697Y867D02*
X2704Y867D01*
X39Y866D02*
X46Y866D01*
X2697Y866D02*
X2704Y866D01*
X39Y865D02*
X46Y865D01*
X2697Y865D02*
X2704Y865D01*
X39Y864D02*
X47Y864D01*
X2696Y864D02*
X2704Y864D01*
X40Y863D02*
X47Y863D01*
X2696Y863D02*
X2703Y863D01*
X40Y862D02*
X47Y862D01*
X2696Y862D02*
X2703Y862D01*
X40Y861D02*
X47Y861D01*
X2696Y861D02*
X2703Y861D01*
X41Y860D02*
X48Y860D01*
X2695Y860D02*
X2702Y860D01*
X41Y859D02*
X48Y859D01*
X2695Y859D02*
X2702Y859D01*
X41Y858D02*
X48Y858D01*
X2695Y858D02*
X2702Y858D01*
X41Y857D02*
X49Y857D01*
X2694Y857D02*
X2702Y857D01*
X42Y856D02*
X49Y856D01*
X2694Y856D02*
X2701Y856D01*
X42Y855D02*
X49Y855D01*
X2694Y855D02*
X2701Y855D01*
X42Y854D02*
X50Y854D01*
X2693Y854D02*
X2701Y854D01*
X43Y853D02*
X50Y853D01*
X2693Y853D02*
X2700Y853D01*
X43Y852D02*
X50Y852D01*
X2693Y852D02*
X2700Y852D01*
X43Y851D02*
X51Y851D01*
X2692Y851D02*
X2700Y851D01*
X44Y850D02*
X51Y850D01*
X2692Y850D02*
X2699Y850D01*
X44Y849D02*
X51Y849D01*
X2692Y849D02*
X2699Y849D01*
X44Y848D02*
X51Y848D01*
X2692Y848D02*
X2699Y848D01*
X45Y847D02*
X52Y847D01*
X2691Y847D02*
X2698Y847D01*
X45Y846D02*
X52Y846D01*
X2691Y846D02*
X2698Y846D01*
X45Y845D02*
X52Y845D01*
X2691Y845D02*
X2698Y845D01*
X46Y844D02*
X53Y844D01*
X2690Y844D02*
X2697Y844D01*
X46Y843D02*
X53Y843D01*
X2690Y843D02*
X2697Y843D01*
X46Y842D02*
X53Y842D01*
X2690Y842D02*
X2697Y842D01*
X47Y841D02*
X54Y841D01*
X2689Y841D02*
X2696Y841D01*
X47Y840D02*
X54Y840D01*
X2689Y840D02*
X2696Y840D01*
X47Y839D02*
X54Y839D01*
X2689Y839D02*
X2696Y839D01*
X48Y838D02*
X55Y838D01*
X2688Y838D02*
X2695Y838D01*
X48Y837D02*
X55Y837D01*
X2688Y837D02*
X2695Y837D01*
X48Y836D02*
X55Y836D01*
X2688Y836D02*
X2695Y836D01*
X48Y835D02*
X56Y835D01*
X2687Y835D02*
X2694Y835D01*
X49Y834D02*
X56Y834D01*
X2687Y834D02*
X2694Y834D01*
X49Y833D02*
X56Y833D01*
X2687Y833D02*
X2694Y833D01*
X49Y832D02*
X57Y832D01*
X2686Y832D02*
X2694Y832D01*
X50Y831D02*
X57Y831D01*
X2686Y831D02*
X2693Y831D01*
X50Y830D02*
X57Y830D01*
X2686Y830D02*
X2693Y830D01*
X50Y829D02*
X58Y829D01*
X2685Y829D02*
X2693Y829D01*
X51Y828D02*
X58Y828D01*
X2685Y828D02*
X2692Y828D01*
X51Y827D02*
X58Y827D01*
X2685Y827D02*
X2692Y827D01*
X51Y826D02*
X59Y826D01*
X2684Y826D02*
X2692Y826D01*
X52Y825D02*
X59Y825D01*
X2684Y825D02*
X2691Y825D01*
X52Y824D02*
X59Y824D01*
X2684Y824D02*
X2691Y824D01*
X52Y823D02*
X60Y823D01*
X2683Y823D02*
X2691Y823D01*
X53Y822D02*
X60Y822D01*
X2683Y822D02*
X2690Y822D01*
X53Y821D02*
X61Y821D01*
X2682Y821D02*
X2690Y821D01*
X54Y820D02*
X61Y820D01*
X2682Y820D02*
X2689Y820D01*
X54Y819D02*
X61Y819D01*
X2682Y819D02*
X2689Y819D01*
X54Y818D02*
X62Y818D01*
X2681Y818D02*
X2689Y818D01*
X55Y817D02*
X62Y817D01*
X2681Y817D02*
X2688Y817D01*
X55Y816D02*
X62Y816D01*
X2681Y816D02*
X2688Y816D01*
X55Y815D02*
X63Y815D01*
X2680Y815D02*
X2688Y815D01*
X56Y814D02*
X63Y814D01*
X2680Y814D02*
X2687Y814D01*
X56Y813D02*
X63Y813D01*
X2680Y813D02*
X2687Y813D01*
X56Y812D02*
X64Y812D01*
X2679Y812D02*
X2687Y812D01*
X57Y811D02*
X64Y811D01*
X2679Y811D02*
X2686Y811D01*
X57Y810D02*
X64Y810D01*
X2679Y810D02*
X2686Y810D01*
X58Y809D02*
X65Y809D01*
X2678Y809D02*
X2685Y809D01*
X58Y808D02*
X65Y808D01*
X2678Y808D02*
X2685Y808D01*
X58Y807D02*
X66Y807D01*
X2677Y807D02*
X2685Y807D01*
X59Y806D02*
X66Y806D01*
X2677Y806D02*
X2684Y806D01*
X59Y805D02*
X66Y805D01*
X2677Y805D02*
X2684Y805D01*
X59Y804D02*
X67Y804D01*
X2676Y804D02*
X2684Y804D01*
X60Y803D02*
X67Y803D01*
X2676Y803D02*
X2683Y803D01*
X60Y802D02*
X67Y802D01*
X2676Y802D02*
X2683Y802D01*
X60Y801D02*
X68Y801D01*
X2675Y801D02*
X2683Y801D01*
X61Y800D02*
X68Y800D01*
X2675Y800D02*
X2682Y800D01*
X61Y799D02*
X68Y799D01*
X2675Y799D02*
X2682Y799D01*
X61Y798D02*
X69Y798D01*
X2674Y798D02*
X2682Y798D01*
X62Y797D02*
X69Y797D01*
X2674Y797D02*
X2681Y797D01*
X62Y796D02*
X70Y796D01*
X2673Y796D02*
X2681Y796D01*
X63Y795D02*
X70Y795D01*
X2673Y795D02*
X2680Y795D01*
X63Y794D02*
X70Y794D01*
X2673Y794D02*
X2680Y794D01*
X63Y793D02*
X71Y793D01*
X2672Y793D02*
X2680Y793D01*
X64Y792D02*
X71Y792D01*
X2672Y792D02*
X2679Y792D01*
X64Y791D02*
X72Y791D01*
X2671Y791D02*
X2679Y791D01*
X65Y790D02*
X72Y790D01*
X2671Y790D02*
X2678Y790D01*
X65Y789D02*
X72Y789D01*
X2671Y789D02*
X2678Y789D01*
X65Y788D02*
X73Y788D01*
X2670Y788D02*
X2678Y788D01*
X66Y787D02*
X73Y787D01*
X2670Y787D02*
X2677Y787D01*
X66Y786D02*
X74Y786D01*
X2669Y786D02*
X2677Y786D01*
X67Y785D02*
X74Y785D01*
X2669Y785D02*
X2676Y785D01*
X67Y784D02*
X74Y784D01*
X2669Y784D02*
X2676Y784D01*
X67Y783D02*
X75Y783D01*
X2668Y783D02*
X2676Y783D01*
X68Y782D02*
X75Y782D01*
X2668Y782D02*
X2675Y782D01*
X68Y781D02*
X76Y781D01*
X2667Y781D02*
X2675Y781D01*
X69Y780D02*
X76Y780D01*
X2667Y780D02*
X2674Y780D01*
X69Y779D02*
X76Y779D01*
X2667Y779D02*
X2674Y779D01*
X69Y778D02*
X77Y778D01*
X2666Y778D02*
X2674Y778D01*
X70Y777D02*
X77Y777D01*
X2666Y777D02*
X2673Y777D01*
X70Y776D02*
X78Y776D01*
X2665Y776D02*
X2673Y776D01*
X70Y775D02*
X78Y775D01*
X2665Y775D02*
X2672Y775D01*
X71Y774D02*
X78Y774D01*
X2665Y774D02*
X2672Y774D01*
X71Y773D02*
X79Y773D01*
X2664Y773D02*
X2672Y773D01*
X72Y772D02*
X79Y772D01*
X2664Y772D02*
X2671Y772D01*
X72Y771D02*
X80Y771D01*
X2663Y771D02*
X2671Y771D01*
X72Y770D02*
X80Y770D01*
X2663Y770D02*
X2671Y770D01*
X73Y769D02*
X80Y769D01*
X2663Y769D02*
X2670Y769D01*
X73Y768D02*
X81Y768D01*
X2662Y768D02*
X2670Y768D01*
X74Y767D02*
X81Y767D01*
X2662Y767D02*
X2669Y767D01*
X74Y766D02*
X82Y766D01*
X2661Y766D02*
X2669Y766D01*
X75Y765D02*
X82Y765D01*
X2661Y765D02*
X2668Y765D01*
X75Y764D02*
X83Y764D01*
X2660Y764D02*
X2668Y764D01*
X75Y763D02*
X83Y763D01*
X2660Y763D02*
X2668Y763D01*
X76Y762D02*
X83Y762D01*
X2660Y762D02*
X2667Y762D01*
X76Y761D02*
X84Y761D01*
X2659Y761D02*
X2667Y761D01*
X77Y760D02*
X84Y760D01*
X2659Y760D02*
X2666Y760D01*
X77Y759D02*
X85Y759D01*
X2658Y759D02*
X2666Y759D01*
X78Y758D02*
X85Y758D01*
X2658Y758D02*
X2665Y758D01*
X78Y757D02*
X86Y757D01*
X2657Y757D02*
X2665Y757D01*
X78Y756D02*
X86Y756D01*
X2657Y756D02*
X2665Y756D01*
X79Y755D02*
X86Y755D01*
X2657Y755D02*
X2664Y755D01*
X79Y754D02*
X87Y754D01*
X2656Y754D02*
X2664Y754D01*
X80Y753D02*
X87Y753D01*
X2656Y753D02*
X2663Y753D01*
X80Y752D02*
X88Y752D01*
X2655Y752D02*
X2663Y752D01*
X81Y751D02*
X88Y751D01*
X2655Y751D02*
X2662Y751D01*
X81Y750D02*
X89Y750D01*
X2654Y750D02*
X2662Y750D01*
X81Y749D02*
X89Y749D01*
X2654Y749D02*
X2662Y749D01*
X82Y748D02*
X89Y748D01*
X2654Y748D02*
X2661Y748D01*
X82Y747D02*
X90Y747D01*
X2653Y747D02*
X2661Y747D01*
X83Y746D02*
X90Y746D01*
X2653Y746D02*
X2660Y746D01*
X83Y745D02*
X91Y745D01*
X2652Y745D02*
X2660Y745D01*
X84Y744D02*
X91Y744D01*
X2652Y744D02*
X2659Y744D01*
X84Y743D02*
X92Y743D01*
X2651Y743D02*
X2659Y743D01*
X85Y742D02*
X92Y742D01*
X2651Y742D02*
X2658Y742D01*
X85Y741D02*
X93Y741D01*
X2650Y741D02*
X2658Y741D01*
X85Y740D02*
X93Y740D01*
X2650Y740D02*
X2658Y740D01*
X86Y739D02*
X94Y739D01*
X2649Y739D02*
X2657Y739D01*
X86Y738D02*
X94Y738D01*
X2649Y738D02*
X2657Y738D01*
X87Y737D02*
X94Y737D01*
X2649Y737D02*
X2656Y737D01*
X87Y736D02*
X95Y736D01*
X2648Y736D02*
X2656Y736D01*
X88Y735D02*
X95Y735D01*
X2648Y735D02*
X2655Y735D01*
X88Y734D02*
X96Y734D01*
X2647Y734D02*
X2655Y734D01*
X89Y733D02*
X96Y733D01*
X2647Y733D02*
X2654Y733D01*
X89Y732D02*
X97Y732D01*
X2646Y732D02*
X2654Y732D01*
X90Y731D02*
X97Y731D01*
X2646Y731D02*
X2653Y731D01*
X90Y730D02*
X98Y730D01*
X2645Y730D02*
X2653Y730D01*
X91Y729D02*
X98Y729D01*
X2645Y729D02*
X2652Y729D01*
X91Y728D02*
X99Y728D01*
X2644Y728D02*
X2652Y728D01*
X91Y727D02*
X99Y727D01*
X2644Y727D02*
X2652Y727D01*
X92Y726D02*
X100Y726D01*
X2643Y726D02*
X2651Y726D01*
X92Y725D02*
X100Y725D01*
X2643Y725D02*
X2651Y725D01*
X93Y724D02*
X100Y724D01*
X2643Y724D02*
X2650Y724D01*
X93Y723D02*
X101Y723D01*
X2642Y723D02*
X2650Y723D01*
X94Y722D02*
X101Y722D01*
X2642Y722D02*
X2649Y722D01*
X94Y721D02*
X102Y721D01*
X2641Y721D02*
X2649Y721D01*
X95Y720D02*
X102Y720D01*
X2641Y720D02*
X2648Y720D01*
X95Y719D02*
X103Y719D01*
X2640Y719D02*
X2648Y719D01*
X96Y718D02*
X103Y718D01*
X2640Y718D02*
X2647Y718D01*
X96Y717D02*
X104Y717D01*
X2639Y717D02*
X2647Y717D01*
X97Y716D02*
X104Y716D01*
X2639Y716D02*
X2646Y716D01*
X97Y715D02*
X105Y715D01*
X2638Y715D02*
X2646Y715D01*
X98Y714D02*
X105Y714D01*
X2638Y714D02*
X2645Y714D01*
X98Y713D02*
X106Y713D01*
X2637Y713D02*
X2645Y713D01*
X99Y712D02*
X106Y712D01*
X2637Y712D02*
X2644Y712D01*
X99Y711D02*
X107Y711D01*
X2636Y711D02*
X2644Y711D01*
X100Y710D02*
X107Y710D01*
X2636Y710D02*
X2643Y710D01*
X100Y709D02*
X108Y709D01*
X2635Y709D02*
X2643Y709D01*
X101Y708D02*
X108Y708D01*
X2635Y708D02*
X2642Y708D01*
X101Y707D02*
X109Y707D01*
X2634Y707D02*
X2642Y707D01*
X102Y706D02*
X109Y706D01*
X2634Y706D02*
X2641Y706D01*
X102Y705D02*
X110Y705D01*
X2633Y705D02*
X2641Y705D01*
X103Y704D02*
X110Y704D01*
X2633Y704D02*
X2640Y704D01*
X103Y703D02*
X111Y703D01*
X2632Y703D02*
X2640Y703D01*
X104Y702D02*
X111Y702D01*
X2632Y702D02*
X2639Y702D01*
X104Y701D02*
X112Y701D01*
X2631Y701D02*
X2639Y701D01*
X105Y700D02*
X112Y700D01*
X2631Y700D02*
X2638Y700D01*
X105Y699D02*
X113Y699D01*
X2630Y699D02*
X2638Y699D01*
X106Y698D02*
X113Y698D01*
X2630Y698D02*
X2637Y698D01*
X106Y697D02*
X114Y697D01*
X2629Y697D02*
X2637Y697D01*
X107Y696D02*
X114Y696D01*
X2629Y696D02*
X2636Y696D01*
X107Y695D02*
X115Y695D01*
X2628Y695D02*
X2636Y695D01*
X107Y694D02*
X115Y694D01*
X2628Y694D02*
X2636Y694D01*
X108Y693D02*
X116Y693D01*
X2627Y693D02*
X2635Y693D01*
X109Y692D02*
X116Y692D01*
X2627Y692D02*
X2634Y692D01*
X109Y691D02*
X117Y691D01*
X2626Y691D02*
X2634Y691D01*
X110Y690D02*
X117Y690D01*
X2626Y690D02*
X2633Y690D01*
X110Y689D02*
X118Y689D01*
X2625Y689D02*
X2633Y689D01*
X111Y688D02*
X118Y688D01*
X2625Y688D02*
X2632Y688D01*
X111Y687D02*
X119Y687D01*
X2624Y687D02*
X2632Y687D01*
X112Y686D02*
X120Y686D01*
X2623Y686D02*
X2631Y686D01*
X112Y685D02*
X120Y685D01*
X2623Y685D02*
X2631Y685D01*
X113Y684D02*
X121Y684D01*
X2622Y684D02*
X2630Y684D01*
X113Y683D02*
X121Y683D01*
X2622Y683D02*
X2630Y683D01*
X114Y682D02*
X122Y682D01*
X2621Y682D02*
X2629Y682D01*
X114Y681D02*
X122Y681D01*
X2621Y681D02*
X2629Y681D01*
X115Y680D02*
X123Y680D01*
X2620Y680D02*
X2628Y680D01*
X115Y679D02*
X123Y679D01*
X2620Y679D02*
X2628Y679D01*
X116Y678D02*
X124Y678D01*
X2619Y678D02*
X2627Y678D01*
X116Y677D02*
X124Y677D01*
X2619Y677D02*
X2627Y677D01*
X117Y676D02*
X125Y676D01*
X2618Y676D02*
X2626Y676D01*
X118Y675D02*
X125Y675D01*
X2618Y675D02*
X2625Y675D01*
X118Y674D02*
X126Y674D01*
X2617Y674D02*
X2625Y674D01*
X119Y673D02*
X126Y673D01*
X2617Y673D02*
X2624Y673D01*
X119Y672D02*
X127Y672D01*
X2616Y672D02*
X2624Y672D01*
X120Y671D02*
X128Y671D01*
X2615Y671D02*
X2623Y671D01*
X120Y670D02*
X128Y670D01*
X2615Y670D02*
X2623Y670D01*
X121Y669D02*
X129Y669D01*
X2614Y669D02*
X2622Y669D01*
X121Y668D02*
X129Y668D01*
X2614Y668D02*
X2622Y668D01*
X122Y667D02*
X130Y667D01*
X2613Y667D02*
X2621Y667D01*
X122Y666D02*
X130Y666D01*
X2613Y666D02*
X2621Y666D01*
X123Y665D02*
X131Y665D01*
X2612Y665D02*
X2620Y665D01*
X124Y664D02*
X131Y664D01*
X2612Y664D02*
X2619Y664D01*
X124Y663D02*
X132Y663D01*
X2611Y663D02*
X2619Y663D01*
X125Y662D02*
X133Y662D01*
X2610Y662D02*
X2618Y662D01*
X125Y661D02*
X133Y661D01*
X2610Y661D02*
X2618Y661D01*
X126Y660D02*
X134Y660D01*
X2609Y660D02*
X2617Y660D01*
X126Y659D02*
X134Y659D01*
X2609Y659D02*
X2617Y659D01*
X127Y658D02*
X135Y658D01*
X2608Y658D02*
X2616Y658D01*
X127Y657D02*
X135Y657D01*
X2608Y657D02*
X2616Y657D01*
X128Y656D02*
X136Y656D01*
X2607Y656D02*
X2615Y656D01*
X129Y655D02*
X137Y655D01*
X2606Y655D02*
X2614Y655D01*
X129Y654D02*
X137Y654D01*
X2606Y654D02*
X2614Y654D01*
X130Y653D02*
X138Y653D01*
X2605Y653D02*
X2613Y653D01*
X130Y652D02*
X138Y652D01*
X2605Y652D02*
X2613Y652D01*
X131Y651D02*
X139Y651D01*
X2604Y651D02*
X2612Y651D01*
X131Y650D02*
X139Y650D01*
X2604Y650D02*
X2612Y650D01*
X132Y649D02*
X140Y649D01*
X2603Y649D02*
X2611Y649D01*
X133Y648D02*
X141Y648D01*
X2602Y648D02*
X2610Y648D01*
X133Y647D02*
X141Y647D01*
X2602Y647D02*
X2610Y647D01*
X134Y646D02*
X142Y646D01*
X2601Y646D02*
X2609Y646D01*
X134Y645D02*
X142Y645D01*
X2601Y645D02*
X2609Y645D01*
X135Y644D02*
X143Y644D01*
X2600Y644D02*
X2608Y644D01*
X135Y643D02*
X144Y643D01*
X2599Y643D02*
X2608Y643D01*
X136Y642D02*
X144Y642D01*
X2599Y642D02*
X2607Y642D01*
X137Y641D02*
X145Y641D01*
X2598Y641D02*
X2606Y641D01*
X137Y640D02*
X145Y640D01*
X2598Y640D02*
X2606Y640D01*
X138Y639D02*
X146Y639D01*
X2597Y639D02*
X2605Y639D01*
X138Y638D02*
X147Y638D01*
X2596Y638D02*
X2605Y638D01*
X139Y637D02*
X147Y637D01*
X2596Y637D02*
X2604Y637D01*
X140Y636D02*
X148Y636D01*
X2595Y636D02*
X2603Y636D01*
X140Y635D02*
X148Y635D01*
X2595Y635D02*
X2603Y635D01*
X141Y634D02*
X149Y634D01*
X2594Y634D02*
X2602Y634D01*
X141Y633D02*
X150Y633D01*
X2593Y633D02*
X2602Y633D01*
X142Y632D02*
X150Y632D01*
X2593Y632D02*
X2601Y632D01*
X143Y631D02*
X151Y631D01*
X2592Y631D02*
X2600Y631D01*
X143Y630D02*
X151Y630D01*
X2592Y630D02*
X2600Y630D01*
X144Y629D02*
X152Y629D01*
X2591Y629D02*
X2599Y629D01*
X144Y628D02*
X153Y628D01*
X2590Y628D02*
X2599Y628D01*
X145Y627D02*
X153Y627D01*
X2590Y627D02*
X2598Y627D01*
X146Y626D02*
X154Y626D01*
X2589Y626D02*
X2597Y626D01*
X146Y625D02*
X154Y625D01*
X2589Y625D02*
X2597Y625D01*
X147Y624D02*
X155Y624D01*
X2588Y624D02*
X2596Y624D01*
X147Y623D02*
X156Y623D01*
X2587Y623D02*
X2596Y623D01*
X148Y622D02*
X156Y622D01*
X2587Y622D02*
X2595Y622D01*
X149Y621D02*
X157Y621D01*
X2586Y621D02*
X2594Y621D01*
X149Y620D02*
X157Y620D01*
X2586Y620D02*
X2594Y620D01*
X150Y619D02*
X158Y619D01*
X2585Y619D02*
X2593Y619D01*
X150Y618D02*
X159Y618D01*
X2584Y618D02*
X2593Y618D01*
X151Y617D02*
X159Y617D01*
X2584Y617D02*
X2592Y617D01*
X152Y616D02*
X160Y616D01*
X2583Y616D02*
X2591Y616D01*
X152Y615D02*
X161Y615D01*
X2582Y615D02*
X2591Y615D01*
X153Y614D02*
X161Y614D01*
X2582Y614D02*
X2590Y614D01*
X154Y613D02*
X162Y613D01*
X2581Y613D02*
X2589Y613D01*
X154Y612D02*
X163Y612D01*
X2580Y612D02*
X2589Y612D01*
X155Y611D02*
X163Y611D01*
X2580Y611D02*
X2588Y611D01*
X156Y610D02*
X164Y610D01*
X2579Y610D02*
X2587Y610D01*
X156Y609D02*
X164Y609D01*
X2579Y609D02*
X2587Y609D01*
X157Y608D02*
X165Y608D01*
X2578Y608D02*
X2586Y608D01*
X157Y607D02*
X166Y607D01*
X2577Y607D02*
X2586Y607D01*
X158Y606D02*
X166Y606D01*
X2577Y606D02*
X2585Y606D01*
X159Y605D02*
X167Y605D01*
X2576Y605D02*
X2584Y605D01*
X159Y604D02*
X168Y604D01*
X2575Y604D02*
X2584Y604D01*
X160Y603D02*
X168Y603D01*
X2575Y603D02*
X2583Y603D01*
X161Y602D02*
X169Y602D01*
X2574Y602D02*
X2582Y602D01*
X161Y601D02*
X170Y601D01*
X2573Y601D02*
X2582Y601D01*
X162Y600D02*
X170Y600D01*
X2573Y600D02*
X2581Y600D01*
X163Y599D02*
X171Y599D01*
X2572Y599D02*
X2580Y599D01*
X163Y598D02*
X172Y598D01*
X2571Y598D02*
X2580Y598D01*
X164Y597D02*
X172Y597D01*
X2571Y597D02*
X2579Y597D01*
X165Y596D02*
X173Y596D01*
X2570Y596D02*
X2578Y596D01*
X165Y595D02*
X174Y595D01*
X2569Y595D02*
X2578Y595D01*
X166Y594D02*
X174Y594D01*
X2569Y594D02*
X2577Y594D01*
X166Y593D02*
X175Y593D01*
X2568Y593D02*
X2577Y593D01*
X167Y592D02*
X176Y592D01*
X2567Y592D02*
X2576Y592D01*
X168Y591D02*
X176Y591D01*
X2567Y591D02*
X2575Y591D01*
X168Y590D02*
X177Y590D01*
X2566Y590D02*
X2575Y590D01*
X169Y589D02*
X178Y589D01*
X2565Y589D02*
X2574Y589D01*
X170Y588D02*
X178Y588D01*
X2565Y588D02*
X2573Y588D01*
X171Y587D02*
X179Y587D01*
X2564Y587D02*
X2572Y587D01*
X171Y586D02*
X180Y586D01*
X2563Y586D02*
X2572Y586D01*
X172Y585D02*
X180Y585D01*
X2563Y585D02*
X2571Y585D01*
X173Y584D02*
X181Y584D01*
X2562Y584D02*
X2570Y584D01*
X173Y583D02*
X182Y583D01*
X2561Y583D02*
X2570Y583D01*
X174Y582D02*
X182Y582D01*
X2561Y582D02*
X2569Y582D01*
X175Y581D02*
X183Y581D01*
X2560Y581D02*
X2568Y581D01*
X175Y580D02*
X184Y580D01*
X2559Y580D02*
X2568Y580D01*
X176Y579D02*
X184Y579D01*
X2559Y579D02*
X2567Y579D01*
X177Y578D02*
X185Y578D01*
X2558Y578D02*
X2566Y578D01*
X177Y577D02*
X186Y577D01*
X2557Y577D02*
X2566Y577D01*
X178Y576D02*
X186Y576D01*
X2557Y576D02*
X2565Y576D01*
X179Y575D02*
X187Y575D01*
X2556Y575D02*
X2564Y575D01*
X179Y574D02*
X188Y574D01*
X2555Y574D02*
X2564Y574D01*
X180Y573D02*
X189Y573D01*
X2554Y573D02*
X2563Y573D01*
X181Y572D02*
X189Y572D01*
X2554Y572D02*
X2562Y572D01*
X181Y571D02*
X190Y571D01*
X2553Y571D02*
X2562Y571D01*
X182Y570D02*
X191Y570D01*
X2552Y570D02*
X2561Y570D01*
X183Y569D02*
X191Y569D01*
X2552Y569D02*
X2560Y569D01*
X183Y568D02*
X192Y568D01*
X2551Y568D02*
X2560Y568D01*
X184Y567D02*
X193Y567D01*
X2550Y567D02*
X2559Y567D01*
X185Y566D02*
X194Y566D01*
X2549Y566D02*
X2558Y566D01*
X186Y565D02*
X194Y565D01*
X2549Y565D02*
X2557Y565D01*
X186Y564D02*
X195Y564D01*
X2548Y564D02*
X2557Y564D01*
X187Y563D02*
X196Y563D01*
X2547Y563D02*
X2556Y563D01*
X188Y562D02*
X196Y562D01*
X2547Y562D02*
X2555Y562D01*
X188Y561D02*
X197Y561D01*
X2546Y561D02*
X2555Y561D01*
X189Y560D02*
X198Y560D01*
X2545Y560D02*
X2554Y560D01*
X190Y559D02*
X199Y559D01*
X2544Y559D02*
X2553Y559D01*
X191Y558D02*
X199Y558D01*
X2544Y558D02*
X2552Y558D01*
X191Y557D02*
X200Y557D01*
X2543Y557D02*
X2552Y557D01*
X192Y556D02*
X201Y556D01*
X2542Y556D02*
X2551Y556D01*
X193Y555D02*
X201Y555D01*
X2542Y555D02*
X2550Y555D01*
X194Y554D02*
X202Y554D01*
X2541Y554D02*
X2549Y554D01*
X194Y553D02*
X203Y553D01*
X2540Y553D02*
X2549Y553D01*
X195Y552D02*
X204Y552D01*
X2539Y552D02*
X2548Y552D01*
X196Y551D02*
X204Y551D01*
X2539Y551D02*
X2547Y551D01*
X196Y550D02*
X205Y550D01*
X2538Y550D02*
X2547Y550D01*
X197Y549D02*
X206Y549D01*
X2537Y549D02*
X2546Y549D01*
X198Y548D02*
X207Y548D01*
X2536Y548D02*
X2545Y548D01*
X199Y547D02*
X207Y547D01*
X2536Y547D02*
X2544Y547D01*
X199Y546D02*
X208Y546D01*
X2535Y546D02*
X2544Y546D01*
X200Y545D02*
X209Y545D01*
X2534Y545D02*
X2543Y545D01*
X201Y544D02*
X210Y544D01*
X2533Y544D02*
X2542Y544D01*
X202Y543D02*
X210Y543D01*
X2533Y543D02*
X2541Y543D01*
X202Y542D02*
X211Y542D01*
X2532Y542D02*
X2541Y542D01*
X203Y541D02*
X212Y541D01*
X2531Y541D02*
X2540Y541D01*
X204Y540D02*
X213Y540D01*
X2530Y540D02*
X2539Y540D01*
X205Y539D02*
X213Y539D01*
X2530Y539D02*
X2538Y539D01*
X205Y538D02*
X214Y538D01*
X2529Y538D02*
X2538Y538D01*
X206Y537D02*
X215Y537D01*
X2528Y537D02*
X2537Y537D01*
X207Y536D02*
X216Y536D01*
X2527Y536D02*
X2536Y536D01*
X208Y535D02*
X216Y535D01*
X2527Y535D02*
X2535Y535D01*
X208Y534D02*
X217Y534D01*
X2526Y534D02*
X2535Y534D01*
X209Y533D02*
X218Y533D01*
X2525Y533D02*
X2534Y533D01*
X210Y532D02*
X219Y532D01*
X2524Y532D02*
X2533Y532D01*
X211Y531D02*
X219Y531D01*
X2524Y531D02*
X2532Y531D01*
X211Y530D02*
X220Y530D01*
X2523Y530D02*
X2532Y530D01*
X212Y529D02*
X221Y529D01*
X2522Y529D02*
X2531Y529D01*
X213Y528D02*
X222Y528D01*
X2521Y528D02*
X2530Y528D01*
X214Y527D02*
X223Y527D01*
X2520Y527D02*
X2529Y527D01*
X214Y526D02*
X223Y526D01*
X2520Y526D02*
X2529Y526D01*
X215Y525D02*
X224Y525D01*
X2519Y525D02*
X2528Y525D01*
X216Y524D02*
X225Y524D01*
X2518Y524D02*
X2527Y524D01*
X217Y523D02*
X226Y523D01*
X2517Y523D02*
X2526Y523D01*
X217Y522D02*
X227Y522D01*
X2516Y522D02*
X2526Y522D01*
X218Y521D02*
X227Y521D01*
X2516Y521D02*
X2525Y521D01*
X219Y520D02*
X228Y520D01*
X2515Y520D02*
X2524Y520D01*
X220Y519D02*
X229Y519D01*
X2514Y519D02*
X2523Y519D01*
X221Y518D02*
X230Y518D01*
X2513Y518D02*
X2522Y518D01*
X221Y517D02*
X231Y517D01*
X2512Y517D02*
X2522Y517D01*
X222Y516D02*
X231Y516D01*
X2512Y516D02*
X2521Y516D01*
X223Y515D02*
X232Y515D01*
X2511Y515D02*
X2520Y515D01*
X224Y514D02*
X233Y514D01*
X2510Y514D02*
X2519Y514D01*
X225Y513D02*
X234Y513D01*
X2509Y513D02*
X2518Y513D01*
X225Y512D02*
X235Y512D01*
X2508Y512D02*
X2518Y512D01*
X226Y511D02*
X235Y511D01*
X2508Y511D02*
X2517Y511D01*
X227Y510D02*
X236Y510D01*
X2507Y510D02*
X2516Y510D01*
X228Y509D02*
X237Y509D01*
X2506Y509D02*
X2515Y509D01*
X229Y508D02*
X238Y508D01*
X2505Y508D02*
X2514Y508D01*
X229Y507D02*
X239Y507D01*
X2504Y507D02*
X2514Y507D01*
X230Y506D02*
X239Y506D01*
X2504Y506D02*
X2513Y506D01*
X231Y505D02*
X240Y505D01*
X2503Y505D02*
X2512Y505D01*
X232Y504D02*
X241Y504D01*
X2502Y504D02*
X2511Y504D01*
X233Y503D02*
X242Y503D01*
X2501Y503D02*
X2510Y503D01*
X233Y502D02*
X243Y502D01*
X2500Y502D02*
X2510Y502D01*
X234Y501D02*
X244Y501D01*
X2499Y501D02*
X2509Y501D01*
X235Y500D02*
X244Y500D01*
X2499Y500D02*
X2508Y500D01*
X236Y499D02*
X245Y499D01*
X2498Y499D02*
X2507Y499D01*
X237Y498D02*
X246Y498D01*
X2497Y498D02*
X2506Y498D01*
X238Y497D02*
X247Y497D01*
X2496Y497D02*
X2505Y497D01*
X238Y496D02*
X248Y496D01*
X2495Y496D02*
X2505Y496D01*
X239Y495D02*
X249Y495D01*
X2494Y495D02*
X2504Y495D01*
X240Y494D02*
X249Y494D01*
X2494Y494D02*
X2503Y494D01*
X241Y493D02*
X250Y493D01*
X2493Y493D02*
X2502Y493D01*
X242Y492D02*
X251Y492D01*
X2492Y492D02*
X2501Y492D01*
X243Y491D02*
X252Y491D01*
X2491Y491D02*
X2500Y491D01*
X243Y490D02*
X253Y490D01*
X2490Y490D02*
X2500Y490D01*
X244Y489D02*
X254Y489D01*
X2489Y489D02*
X2499Y489D01*
X245Y488D02*
X254Y488D01*
X2489Y488D02*
X2498Y488D01*
X246Y487D02*
X255Y487D01*
X2488Y487D02*
X2497Y487D01*
X247Y486D02*
X256Y486D01*
X2487Y486D02*
X2496Y486D01*
X248Y485D02*
X257Y485D01*
X2486Y485D02*
X2495Y485D01*
X248Y484D02*
X258Y484D01*
X2485Y484D02*
X2495Y484D01*
X249Y483D02*
X259Y483D01*
X2484Y483D02*
X2494Y483D01*
X250Y482D02*
X260Y482D01*
X2483Y482D02*
X2493Y482D01*
X251Y481D02*
X260Y481D01*
X2483Y481D02*
X2492Y481D01*
X252Y480D02*
X261Y480D01*
X2482Y480D02*
X2491Y480D01*
X253Y479D02*
X262Y479D01*
X2481Y479D02*
X2490Y479D01*
X254Y478D02*
X263Y478D01*
X2480Y478D02*
X2489Y478D01*
X254Y477D02*
X264Y477D01*
X2479Y477D02*
X2489Y477D01*
X255Y476D02*
X265Y476D01*
X2478Y476D02*
X2488Y476D01*
X256Y475D02*
X266Y475D01*
X2477Y475D02*
X2487Y475D01*
X257Y474D02*
X267Y474D01*
X2476Y474D02*
X2486Y474D01*
X258Y473D02*
X268Y473D01*
X2475Y473D02*
X2485Y473D01*
X259Y472D02*
X268Y472D01*
X2475Y472D02*
X2484Y472D01*
X260Y471D02*
X269Y471D01*
X2474Y471D02*
X2483Y471D01*
X261Y470D02*
X270Y470D01*
X2473Y470D02*
X2482Y470D01*
X261Y469D02*
X271Y469D01*
X2472Y469D02*
X2482Y469D01*
X262Y468D02*
X272Y468D01*
X2471Y468D02*
X2481Y468D01*
X263Y467D02*
X273Y467D01*
X2470Y467D02*
X2480Y467D01*
X264Y466D02*
X274Y466D01*
X2469Y466D02*
X2479Y466D01*
X265Y465D02*
X275Y465D01*
X2468Y465D02*
X2478Y465D01*
X266Y464D02*
X275Y464D01*
X2468Y464D02*
X2477Y464D01*
X267Y463D02*
X276Y463D01*
X2467Y463D02*
X2476Y463D01*
X268Y462D02*
X277Y462D01*
X2466Y462D02*
X2475Y462D01*
X269Y461D02*
X278Y461D01*
X2465Y461D02*
X2474Y461D01*
X269Y460D02*
X279Y460D01*
X2464Y460D02*
X2474Y460D01*
X270Y459D02*
X280Y459D01*
X2463Y459D02*
X2473Y459D01*
X271Y458D02*
X281Y458D01*
X2462Y458D02*
X2472Y458D01*
X272Y457D02*
X282Y457D01*
X2461Y457D02*
X2471Y457D01*
X273Y456D02*
X283Y456D01*
X2460Y456D02*
X2470Y456D01*
X274Y455D02*
X284Y455D01*
X2459Y455D02*
X2469Y455D01*
X275Y454D02*
X285Y454D01*
X2458Y454D02*
X2468Y454D01*
X276Y453D02*
X286Y453D01*
X2457Y453D02*
X2467Y453D01*
X277Y452D02*
X287Y452D01*
X2456Y452D02*
X2466Y452D01*
X278Y451D02*
X287Y451D01*
X2456Y451D02*
X2465Y451D01*
X279Y450D02*
X288Y450D01*
X2455Y450D02*
X2464Y450D01*
X279Y449D02*
X289Y449D01*
X2454Y449D02*
X2464Y449D01*
X280Y448D02*
X290Y448D01*
X2453Y448D02*
X2463Y448D01*
X281Y447D02*
X291Y447D01*
X2452Y447D02*
X2462Y447D01*
X282Y446D02*
X292Y446D01*
X2451Y446D02*
X2461Y446D01*
X283Y445D02*
X293Y445D01*
X2450Y445D02*
X2460Y445D01*
X284Y444D02*
X294Y444D01*
X2449Y444D02*
X2459Y444D01*
X285Y443D02*
X295Y443D01*
X2448Y443D02*
X2458Y443D01*
X286Y442D02*
X296Y442D01*
X2447Y442D02*
X2457Y442D01*
X287Y441D02*
X297Y441D01*
X2446Y441D02*
X2456Y441D01*
X288Y440D02*
X298Y440D01*
X2445Y440D02*
X2455Y440D01*
X289Y439D02*
X299Y439D01*
X2444Y439D02*
X2454Y439D01*
X290Y438D02*
X300Y438D01*
X2443Y438D02*
X2453Y438D01*
X291Y437D02*
X301Y437D01*
X2442Y437D02*
X2452Y437D01*
X292Y436D02*
X302Y436D01*
X2441Y436D02*
X2451Y436D01*
X292Y435D02*
X303Y435D01*
X2440Y435D02*
X2451Y435D01*
X293Y434D02*
X304Y434D01*
X2439Y434D02*
X2450Y434D01*
X294Y433D02*
X304Y433D01*
X2438Y433D02*
X2449Y433D01*
X295Y432D02*
X305Y432D01*
X2438Y432D02*
X2448Y432D01*
X296Y431D02*
X306Y431D01*
X2437Y431D02*
X2447Y431D01*
X297Y430D02*
X307Y430D01*
X2436Y430D02*
X2446Y430D01*
X298Y429D02*
X308Y429D01*
X2435Y429D02*
X2445Y429D01*
X299Y428D02*
X309Y428D01*
X2434Y428D02*
X2444Y428D01*
X300Y427D02*
X310Y427D01*
X2433Y427D02*
X2443Y427D01*
X301Y426D02*
X311Y426D01*
X2432Y426D02*
X2442Y426D01*
X302Y425D02*
X312Y425D01*
X2431Y425D02*
X2441Y425D01*
X303Y424D02*
X313Y424D01*
X2430Y424D02*
X2440Y424D01*
X304Y423D02*
X314Y423D01*
X2429Y423D02*
X2439Y423D01*
X305Y422D02*
X315Y422D01*
X2428Y422D02*
X2438Y422D01*
X306Y421D02*
X316Y421D01*
X2427Y421D02*
X2437Y421D01*
X307Y420D02*
X317Y420D01*
X2426Y420D02*
X2436Y420D01*
X308Y419D02*
X318Y419D01*
X2425Y419D02*
X2435Y419D01*
X309Y418D02*
X319Y418D01*
X2424Y418D02*
X2434Y418D01*
X310Y417D02*
X320Y417D01*
X2423Y417D02*
X2433Y417D01*
X311Y416D02*
X321Y416D01*
X2422Y416D02*
X2432Y416D01*
X312Y415D02*
X322Y415D01*
X2421Y415D02*
X2431Y415D01*
X313Y414D02*
X323Y414D01*
X2420Y414D02*
X2430Y414D01*
X314Y413D02*
X324Y413D01*
X2419Y413D02*
X2429Y413D01*
X315Y412D02*
X325Y412D01*
X2418Y412D02*
X2428Y412D01*
X316Y411D02*
X326Y411D01*
X2417Y411D02*
X2427Y411D01*
X317Y410D02*
X327Y410D01*
X2416Y410D02*
X2426Y410D01*
X318Y409D02*
X328Y409D01*
X2415Y409D02*
X2425Y409D01*
X319Y408D02*
X329Y408D01*
X2414Y408D02*
X2424Y408D01*
X320Y407D02*
X330Y407D01*
X2413Y407D02*
X2423Y407D01*
X321Y406D02*
X332Y406D01*
X2411Y406D02*
X2422Y406D01*
X322Y405D02*
X333Y405D01*
X2410Y405D02*
X2421Y405D01*
X323Y404D02*
X334Y404D01*
X2409Y404D02*
X2420Y404D01*
X324Y403D02*
X335Y403D01*
X2408Y403D02*
X2419Y403D01*
X325Y402D02*
X336Y402D01*
X2407Y402D02*
X2418Y402D01*
X326Y401D02*
X337Y401D01*
X2406Y401D02*
X2417Y401D01*
X327Y400D02*
X338Y400D01*
X2405Y400D02*
X2416Y400D01*
X328Y399D02*
X339Y399D01*
X2404Y399D02*
X2415Y399D01*
X329Y398D02*
X340Y398D01*
X2403Y398D02*
X2414Y398D01*
X330Y397D02*
X341Y397D01*
X2402Y397D02*
X2413Y397D01*
X331Y396D02*
X342Y396D01*
X2401Y396D02*
X2412Y396D01*
X332Y395D02*
X343Y395D01*
X2400Y395D02*
X2411Y395D01*
X333Y394D02*
X344Y394D01*
X2399Y394D02*
X2410Y394D01*
X334Y393D02*
X345Y393D01*
X2398Y393D02*
X2409Y393D01*
X335Y392D02*
X346Y392D01*
X2397Y392D02*
X2408Y392D01*
X337Y391D02*
X347Y391D01*
X2396Y391D02*
X2406Y391D01*
X338Y390D02*
X348Y390D01*
X2395Y390D02*
X2405Y390D01*
X339Y389D02*
X349Y389D01*
X2394Y389D02*
X2404Y389D01*
X340Y388D02*
X350Y388D01*
X2393Y388D02*
X2403Y388D01*
X341Y387D02*
X352Y387D01*
X2391Y387D02*
X2402Y387D01*
X342Y386D02*
X353Y386D01*
X2390Y386D02*
X2401Y386D01*
X343Y385D02*
X354Y385D01*
X2389Y385D02*
X2400Y385D01*
X344Y384D02*
X355Y384D01*
X2388Y384D02*
X2399Y384D01*
X345Y383D02*
X356Y383D01*
X2387Y383D02*
X2398Y383D01*
X346Y382D02*
X357Y382D01*
X2386Y382D02*
X2397Y382D01*
X347Y381D02*
X358Y381D01*
X2385Y381D02*
X2396Y381D01*
X348Y380D02*
X359Y380D01*
X2384Y380D02*
X2395Y380D01*
X349Y379D02*
X360Y379D01*
X2383Y379D02*
X2394Y379D01*
X351Y378D02*
X361Y378D01*
X2382Y378D02*
X2392Y378D01*
X352Y377D02*
X362Y377D01*
X2381Y377D02*
X2391Y377D01*
X353Y376D02*
X364Y376D01*
X2379Y376D02*
X2390Y376D01*
X354Y375D02*
X365Y375D01*
X2378Y375D02*
X2389Y375D01*
X355Y374D02*
X366Y374D01*
X2377Y374D02*
X2388Y374D01*
X356Y373D02*
X367Y373D01*
X2376Y373D02*
X2387Y373D01*
X357Y372D02*
X368Y372D01*
X2375Y372D02*
X2386Y372D01*
X358Y371D02*
X369Y371D01*
X2374Y371D02*
X2385Y371D01*
X359Y370D02*
X370Y370D01*
X2373Y370D02*
X2384Y370D01*
X360Y369D02*
X371Y369D01*
X2372Y369D02*
X2383Y369D01*
X361Y368D02*
X373Y368D01*
X2370Y368D02*
X2382Y368D01*
X363Y367D02*
X374Y367D01*
X2369Y367D02*
X2380Y367D01*
X364Y366D02*
X375Y366D01*
X2368Y366D02*
X2379Y366D01*
X365Y365D02*
X376Y365D01*
X2367Y365D02*
X2378Y365D01*
X366Y364D02*
X377Y364D01*
X2366Y364D02*
X2377Y364D01*
X367Y363D02*
X378Y363D01*
X2365Y363D02*
X2376Y363D01*
X368Y362D02*
X379Y362D01*
X2364Y362D02*
X2375Y362D01*
X369Y361D02*
X380Y361D01*
X2363Y361D02*
X2374Y361D01*
X371Y360D02*
X382Y360D01*
X2361Y360D02*
X2372Y360D01*
X372Y359D02*
X383Y359D01*
X2360Y359D02*
X2371Y359D01*
X373Y358D02*
X384Y358D01*
X2359Y358D02*
X2370Y358D01*
X374Y357D02*
X385Y357D01*
X2358Y357D02*
X2369Y357D01*
X375Y356D02*
X386Y356D01*
X2357Y356D02*
X2368Y356D01*
X376Y355D02*
X387Y355D01*
X2356Y355D02*
X2367Y355D01*
X377Y354D02*
X389Y354D01*
X2354Y354D02*
X2366Y354D01*
X378Y353D02*
X390Y353D01*
X2353Y353D02*
X2365Y353D01*
X380Y352D02*
X391Y352D01*
X2352Y352D02*
X2363Y352D01*
X381Y351D02*
X392Y351D01*
X2351Y351D02*
X2362Y351D01*
X382Y350D02*
X393Y350D01*
X2350Y350D02*
X2361Y350D01*
X383Y349D02*
X395Y349D01*
X2348Y349D02*
X2360Y349D01*
X384Y348D02*
X396Y348D01*
X2347Y348D02*
X2359Y348D01*
X385Y347D02*
X397Y347D01*
X2346Y347D02*
X2358Y347D01*
X387Y346D02*
X398Y346D01*
X2345Y346D02*
X2356Y346D01*
X388Y345D02*
X399Y345D01*
X2344Y345D02*
X2355Y345D01*
X389Y344D02*
X400Y344D01*
X2343Y344D02*
X2354Y344D01*
X390Y343D02*
X402Y343D01*
X2341Y343D02*
X2353Y343D01*
X391Y342D02*
X403Y342D01*
X2340Y342D02*
X2352Y342D01*
X393Y341D02*
X404Y341D01*
X2339Y341D02*
X2350Y341D01*
X394Y340D02*
X405Y340D01*
X2338Y340D02*
X2349Y340D01*
X395Y339D02*
X406Y339D01*
X2337Y339D02*
X2348Y339D01*
X396Y338D02*
X408Y338D01*
X2335Y338D02*
X2347Y338D01*
X397Y337D02*
X409Y337D01*
X2334Y337D02*
X2346Y337D01*
X398Y336D02*
X410Y336D01*
X2333Y336D02*
X2344Y336D01*
X400Y335D02*
X411Y335D01*
X2332Y335D02*
X2343Y335D01*
X401Y334D02*
X413Y334D01*
X2330Y334D02*
X2342Y334D01*
X402Y333D02*
X414Y333D01*
X2329Y333D02*
X2341Y333D01*
X403Y332D02*
X415Y332D01*
X2328Y332D02*
X2340Y332D01*
X405Y331D02*
X416Y331D01*
X2327Y331D02*
X2338Y331D01*
X406Y330D02*
X418Y330D01*
X2325Y330D02*
X2337Y330D01*
X407Y329D02*
X419Y329D01*
X2324Y329D02*
X2336Y329D01*
X408Y328D02*
X420Y328D01*
X2323Y328D02*
X2335Y328D01*
X409Y327D02*
X421Y327D01*
X2322Y327D02*
X2333Y327D01*
X411Y326D02*
X423Y326D01*
X2320Y326D02*
X2332Y326D01*
X412Y325D02*
X424Y325D01*
X2319Y325D02*
X2331Y325D01*
X413Y324D02*
X425Y324D01*
X2318Y324D02*
X2330Y324D01*
X414Y323D02*
X426Y323D01*
X2317Y323D02*
X2329Y323D01*
X416Y322D02*
X427Y322D01*
X2316Y322D02*
X2327Y322D01*
X417Y321D02*
X429Y321D01*
X2314Y321D02*
X2326Y321D01*
X418Y320D02*
X430Y320D01*
X2313Y320D02*
X2325Y320D01*
X419Y319D02*
X431Y319D01*
X2312Y319D02*
X2324Y319D01*
X421Y318D02*
X433Y318D01*
X2310Y318D02*
X2322Y318D01*
X422Y317D02*
X434Y317D01*
X2309Y317D02*
X2321Y317D01*
X423Y316D02*
X435Y316D01*
X2308Y316D02*
X2320Y316D01*
X424Y315D02*
X436Y315D01*
X2307Y315D02*
X2319Y315D01*
X426Y314D02*
X438Y314D01*
X2305Y314D02*
X2317Y314D01*
X427Y313D02*
X439Y313D01*
X2304Y313D02*
X2316Y313D01*
X428Y312D02*
X440Y312D01*
X2303Y312D02*
X2315Y312D01*
X430Y311D02*
X442Y311D01*
X2301Y311D02*
X2313Y311D01*
X431Y310D02*
X443Y310D01*
X2300Y310D02*
X2312Y310D01*
X432Y309D02*
X444Y309D01*
X2299Y309D02*
X2311Y309D01*
X433Y308D02*
X446Y308D01*
X2297Y308D02*
X2310Y308D01*
X435Y307D02*
X447Y307D01*
X2296Y307D02*
X2308Y307D01*
X436Y306D02*
X448Y306D01*
X2295Y306D02*
X2307Y306D01*
X437Y305D02*
X449Y305D01*
X2294Y305D02*
X2306Y305D01*
X439Y304D02*
X451Y304D01*
X2292Y304D02*
X2304Y304D01*
X440Y303D02*
X452Y303D01*
X2291Y303D02*
X2303Y303D01*
X441Y302D02*
X453Y302D01*
X2290Y302D02*
X2302Y302D01*
X443Y301D02*
X455Y301D01*
X2288Y301D02*
X2300Y301D01*
X444Y300D02*
X456Y300D01*
X2287Y300D02*
X2299Y300D01*
X445Y299D02*
X457Y299D01*
X2286Y299D02*
X2298Y299D01*
X446Y298D02*
X459Y298D01*
X2284Y298D02*
X2297Y298D01*
X448Y297D02*
X460Y297D01*
X2283Y297D02*
X2295Y297D01*
X449Y296D02*
X462Y296D01*
X2281Y296D02*
X2294Y296D01*
X450Y295D02*
X463Y295D01*
X2280Y295D02*
X2293Y295D01*
X452Y294D02*
X464Y294D01*
X2279Y294D02*
X2291Y294D01*
X453Y293D02*
X466Y293D01*
X2277Y293D02*
X2290Y293D01*
X455Y292D02*
X467Y292D01*
X2276Y292D02*
X2288Y292D01*
X456Y291D02*
X468Y291D01*
X2275Y291D02*
X2287Y291D01*
X457Y290D02*
X470Y290D01*
X2273Y290D02*
X2286Y290D01*
X459Y289D02*
X471Y289D01*
X2272Y289D02*
X2284Y289D01*
X460Y288D02*
X473Y288D01*
X2270Y288D02*
X2283Y288D01*
X461Y287D02*
X474Y287D01*
X2269Y287D02*
X2282Y287D01*
X463Y286D02*
X475Y286D01*
X2268Y286D02*
X2280Y286D01*
X464Y285D02*
X477Y285D01*
X2266Y285D02*
X2279Y285D01*
X465Y284D02*
X478Y284D01*
X2265Y284D02*
X2278Y284D01*
X467Y283D02*
X479Y283D01*
X2264Y283D02*
X2276Y283D01*
X468Y282D02*
X481Y282D01*
X2262Y282D02*
X2275Y282D01*
X470Y281D02*
X482Y281D01*
X2261Y281D02*
X2273Y281D01*
X471Y280D02*
X484Y280D01*
X2259Y280D02*
X2272Y280D01*
X472Y279D02*
X485Y279D01*
X2258Y279D02*
X2271Y279D01*
X474Y278D02*
X487Y278D01*
X2256Y278D02*
X2269Y278D01*
X475Y277D02*
X488Y277D01*
X2255Y277D02*
X2268Y277D01*
X476Y276D02*
X489Y276D01*
X2254Y276D02*
X2267Y276D01*
X478Y275D02*
X491Y275D01*
X2252Y275D02*
X2265Y275D01*
X479Y274D02*
X492Y274D01*
X2251Y274D02*
X2264Y274D01*
X481Y273D02*
X494Y273D01*
X2249Y273D02*
X2262Y273D01*
X482Y272D02*
X495Y272D01*
X2248Y272D02*
X2261Y272D01*
X484Y271D02*
X497Y271D01*
X2246Y271D02*
X2259Y271D01*
X485Y270D02*
X498Y270D01*
X2245Y270D02*
X2258Y270D01*
X487Y269D02*
X499Y269D01*
X2244Y269D02*
X2256Y269D01*
X488Y268D02*
X501Y268D01*
X2242Y268D02*
X2255Y268D01*
X489Y267D02*
X502Y267D01*
X2241Y267D02*
X2254Y267D01*
X491Y266D02*
X504Y266D01*
X2239Y266D02*
X2252Y266D01*
X492Y265D02*
X505Y265D01*
X2238Y265D02*
X2251Y265D01*
X494Y264D02*
X507Y264D01*
X2236Y264D02*
X2249Y264D01*
X495Y263D02*
X508Y263D01*
X2235Y263D02*
X2248Y263D01*
X497Y262D02*
X510Y262D01*
X2233Y262D02*
X2246Y262D01*
X498Y261D02*
X511Y261D01*
X2232Y261D02*
X2245Y261D01*
X499Y260D02*
X513Y260D01*
X2230Y260D02*
X2244Y260D01*
X501Y259D02*
X514Y259D01*
X2229Y259D02*
X2242Y259D01*
X502Y258D02*
X516Y258D01*
X2227Y258D02*
X2241Y258D01*
X504Y257D02*
X517Y257D01*
X2226Y257D02*
X2239Y257D01*
X505Y256D02*
X519Y256D01*
X2224Y256D02*
X2238Y256D01*
X507Y255D02*
X520Y255D01*
X2223Y255D02*
X2236Y255D01*
X508Y254D02*
X522Y254D01*
X2221Y254D02*
X2235Y254D01*
X510Y253D02*
X523Y253D01*
X2220Y253D02*
X2233Y253D01*
X511Y252D02*
X525Y252D01*
X2218Y252D02*
X2232Y252D01*
X513Y251D02*
X526Y251D01*
X2217Y251D02*
X2230Y251D01*
X514Y250D02*
X528Y250D01*
X2215Y250D02*
X2229Y250D01*
X516Y249D02*
X529Y249D01*
X2214Y249D02*
X2227Y249D01*
X517Y248D02*
X531Y248D01*
X2212Y248D02*
X2226Y248D01*
X519Y247D02*
X533Y247D01*
X2210Y247D02*
X2224Y247D01*
X520Y246D02*
X534Y246D01*
X2209Y246D02*
X2223Y246D01*
X522Y245D02*
X536Y245D01*
X2207Y245D02*
X2221Y245D01*
X523Y244D02*
X537Y244D01*
X2206Y244D02*
X2219Y244D01*
X525Y243D02*
X539Y243D01*
X2204Y243D02*
X2218Y243D01*
X527Y242D02*
X540Y242D01*
X2203Y242D02*
X2216Y242D01*
X528Y241D02*
X542Y241D01*
X2201Y241D02*
X2215Y241D01*
X530Y240D02*
X544Y240D01*
X2199Y240D02*
X2213Y240D01*
X531Y239D02*
X545Y239D01*
X2198Y239D02*
X2212Y239D01*
X533Y238D02*
X547Y238D01*
X2196Y238D02*
X2210Y238D01*
X534Y237D02*
X548Y237D01*
X2195Y237D02*
X2209Y237D01*
X536Y236D02*
X550Y236D01*
X2193Y236D02*
X2207Y236D01*
X538Y235D02*
X552Y235D01*
X2191Y235D02*
X2205Y235D01*
X539Y234D02*
X553Y234D01*
X2190Y234D02*
X2204Y234D01*
X541Y233D02*
X555Y233D01*
X2188Y233D02*
X2202Y233D01*
X542Y232D02*
X556Y232D01*
X2187Y232D02*
X2201Y232D01*
X544Y231D02*
X558Y231D01*
X2185Y231D02*
X2199Y231D01*
X546Y230D02*
X560Y230D01*
X2183Y230D02*
X2197Y230D01*
X547Y229D02*
X561Y229D01*
X2182Y229D02*
X2196Y229D01*
X549Y228D02*
X563Y228D01*
X2180Y228D02*
X2194Y228D01*
X550Y227D02*
X565Y227D01*
X2178Y227D02*
X2193Y227D01*
X552Y226D02*
X566Y226D01*
X2177Y226D02*
X2191Y226D01*
X554Y225D02*
X568Y225D01*
X2175Y225D02*
X2189Y225D01*
X555Y224D02*
X570Y224D01*
X2173Y224D02*
X2188Y224D01*
X557Y223D02*
X571Y223D01*
X2172Y223D02*
X2186Y223D01*
X559Y222D02*
X573Y222D01*
X2170Y222D02*
X2184Y222D01*
X560Y221D02*
X575Y221D01*
X2168Y221D02*
X2183Y221D01*
X562Y220D02*
X576Y220D01*
X2167Y220D02*
X2181Y220D01*
X564Y219D02*
X578Y219D01*
X2165Y219D02*
X2179Y219D01*
X565Y218D02*
X580Y218D01*
X2163Y218D02*
X2178Y218D01*
X567Y217D02*
X581Y217D01*
X2162Y217D02*
X2176Y217D01*
X569Y216D02*
X583Y216D01*
X2160Y216D02*
X2174Y216D01*
X570Y215D02*
X585Y215D01*
X2158Y215D02*
X2173Y215D01*
X572Y214D02*
X587Y214D01*
X2156Y214D02*
X2171Y214D01*
X574Y213D02*
X588Y213D01*
X2155Y213D02*
X2169Y213D01*
X575Y212D02*
X590Y212D01*
X2153Y212D02*
X2168Y212D01*
X577Y211D02*
X592Y211D01*
X2151Y211D02*
X2166Y211D01*
X579Y210D02*
X594Y210D01*
X2149Y210D02*
X2164Y210D01*
X580Y209D02*
X595Y209D01*
X2148Y209D02*
X2163Y209D01*
X582Y208D02*
X597Y208D01*
X2146Y208D02*
X2161Y208D01*
X584Y207D02*
X599Y207D01*
X2144Y207D02*
X2159Y207D01*
X586Y206D02*
X601Y206D01*
X2142Y206D02*
X2157Y206D01*
X587Y205D02*
X602Y205D01*
X2141Y205D02*
X2156Y205D01*
X589Y204D02*
X604Y204D01*
X2139Y204D02*
X2154Y204D01*
X591Y203D02*
X606Y203D01*
X2137Y203D02*
X2152Y203D01*
X593Y202D02*
X608Y202D01*
X2135Y202D02*
X2150Y202D01*
X594Y201D02*
X609Y201D01*
X2134Y201D02*
X2149Y201D01*
X596Y200D02*
X611Y200D01*
X2132Y200D02*
X2147Y200D01*
X598Y199D02*
X613Y199D01*
X2130Y199D02*
X2145Y199D01*
X600Y198D02*
X615Y198D01*
X2128Y198D02*
X2143Y198D01*
X601Y197D02*
X617Y197D01*
X2126Y197D02*
X2142Y197D01*
X603Y196D02*
X619Y196D01*
X2124Y196D02*
X2140Y196D01*
X605Y195D02*
X620Y195D01*
X2123Y195D02*
X2138Y195D01*
X607Y194D02*
X622Y194D01*
X2121Y194D02*
X2136Y194D01*
X608Y193D02*
X624Y193D01*
X2119Y193D02*
X2135Y193D01*
X610Y192D02*
X626Y192D01*
X2117Y192D02*
X2133Y192D01*
X612Y191D02*
X628Y191D01*
X2115Y191D02*
X2131Y191D01*
X614Y190D02*
X630Y190D01*
X2113Y190D02*
X2129Y190D01*
X616Y189D02*
X631Y189D01*
X2112Y189D02*
X2127Y189D01*
X618Y188D02*
X633Y188D01*
X2110Y188D02*
X2125Y188D01*
X619Y187D02*
X635Y187D01*
X2108Y187D02*
X2123Y187D01*
X621Y186D02*
X637Y186D01*
X2106Y186D02*
X2122Y186D01*
X623Y185D02*
X639Y185D01*
X2104Y185D02*
X2120Y185D01*
X625Y184D02*
X641Y184D01*
X2102Y184D02*
X2118Y184D01*
X627Y183D02*
X643Y183D01*
X2100Y183D02*
X2116Y183D01*
X629Y182D02*
X645Y182D01*
X2098Y182D02*
X2114Y182D01*
X631Y181D02*
X647Y181D01*
X2096Y181D02*
X2112Y181D01*
X632Y180D02*
X649Y180D01*
X2094Y180D02*
X2111Y180D01*
X634Y179D02*
X651Y179D01*
X2092Y179D02*
X2109Y179D01*
X636Y178D02*
X653Y178D01*
X2090Y178D02*
X2107Y178D01*
X638Y177D02*
X655Y177D01*
X2088Y177D02*
X2105Y177D01*
X640Y176D02*
X656Y176D01*
X2087Y176D02*
X2103Y176D01*
X642Y175D02*
X658Y175D01*
X2085Y175D02*
X2101Y175D01*
X644Y174D02*
X660Y174D01*
X2083Y174D02*
X2099Y174D01*
X646Y173D02*
X662Y173D01*
X2081Y173D02*
X2097Y173D01*
X648Y172D02*
X664Y172D01*
X2079Y172D02*
X2095Y172D01*
X650Y171D02*
X666Y171D01*
X2077Y171D02*
X2093Y171D01*
X652Y170D02*
X668Y170D01*
X2075Y170D02*
X2091Y170D01*
X654Y169D02*
X670Y169D01*
X2073Y169D02*
X2089Y169D01*
X656Y168D02*
X672Y168D01*
X2071Y168D02*
X2087Y168D01*
X658Y167D02*
X675Y167D01*
X2068Y167D02*
X2085Y167D01*
X660Y166D02*
X677Y166D01*
X2066Y166D02*
X2083Y166D01*
X662Y165D02*
X679Y165D01*
X2064Y165D02*
X2081Y165D01*
X664Y164D02*
X681Y164D01*
X2062Y164D02*
X2079Y164D01*
X666Y163D02*
X683Y163D01*
X2060Y163D02*
X2077Y163D01*
X668Y162D02*
X685Y162D01*
X2058Y162D02*
X2075Y162D01*
X670Y161D02*
X687Y161D01*
X2056Y161D02*
X2073Y161D01*
X672Y160D02*
X689Y160D01*
X2054Y160D02*
X2071Y160D01*
X674Y159D02*
X691Y159D01*
X2052Y159D02*
X2069Y159D01*
X676Y158D02*
X693Y158D01*
X2050Y158D02*
X2067Y158D01*
X678Y157D02*
X695Y157D01*
X2048Y157D02*
X2065Y157D01*
X680Y156D02*
X697Y156D01*
X2046Y156D02*
X2063Y156D01*
X682Y155D02*
X700Y155D01*
X2043Y155D02*
X2061Y155D01*
X684Y154D02*
X702Y154D01*
X2041Y154D02*
X2059Y154D01*
X686Y153D02*
X704Y153D01*
X2039Y153D02*
X2057Y153D01*
X688Y152D02*
X706Y152D01*
X2037Y152D02*
X2055Y152D01*
X690Y151D02*
X708Y151D01*
X2035Y151D02*
X2053Y151D01*
X692Y150D02*
X710Y150D01*
X2033Y150D02*
X2051Y150D01*
X695Y149D02*
X713Y149D01*
X2030Y149D02*
X2048Y149D01*
X697Y148D02*
X715Y148D01*
X2028Y148D02*
X2046Y148D01*
X699Y147D02*
X717Y147D01*
X2026Y147D02*
X2044Y147D01*
X701Y146D02*
X719Y146D01*
X2024Y146D02*
X2042Y146D01*
X703Y145D02*
X721Y145D01*
X2022Y145D02*
X2040Y145D01*
X705Y144D02*
X724Y144D01*
X2019Y144D02*
X2037Y144D01*
X708Y143D02*
X726Y143D01*
X2017Y143D02*
X2035Y143D01*
X710Y142D02*
X728Y142D01*
X2015Y142D02*
X2033Y142D01*
X712Y141D02*
X730Y141D01*
X2013Y141D02*
X2031Y141D01*
X714Y140D02*
X733Y140D01*
X2010Y140D02*
X2029Y140D01*
X716Y139D02*
X735Y139D01*
X2008Y139D02*
X2027Y139D01*
X719Y138D02*
X737Y138D01*
X2006Y138D02*
X2024Y138D01*
X721Y137D02*
X740Y137D01*
X2003Y137D02*
X2022Y137D01*
X723Y136D02*
X742Y136D01*
X2001Y136D02*
X2020Y136D01*
X725Y135D02*
X744Y135D01*
X1999Y135D02*
X2018Y135D01*
X728Y134D02*
X746Y134D01*
X1996Y134D02*
X2015Y134D01*
X730Y133D02*
X749Y133D01*
X1994Y133D02*
X2013Y133D01*
X732Y132D02*
X751Y132D01*
X1992Y132D02*
X2011Y132D01*
X735Y131D02*
X754Y131D01*
X1989Y131D02*
X2008Y131D01*
X737Y130D02*
X756Y130D01*
X1987Y130D02*
X2006Y130D01*
X739Y129D02*
X758Y129D01*
X1985Y129D02*
X2004Y129D01*
X741Y128D02*
X761Y128D01*
X1982Y128D02*
X2001Y128D01*
X744Y127D02*
X763Y127D01*
X1980Y127D02*
X1999Y127D01*
X746Y126D02*
X766Y126D01*
X1977Y126D02*
X1997Y126D01*
X748Y125D02*
X768Y125D01*
X1975Y125D02*
X1995Y125D01*
X751Y124D02*
X771Y124D01*
X1972Y124D02*
X1992Y124D01*
X753Y123D02*
X773Y123D01*
X1970Y123D02*
X1990Y123D01*
X756Y122D02*
X776Y122D01*
X1967Y122D02*
X1987Y122D01*
X758Y121D02*
X778Y121D01*
X1965Y121D02*
X1985Y121D01*
X761Y120D02*
X781Y120D01*
X1962Y120D02*
X1982Y120D01*
X763Y119D02*
X783Y119D01*
X1960Y119D02*
X1980Y119D01*
X766Y118D02*
X786Y118D01*
X1957Y118D02*
X1977Y118D01*
X768Y117D02*
X788Y117D01*
X1955Y117D02*
X1975Y117D01*
X770Y116D02*
X791Y116D01*
X1952Y116D02*
X1973Y116D01*
X773Y115D02*
X793Y115D01*
X1950Y115D02*
X1970Y115D01*
X775Y114D02*
X796Y114D01*
X1947Y114D02*
X1968Y114D01*
X778Y113D02*
X799Y113D01*
X1944Y113D02*
X1965Y113D01*
X780Y112D02*
X801Y112D01*
X1942Y112D02*
X1963Y112D01*
X783Y111D02*
X804Y111D01*
X1939Y111D02*
X1960Y111D01*
X786Y110D02*
X806Y110D01*
X1937Y110D02*
X1957Y110D01*
X788Y109D02*
X809Y109D01*
X1934Y109D02*
X1955Y109D01*
X791Y108D02*
X812Y108D01*
X1931Y108D02*
X1952Y108D01*
X793Y107D02*
X815Y107D01*
X1928Y107D02*
X1950Y107D01*
X796Y106D02*
X817Y106D01*
X1926Y106D02*
X1947Y106D01*
X798Y105D02*
X820Y105D01*
X1923Y105D02*
X1944Y105D01*
X801Y104D02*
X823Y104D01*
X1920Y104D02*
X1942Y104D01*
X804Y103D02*
X826Y103D01*
X1917Y103D02*
X1939Y103D01*
X806Y102D02*
X828Y102D01*
X1915Y102D02*
X1937Y102D01*
X809Y101D02*
X831Y101D01*
X1912Y101D02*
X1934Y101D01*
X812Y100D02*
X834Y100D01*
X1909Y100D02*
X1931Y100D01*
X815Y99D02*
X837Y99D01*
X1906Y99D02*
X1928Y99D01*
X817Y98D02*
X840Y98D01*
X1903Y98D02*
X1926Y98D01*
X820Y97D02*
X842Y97D01*
X1901Y97D02*
X1923Y97D01*
X823Y96D02*
X845Y96D01*
X1898Y96D02*
X1920Y96D01*
X826Y95D02*
X848Y95D01*
X1895Y95D02*
X1917Y95D01*
X828Y94D02*
X851Y94D01*
X1892Y94D02*
X1915Y94D01*
X831Y93D02*
X854Y93D01*
X1889Y93D02*
X1912Y93D01*
X834Y92D02*
X857Y92D01*
X1886Y92D02*
X1909Y92D01*
X837Y91D02*
X860Y91D01*
X1883Y91D02*
X1906Y91D01*
X840Y90D02*
X863Y90D01*
X1880Y90D02*
X1903Y90D01*
X843Y89D02*
X866Y89D01*
X1877Y89D02*
X1900Y89D01*
X845Y88D02*
X869Y88D01*
X1874Y88D02*
X1898Y88D01*
X848Y87D02*
X872Y87D01*
X1871Y87D02*
X1895Y87D01*
X851Y86D02*
X875Y86D01*
X1868Y86D02*
X1892Y86D01*
X854Y85D02*
X879Y85D01*
X1864Y85D02*
X1889Y85D01*
X857Y84D02*
X882Y84D01*
X1861Y84D02*
X1886Y84D01*
X860Y83D02*
X885Y83D01*
X1858Y83D02*
X1883Y83D01*
X863Y82D02*
X888Y82D01*
X1855Y82D02*
X1880Y82D01*
X866Y81D02*
X891Y81D01*
X1852Y81D02*
X1877Y81D01*
X869Y80D02*
X895Y80D01*
X1848Y80D02*
X1874Y80D01*
X872Y79D02*
X898Y79D01*
X1845Y79D02*
X1871Y79D01*
X876Y78D02*
X901Y78D01*
X1842Y78D02*
X1867Y78D01*
X879Y77D02*
X904Y77D01*
X1839Y77D02*
X1864Y77D01*
X882Y76D02*
X908Y76D01*
X1835Y76D02*
X1861Y76D01*
X885Y75D02*
X911Y75D01*
X1832Y75D02*
X1858Y75D01*
X888Y74D02*
X915Y74D01*
X1828Y74D02*
X1855Y74D01*
X892Y73D02*
X918Y73D01*
X1825Y73D02*
X1851Y73D01*
X895Y72D02*
X922Y72D01*
X1821Y72D02*
X1848Y72D01*
X898Y71D02*
X925Y71D01*
X1818Y71D02*
X1845Y71D01*
X901Y70D02*
X928Y70D01*
X1815Y70D02*
X1842Y70D01*
X905Y69D02*
X932Y69D01*
X1811Y69D02*
X1838Y69D01*
X908Y68D02*
X935Y68D01*
X1808Y68D02*
X1835Y68D01*
X911Y67D02*
X939Y67D01*
X1804Y67D02*
X1832Y67D01*
X915Y66D02*
X943Y66D01*
X1800Y66D02*
X1828Y66D01*
X918Y65D02*
X947Y65D01*
X1796Y65D02*
X1825Y65D01*
X922Y64D02*
X950Y64D01*
X1793Y64D02*
X1821Y64D01*
X925Y63D02*
X954Y63D01*
X1789Y63D02*
X1818Y63D01*
X929Y62D02*
X958Y62D01*
X1785Y62D02*
X1814Y62D01*
X932Y61D02*
X962Y61D01*
X1781Y61D02*
X1811Y61D01*
X936Y60D02*
X965Y60D01*
X1778Y60D02*
X1807Y60D01*
X940Y59D02*
X969Y59D01*
X1774Y59D02*
X1803Y59D01*
X943Y58D02*
X974Y58D01*
X1769Y58D02*
X1800Y58D01*
X947Y57D02*
X978Y57D01*
X1765Y57D02*
X1796Y57D01*
X951Y56D02*
X982Y56D01*
X1761Y56D02*
X1792Y56D01*
X955Y55D02*
X986Y55D01*
X1757Y55D02*
X1788Y55D01*
X958Y54D02*
X990Y54D01*
X1753Y54D02*
X1785Y54D01*
X962Y53D02*
X994Y53D01*
X1749Y53D02*
X1781Y53D01*
X966Y52D02*
X998Y52D01*
X1745Y52D02*
X1777Y52D01*
X970Y51D02*
X1003Y51D01*
X1740Y51D02*
X1773Y51D01*
X974Y50D02*
X1007Y50D01*
X1736Y50D02*
X1769Y50D01*
X978Y49D02*
X1012Y49D01*
X1731Y49D02*
X1765Y49D01*
X982Y48D02*
X1016Y48D01*
X1727Y48D02*
X1761Y48D01*
X986Y47D02*
X1020Y47D01*
X1723Y47D02*
X1757Y47D01*
X990Y46D02*
X1025Y46D01*
X1718Y46D02*
X1753Y46D01*
X994Y45D02*
X1029Y45D01*
X1714Y45D02*
X1749Y45D01*
X999Y44D02*
X1034Y44D01*
X1709Y44D02*
X1744Y44D01*
X1003Y43D02*
X1039Y43D01*
X1704Y43D02*
X1740Y43D01*
X1008Y42D02*
X1044Y42D01*
X1699Y42D02*
X1735Y42D01*
X1012Y41D02*
X1049Y41D01*
X1694Y41D02*
X1731Y41D01*
X1017Y40D02*
X1054Y40D01*
X1689Y40D02*
X1726Y40D01*
X1021Y39D02*
X1059Y39D01*
X1684Y39D02*
X1722Y39D01*
X1025Y38D02*
X1064Y38D01*
X1679Y38D02*
X1718Y38D01*
X1030Y37D02*
X1070Y37D01*
X1673Y37D02*
X1713Y37D01*
X1035Y36D02*
X1075Y36D01*
X1668Y36D02*
X1708Y36D01*
X1040Y35D02*
X1081Y35D01*
X1662Y35D02*
X1703Y35D01*
X1045Y34D02*
X1087Y34D01*
X1656Y34D02*
X1698Y34D01*
X1050Y33D02*
X1092Y33D01*
X1651Y33D02*
X1693Y33D01*
X1055Y32D02*
X1098Y32D01*
X1645Y32D02*
X1688Y32D01*
X1060Y31D02*
X1104Y31D01*
X1639Y31D02*
X1683Y31D01*
X1065Y30D02*
X1111Y30D01*
X1632Y30D02*
X1678Y30D01*
X1071Y29D02*
X1117Y29D01*
X1626Y29D02*
X1672Y29D01*
X1076Y28D02*
X1123Y28D01*
X1620Y28D02*
X1667Y28D01*
X1082Y27D02*
X1130Y27D01*
X1613Y27D02*
X1661Y27D01*
X1087Y26D02*
X1137Y26D01*
X1606Y26D02*
X1656Y26D01*
X1093Y25D02*
X1144Y25D01*
X1599Y25D02*
X1650Y25D01*
X1099Y24D02*
X1152Y24D01*
X1591Y24D02*
X1644Y24D01*
X1105Y23D02*
X1159Y23D01*
X1584Y23D02*
X1638Y23D01*
X1111Y22D02*
X1167Y22D01*
X1576Y22D02*
X1632Y22D01*
X1118Y21D02*
X1176Y21D01*
X1567Y21D02*
X1625Y21D01*
X1124Y20D02*
X1184Y20D01*
X1559Y20D02*
X1619Y20D01*
X1131Y19D02*
X1193Y19D01*
X1550Y19D02*
X1612Y19D01*
X1138Y18D02*
X1203Y18D01*
X1540Y18D02*
X1605Y18D01*
X1145Y17D02*
X1213Y17D01*
X1530Y17D02*
X1598Y17D01*
X1153Y16D02*
X1224Y16D01*
X1519Y16D02*
X1590Y16D01*
X1160Y15D02*
X1236Y15D01*
X1507Y15D02*
X1583Y15D01*
X1168Y14D02*
X1249Y14D01*
X1494Y14D02*
X1575Y14D01*
X1177Y13D02*
X1263Y13D01*
X1480Y13D02*
X1566Y13D01*
X1185Y12D02*
X1281Y12D01*
X1462Y12D02*
X1558Y12D01*
X1194Y11D02*
X1300Y11D01*
X1443Y11D02*
X1549Y11D01*
X1204Y10D02*
X1331Y10D01*
X1412Y10D02*
X1539Y10D01*
X1214Y9D02*
X1529Y9D01*
X1225Y8D02*
X1518Y8D01*
X1237Y7D02*
X1506Y7D01*
X1250Y6D02*
X1493Y6D01*
X1264Y5D02*
X1479Y5D01*
X1282Y4D02*
X1461Y4D01*
X1301Y3D02*
X1442Y3D01*
X1332Y2D02*
X1411Y2D01*
D02*
G04 End of Silk0*
M02*