G04 MADE WITH FRITZING*
G04 WWW.FRITZING.ORG*
G04 SINGLE SIDED*
G04 HOLES NOT PLATED*
G04 CONTOUR ON CENTER OF CONTOUR VECTOR*
%ASAXBY*%
%FSLAX23Y23*%
%MOIN*%
%OFA0B0*%
%SFA1.0B1.0*%
%ADD10C,0.008*%
%LNCONTOUR*%
G90*
G70*
G54D10*
X1332Y2266D02*
X1333Y2266D01*
X1334Y2266D01*
X1335Y2266D01*
X1336Y2266D01*
X1337Y2266D01*
X1338Y2266D01*
X1339Y2266D01*
X1340Y2266D01*
X1341Y2266D01*
X1342Y2266D01*
X1343Y2266D01*
X1344Y2266D01*
X1345Y2266D01*
X1346Y2266D01*
X1347Y2266D01*
X1348Y2266D01*
X1349Y2266D01*
X1350Y2266D01*
X1351Y2266D01*
X1352Y2266D01*
X1353Y2266D01*
X1354Y2266D01*
X1355Y2266D01*
X1356Y2266D01*
X1357Y2266D01*
X1358Y2266D01*
X1359Y2266D01*
X1360Y2266D01*
X1361Y2266D01*
X1362Y2266D01*
X1363Y2266D01*
X1364Y2266D01*
X1365Y2266D01*
X1366Y2266D01*
X1367Y2266D01*
X1368Y2266D01*
X1369Y2266D01*
X1370Y2266D01*
X1371Y2266D01*
X1372Y2266D01*
X1373Y2266D01*
X1374Y2266D01*
X1375Y2266D01*
X1376Y2266D01*
X1377Y2266D01*
X1378Y2266D01*
X1379Y2266D01*
X1380Y2266D01*
X1381Y2266D01*
X1382Y2266D01*
X1383Y2266D01*
X1384Y2266D01*
X1385Y2266D01*
X1386Y2266D01*
X1387Y2266D01*
X1388Y2266D01*
X1389Y2266D01*
X1390Y2266D01*
X1391Y2266D01*
X1392Y2266D01*
X1393Y2266D01*
X1394Y2266D01*
X1395Y2266D01*
X1396Y2266D01*
X1397Y2266D01*
X1398Y2266D01*
X1399Y2266D01*
X1400Y2266D01*
X1401Y2266D01*
X1402Y2266D01*
X1403Y2266D01*
X1404Y2266D01*
X1405Y2266D01*
X1406Y2266D01*
X1407Y2266D01*
X1408Y2266D01*
X1409Y2266D01*
X1410Y2266D01*
X1411Y2266D01*
X1412Y2265D01*
X1413Y2265D01*
X1414Y2265D01*
X1415Y2265D01*
X1416Y2265D01*
X1417Y2265D01*
X1418Y2265D01*
X1419Y2265D01*
X1420Y2265D01*
X1421Y2265D01*
X1422Y2265D01*
X1423Y2265D01*
X1424Y2265D01*
X1425Y2265D01*
X1426Y2265D01*
X1427Y2265D01*
X1428Y2265D01*
X1429Y2265D01*
X1430Y2265D01*
X1431Y2265D01*
X1432Y2265D01*
X1433Y2265D01*
X1434Y2265D01*
X1435Y2265D01*
X1436Y2265D01*
X1437Y2265D01*
X1438Y2265D01*
X1439Y2265D01*
X1440Y2265D01*
X1441Y2265D01*
X1442Y2265D01*
X1443Y2264D01*
X1444Y2264D01*
X1445Y2264D01*
X1446Y2264D01*
X1447Y2264D01*
X1448Y2264D01*
X1449Y2264D01*
X1450Y2264D01*
X1451Y2264D01*
X1452Y2264D01*
X1453Y2264D01*
X1454Y2264D01*
X1455Y2264D01*
X1456Y2264D01*
X1457Y2264D01*
X1458Y2264D01*
X1459Y2264D01*
X1460Y2264D01*
X1461Y2264D01*
X1462Y2263D01*
X1463Y2263D01*
X1464Y2263D01*
X1465Y2263D01*
X1466Y2263D01*
X1467Y2263D01*
X1468Y2263D01*
X1469Y2263D01*
X1470Y2263D01*
X1471Y2263D01*
X1472Y2263D01*
X1473Y2263D01*
X1474Y2263D01*
X1475Y2263D01*
X1476Y2263D01*
X1477Y2263D01*
X1478Y2263D01*
X1479Y2263D01*
X1480Y2262D01*
X1481Y2262D01*
X1482Y2262D01*
X1483Y2262D01*
X1484Y2262D01*
X1485Y2262D01*
X1486Y2262D01*
X1487Y2262D01*
X1488Y2262D01*
X1489Y2262D01*
X1490Y2262D01*
X1491Y2262D01*
X1492Y2262D01*
X1493Y2262D01*
X1494Y2261D01*
X1495Y2261D01*
X1496Y2261D01*
X1497Y2261D01*
X1498Y2261D01*
X1499Y2261D01*
X1500Y2261D01*
X1501Y2261D01*
X1502Y2261D01*
X1503Y2261D01*
X1504Y2261D01*
X1505Y2261D01*
X1506Y2261D01*
X1507Y2261D01*
X1508Y2260D01*
X1509Y2260D01*
X1510Y2260D01*
X1511Y2260D01*
X1512Y2260D01*
X1513Y2260D01*
X1514Y2260D01*
X1515Y2260D01*
X1516Y2260D01*
X1517Y2260D01*
X1518Y2260D01*
X1519Y2259D01*
X1520Y2259D01*
X1521Y2259D01*
X1522Y2259D01*
X1523Y2259D01*
X1524Y2259D01*
X1525Y2259D01*
X1526Y2259D01*
X1527Y2259D01*
X1528Y2259D01*
X1529Y2259D01*
X1530Y2258D01*
X1531Y2258D01*
X1532Y2258D01*
X1533Y2258D01*
X1534Y2258D01*
X1535Y2258D01*
X1536Y2258D01*
X1537Y2258D01*
X1538Y2258D01*
X1539Y2258D01*
X1540Y2257D01*
X1541Y2257D01*
X1542Y2257D01*
X1543Y2257D01*
X1544Y2257D01*
X1545Y2257D01*
X1546Y2257D01*
X1547Y2257D01*
X1548Y2257D01*
X1549Y2257D01*
X1550Y2256D01*
X1551Y2256D01*
X1552Y2256D01*
X1553Y2256D01*
X1554Y2256D01*
X1555Y2256D01*
X1556Y2256D01*
X1557Y2256D01*
X1558Y2256D01*
X1559Y2255D01*
X1560Y2255D01*
X1561Y2255D01*
X1562Y2255D01*
X1563Y2255D01*
X1564Y2255D01*
X1565Y2255D01*
X1566Y2255D01*
X1567Y2254D01*
X1568Y2254D01*
X1569Y2254D01*
X1570Y2254D01*
X1571Y2254D01*
X1572Y2254D01*
X1573Y2254D01*
X1574Y2254D01*
X1575Y2254D01*
X1576Y2253D01*
X1577Y2253D01*
X1578Y2253D01*
X1579Y2253D01*
X1580Y2253D01*
X1581Y2253D01*
X1582Y2253D01*
X1583Y2253D01*
X1584Y2252D01*
X1585Y2252D01*
X1586Y2252D01*
X1587Y2252D01*
X1588Y2252D01*
X1589Y2252D01*
X1590Y2252D01*
X1591Y2251D01*
X1592Y2251D01*
X1593Y2251D01*
X1594Y2251D01*
X1595Y2251D01*
X1596Y2251D01*
X1597Y2251D01*
X1598Y2251D01*
X1599Y2250D01*
X1600Y2250D01*
X1601Y2250D01*
X1602Y2250D01*
X1603Y2250D01*
X1604Y2250D01*
X1605Y2250D01*
X1606Y2249D01*
X1607Y2249D01*
X1608Y2249D01*
X1609Y2249D01*
X1610Y2249D01*
X1611Y2249D01*
X1612Y2249D01*
X1613Y2248D01*
X1614Y2248D01*
X1615Y2248D01*
X1616Y2248D01*
X1617Y2248D01*
X1618Y2248D01*
X1619Y2248D01*
X1620Y2247D01*
X1621Y2247D01*
X1622Y2247D01*
X1623Y2247D01*
X1624Y2247D01*
X1625Y2247D01*
X1626Y2246D01*
X1627Y2246D01*
X1628Y2246D01*
X1629Y2246D01*
X1630Y2246D01*
X1631Y2246D01*
X1632Y2245D01*
X1633Y2245D01*
X1634Y2245D01*
X1635Y2245D01*
X1636Y2245D01*
X1637Y2245D01*
X1638Y2245D01*
X1639Y2244D01*
X1640Y2244D01*
X1641Y2244D01*
X1642Y2244D01*
X1643Y2244D01*
X1644Y2244D01*
X1645Y2243D01*
X1646Y2243D01*
X1647Y2243D01*
X1648Y2243D01*
X1649Y2243D01*
X1650Y2243D01*
X1651Y2242D01*
X1652Y2242D01*
X1653Y2242D01*
X1654Y2242D01*
X1655Y2242D01*
X1656Y2242D01*
X1657Y2241D01*
X1658Y2241D01*
X1659Y2241D01*
X1660Y2241D01*
X1661Y2241D01*
X1662Y2240D01*
X1663Y2240D01*
X1664Y2240D01*
X1665Y2240D01*
X1666Y2240D01*
X1667Y2240D01*
X1668Y2239D01*
X1669Y2239D01*
X1670Y2239D01*
X1671Y2239D01*
X1672Y2239D01*
X1673Y2238D01*
X1674Y2238D01*
X1675Y2238D01*
X1676Y2238D01*
X1677Y2238D01*
X1678Y2238D01*
X1679Y2237D01*
X1680Y2237D01*
X1681Y2237D01*
X1682Y2237D01*
X1683Y2237D01*
X1684Y2236D01*
X1685Y2236D01*
X1686Y2236D01*
X1687Y2236D01*
X1688Y2236D01*
X1689Y2235D01*
X1690Y2235D01*
X1691Y2235D01*
X1692Y2235D01*
X1693Y2235D01*
X1694Y2234D01*
X1695Y2234D01*
X1696Y2234D01*
X1697Y2234D01*
X1698Y2234D01*
X1699Y2233D01*
X1700Y2233D01*
X1701Y2233D01*
X1702Y2233D01*
X1703Y2233D01*
X1704Y2232D01*
X1705Y2232D01*
X1706Y2232D01*
X1707Y2232D01*
X1708Y2232D01*
X1709Y2231D01*
X1710Y2231D01*
X1711Y2231D01*
X1712Y2231D01*
X1713Y2231D01*
X1714Y2230D01*
X1715Y2230D01*
X1716Y2230D01*
X1717Y2230D01*
X1718Y2229D01*
X1719Y2229D01*
X1720Y2229D01*
X1721Y2229D01*
X1722Y2229D01*
X1723Y2228D01*
X1724Y2228D01*
X1725Y2228D01*
X1726Y2228D01*
X1727Y2227D01*
X1728Y2227D01*
X1729Y2227D01*
X1730Y2227D01*
X1731Y2227D01*
X1732Y2226D01*
X1733Y2226D01*
X1734Y2226D01*
X1735Y2226D01*
X1736Y2225D01*
X1737Y2225D01*
X1738Y2225D01*
X1739Y2225D01*
X1740Y2225D01*
X1741Y2224D01*
X1742Y2224D01*
X1743Y2224D01*
X1744Y2224D01*
X1745Y2223D01*
X1746Y2223D01*
X1747Y2223D01*
X1748Y2223D01*
X1749Y2223D01*
X1750Y2222D01*
X1751Y2222D01*
X1752Y2222D01*
X1753Y2222D01*
X1754Y2221D01*
X1755Y2221D01*
X1756Y2221D01*
X1757Y2221D01*
X1758Y2220D01*
X1759Y2220D01*
X1760Y2220D01*
X1761Y2220D01*
X1762Y2219D01*
X1763Y2219D01*
X1764Y2219D01*
X1765Y2219D01*
X1766Y2218D01*
X1767Y2218D01*
X1768Y2218D01*
X1769Y2218D01*
X1770Y2217D01*
X1771Y2217D01*
X1772Y2217D01*
X1773Y2217D01*
X1774Y2216D01*
X1775Y2216D01*
X1776Y2216D01*
X1777Y2216D01*
X1778Y2215D01*
X1779Y2215D01*
X1780Y2215D01*
X1781Y2215D01*
X1782Y2214D01*
X1783Y2214D01*
X1784Y2214D01*
X1785Y2214D01*
X1786Y2213D01*
X1787Y2213D01*
X1788Y2213D01*
X1789Y2212D01*
X1790Y2212D01*
X1791Y2212D01*
X1792Y2212D01*
X1793Y2211D01*
X1794Y2211D01*
X1795Y2211D01*
X1796Y2211D01*
X1797Y2210D01*
X1798Y2210D01*
X1799Y2210D01*
X1800Y2210D01*
X1801Y2209D01*
X1802Y2209D01*
X1803Y2209D01*
X1804Y2208D01*
X1805Y2208D01*
X1806Y2208D01*
X1807Y2208D01*
X1808Y2207D01*
X1809Y2207D01*
X1810Y2207D01*
X1811Y2207D01*
X1812Y2206D01*
X1813Y2206D01*
X1814Y2206D01*
X1815Y2205D01*
X1816Y2205D01*
X1817Y2205D01*
X1818Y2205D01*
X1819Y2204D01*
X1820Y2204D01*
X1821Y2204D01*
X1822Y2203D01*
X1823Y2203D01*
X1824Y2203D01*
X1825Y2203D01*
X1826Y2202D01*
X1827Y2202D01*
X1828Y2202D01*
X1829Y2201D01*
X1830Y2201D01*
X1831Y2201D01*
X1832Y2201D01*
X1833Y2200D01*
X1834Y2200D01*
X1835Y2200D01*
X1836Y2199D01*
X1837Y2199D01*
X1838Y2199D01*
X1839Y2198D01*
X1840Y2198D01*
X1841Y2198D01*
X1842Y2198D01*
X1843Y2197D01*
X1844Y2197D01*
X1845Y2197D01*
X1846Y2196D01*
X1847Y2196D01*
X1848Y2196D01*
X1849Y2195D01*
X1850Y2195D01*
X1851Y2195D01*
X1852Y2194D01*
X1853Y2194D01*
X1854Y2194D01*
X1855Y2194D01*
X1856Y2193D01*
X1857Y2193D01*
X1858Y2193D01*
X1859Y2192D01*
X1860Y2192D01*
X1861Y2192D01*
X1862Y2191D01*
X1863Y2191D01*
X1864Y2191D01*
X1865Y2190D01*
X1866Y2190D01*
X1867Y2190D01*
X1868Y2189D01*
X1869Y2189D01*
X1870Y2189D01*
X1871Y2189D01*
X1872Y2188D01*
X1873Y2188D01*
X1874Y2188D01*
X1875Y2187D01*
X1876Y2187D01*
X1877Y2187D01*
X1878Y2186D01*
X1879Y2186D01*
X1880Y2186D01*
X1881Y2185D01*
X1882Y2185D01*
X1883Y2185D01*
X1884Y2184D01*
X1885Y2184D01*
X1886Y2184D01*
X1887Y2183D01*
X1888Y2183D01*
X1889Y2183D01*
X1890Y2182D01*
X1891Y2182D01*
X1892Y2182D01*
X1893Y2181D01*
X1894Y2181D01*
X1895Y2181D01*
X1896Y2180D01*
X1897Y2180D01*
X1898Y2179D01*
X1899Y2179D01*
X1900Y2179D01*
X1901Y2178D01*
X1902Y2178D01*
X1903Y2178D01*
X1904Y2177D01*
X1905Y2177D01*
X1906Y2177D01*
X1907Y2176D01*
X1908Y2176D01*
X1909Y2176D01*
X1910Y2175D01*
X1911Y2175D01*
X1912Y2175D01*
X1913Y2174D01*
X1914Y2174D01*
X1915Y2174D01*
X1916Y2173D01*
X1917Y2173D01*
X1918Y2172D01*
X1919Y2172D01*
X1920Y2172D01*
X1921Y2171D01*
X1922Y2171D01*
X1923Y2171D01*
X1924Y2170D01*
X1925Y2170D01*
X1926Y2170D01*
X1927Y2169D01*
X1928Y2169D01*
X1929Y2168D01*
X1930Y2168D01*
X1931Y2168D01*
X1932Y2167D01*
X1933Y2167D01*
X1934Y2167D01*
X1935Y2166D01*
X1936Y2166D01*
X1937Y2166D01*
X1938Y2165D01*
X1939Y2165D01*
X1940Y2164D01*
X1941Y2164D01*
X1942Y2164D01*
X1943Y2163D01*
X1944Y2163D01*
X1945Y2162D01*
X1946Y2162D01*
X1947Y2162D01*
X1948Y2161D01*
X1949Y2161D01*
X1950Y2161D01*
X1951Y2160D01*
X1952Y2160D01*
X1953Y2159D01*
X1954Y2159D01*
X1955Y2159D01*
X1956Y2158D01*
X1957Y2158D01*
X1958Y2157D01*
X1959Y2157D01*
X1960Y2157D01*
X1961Y2156D01*
X1962Y2156D01*
X1963Y2156D01*
X1964Y2155D01*
X1965Y2155D01*
X1966Y2154D01*
X1967Y2154D01*
X1968Y2154D01*
X1969Y2153D01*
X1970Y2153D01*
X1971Y2152D01*
X1972Y2152D01*
X1973Y2152D01*
X1974Y2151D01*
X1975Y2151D01*
X1976Y2150D01*
X1977Y2150D01*
X1978Y2149D01*
X1979Y2149D01*
X1980Y2149D01*
X1981Y2148D01*
X1982Y2148D01*
X1983Y2147D01*
X1984Y2147D01*
X1985Y2147D01*
X1986Y2146D01*
X1987Y2146D01*
X1988Y2145D01*
X1989Y2145D01*
X1990Y2145D01*
X1991Y2144D01*
X1992Y2144D01*
X1993Y2143D01*
X1994Y2143D01*
X1995Y2143D01*
X1996Y2142D01*
X1997Y2142D01*
X1998Y2141D01*
X1999Y2141D01*
X2000Y2140D01*
X2001Y2140D01*
X2002Y2139D01*
X2003Y2139D01*
X2004Y2139D01*
X2005Y2138D01*
X2006Y2138D01*
X2007Y2137D01*
X2008Y2137D01*
X2009Y2136D01*
X2010Y2136D01*
X2011Y2136D01*
X2012Y2135D01*
X2013Y2135D01*
X2014Y2134D01*
X2015Y2134D01*
X2016Y2133D01*
X2017Y2133D01*
X2018Y2133D01*
X2019Y2132D01*
X2020Y2132D01*
X2021Y2131D01*
X2022Y2131D01*
X2023Y2130D01*
X2024Y2130D01*
X2025Y2129D01*
X2026Y2129D01*
X2027Y2129D01*
X2028Y2128D01*
X2029Y2128D01*
X2030Y2127D01*
X2031Y2127D01*
X2032Y2126D01*
X2033Y2126D01*
X2034Y2125D01*
X2035Y2125D01*
X2036Y2124D01*
X2037Y2124D01*
X2038Y2123D01*
X2039Y2123D01*
X2040Y2123D01*
X2041Y2122D01*
X2042Y2122D01*
X2043Y2121D01*
X2044Y2121D01*
X2045Y2120D01*
X2046Y2120D01*
X2047Y2119D01*
X2048Y2119D01*
X2049Y2118D01*
X2050Y2118D01*
X2051Y2118D01*
X2052Y2117D01*
X2053Y2117D01*
X2054Y2116D01*
X2055Y2116D01*
X2056Y2115D01*
X2057Y2115D01*
X2058Y2114D01*
X2059Y2114D01*
X2060Y2113D01*
X2061Y2113D01*
X2062Y2112D01*
X2063Y2112D01*
X2064Y2111D01*
X2065Y2111D01*
X2066Y2110D01*
X2067Y2110D01*
X2068Y2109D01*
X2069Y2109D01*
X2070Y2108D01*
X2071Y2108D01*
X2072Y2107D01*
X2073Y2107D01*
X2074Y2106D01*
X2075Y2106D01*
X2076Y2105D01*
X2077Y2105D01*
X2078Y2104D01*
X2079Y2104D01*
X2080Y2103D01*
X2081Y2103D01*
X2082Y2102D01*
X2083Y2102D01*
X2084Y2101D01*
X2085Y2101D01*
X2086Y2100D01*
X2087Y2100D01*
X2088Y2099D01*
X2089Y2099D01*
X2090Y2098D01*
X2091Y2098D01*
X2092Y2097D01*
X2093Y2097D01*
X2094Y2096D01*
X2095Y2096D01*
X2096Y2095D01*
X2097Y2095D01*
X2098Y2094D01*
X2099Y2094D01*
X2100Y2093D01*
X2101Y2093D01*
X2102Y2092D01*
X2103Y2092D01*
X2104Y2091D01*
X2105Y2091D01*
X2106Y2090D01*
X2107Y2090D01*
X2108Y2089D01*
X2109Y2089D01*
X2110Y2088D01*
X2111Y2088D01*
X2112Y2087D01*
X2113Y2086D01*
X2114Y2086D01*
X2115Y2085D01*
X2116Y2085D01*
X2117Y2084D01*
X2118Y2084D01*
X2119Y2083D01*
X2120Y2083D01*
X2121Y2082D01*
X2122Y2082D01*
X2123Y2081D01*
X2124Y2080D01*
X2125Y2080D01*
X2126Y2079D01*
X2127Y2079D01*
X2128Y2078D01*
X2129Y2078D01*
X2130Y2077D01*
X2131Y2077D01*
X2132Y2076D01*
X2133Y2076D01*
X2134Y2075D01*
X2135Y2075D01*
X2136Y2074D01*
X2137Y2073D01*
X2138Y2073D01*
X2139Y2072D01*
X2140Y2072D01*
X2141Y2071D01*
X2142Y2071D01*
X2143Y2070D01*
X2144Y2069D01*
X2145Y2069D01*
X2146Y2068D01*
X2147Y2068D01*
X2148Y2067D01*
X2149Y2067D01*
X2150Y2066D01*
X2151Y2065D01*
X2152Y2065D01*
X2153Y2064D01*
X2154Y2064D01*
X2155Y2063D01*
X2156Y2063D01*
X2157Y2062D01*
X2158Y2061D01*
X2159Y2061D01*
X2160Y2060D01*
X2161Y2060D01*
X2162Y2059D01*
X2163Y2059D01*
X2164Y2058D01*
X2165Y2057D01*
X2166Y2057D01*
X2167Y2056D01*
X2168Y2056D01*
X2169Y2055D01*
X2170Y2054D01*
X2171Y2054D01*
X2172Y2053D01*
X2173Y2053D01*
X2174Y2052D01*
X2175Y2051D01*
X2176Y2051D01*
X2177Y2050D01*
X2178Y2050D01*
X2179Y2049D01*
X2180Y2048D01*
X2181Y2048D01*
X2182Y2047D01*
X2183Y2047D01*
X2184Y2046D01*
X2185Y2045D01*
X2186Y2045D01*
X2187Y2044D01*
X2188Y2044D01*
X2189Y2043D01*
X2190Y2042D01*
X2191Y2042D01*
X2192Y2041D01*
X2193Y2041D01*
X2194Y2040D01*
X2195Y2039D01*
X2196Y2039D01*
X2197Y2038D01*
X2198Y2037D01*
X2199Y2037D01*
X2200Y2036D01*
X2201Y2036D01*
X2202Y2035D01*
X2203Y2034D01*
X2204Y2034D01*
X2205Y2033D01*
X2206Y2032D01*
X2207Y2032D01*
X2208Y2031D01*
X2209Y2030D01*
X2210Y2030D01*
X2211Y2029D01*
X2212Y2029D01*
X2213Y2028D01*
X2214Y2027D01*
X2215Y2027D01*
X2216Y2026D01*
X2217Y2025D01*
X2218Y2025D01*
X2219Y2024D01*
X2220Y2023D01*
X2221Y2023D01*
X2222Y2022D01*
X2223Y2021D01*
X2224Y2021D01*
X2225Y2020D01*
X2226Y2019D01*
X2227Y2019D01*
X2228Y2018D01*
X2229Y2018D01*
X2230Y2017D01*
X2231Y2016D01*
X2232Y2016D01*
X2233Y2015D01*
X2234Y2014D01*
X2235Y2014D01*
X2236Y2013D01*
X2237Y2012D01*
X2238Y2012D01*
X2239Y2011D01*
X2240Y2010D01*
X2241Y2010D01*
X2242Y2009D01*
X2243Y2008D01*
X2244Y2008D01*
X2245Y2007D01*
X2246Y2006D01*
X2247Y2005D01*
X2248Y2005D01*
X2249Y2004D01*
X2250Y2003D01*
X2251Y2003D01*
X2252Y2002D01*
X2253Y2001D01*
X2254Y2001D01*
X2255Y2000D01*
X2256Y1999D01*
X2257Y1998D01*
X2258Y1998D01*
X2259Y1997D01*
X2260Y1996D01*
X2261Y1996D01*
X2262Y1995D01*
X2263Y1994D01*
X2264Y1994D01*
X2265Y1993D01*
X2266Y1992D01*
X2267Y1992D01*
X2268Y1991D01*
X2269Y1990D01*
X2270Y1989D01*
X2271Y1989D01*
X2272Y1988D01*
X2273Y1987D01*
X2274Y1986D01*
X2275Y1986D01*
X2276Y1985D01*
X2277Y1984D01*
X2278Y1984D01*
X2279Y1983D01*
X2280Y1982D01*
X2281Y1981D01*
X2282Y1981D01*
X2283Y1980D01*
X2284Y1979D01*
X2285Y1978D01*
X2286Y1978D01*
X2287Y1977D01*
X2288Y1976D01*
X2289Y1975D01*
X2290Y1975D01*
X2291Y1974D01*
X2292Y1973D01*
X2293Y1973D01*
X2294Y1972D01*
X2295Y1971D01*
X2296Y1970D01*
X2297Y1970D01*
X2298Y1969D01*
X2299Y1968D01*
X2300Y1967D01*
X2301Y1966D01*
X2302Y1966D01*
X2303Y1965D01*
X2304Y1964D01*
X2305Y1963D01*
X2306Y1963D01*
X2307Y1962D01*
X2308Y1961D01*
X2309Y1960D01*
X2310Y1960D01*
X2311Y1959D01*
X2312Y1958D01*
X2313Y1957D01*
X2314Y1956D01*
X2315Y1956D01*
X2316Y1955D01*
X2317Y1954D01*
X2318Y1953D01*
X2319Y1953D01*
X2320Y1952D01*
X2321Y1951D01*
X2322Y1950D01*
X2323Y1949D01*
X2324Y1949D01*
X2325Y1948D01*
X2326Y1947D01*
X2327Y1946D01*
X2328Y1945D01*
X2329Y1945D01*
X2330Y1944D01*
X2331Y1943D01*
X2332Y1942D01*
X2333Y1941D01*
X2334Y1940D01*
X2335Y1940D01*
X2336Y1939D01*
X2337Y1938D01*
X2338Y1937D01*
X2339Y1936D01*
X2340Y1936D01*
X2341Y1935D01*
X2342Y1934D01*
X2343Y1933D01*
X2344Y1932D01*
X2345Y1931D01*
X2346Y1931D01*
X2347Y1930D01*
X2348Y1929D01*
X2349Y1928D01*
X2350Y1927D01*
X2351Y1926D01*
X2352Y1926D01*
X2353Y1925D01*
X2354Y1924D01*
X2355Y1923D01*
X2356Y1922D01*
X2357Y1921D01*
X2358Y1921D01*
X2359Y1920D01*
X2360Y1919D01*
X2361Y1918D01*
X2362Y1917D01*
X2363Y1916D01*
X2364Y1915D01*
X2365Y1915D01*
X2366Y1914D01*
X2367Y1913D01*
X2368Y1912D01*
X2369Y1911D01*
X2370Y1910D01*
X2371Y1909D01*
X2372Y1908D01*
X2373Y1907D01*
X2374Y1907D01*
X2375Y1906D01*
X2376Y1905D01*
X2377Y1904D01*
X2378Y1903D01*
X2379Y1902D01*
X2380Y1901D01*
X2381Y1900D01*
X2382Y1899D01*
X2383Y1899D01*
X2384Y1898D01*
X2385Y1897D01*
X2386Y1896D01*
X2387Y1895D01*
X2388Y1894D01*
X2389Y1893D01*
X2390Y1892D01*
X2391Y1891D01*
X2392Y1890D01*
X2393Y1889D01*
X2394Y1889D01*
X2395Y1888D01*
X2396Y1887D01*
X2397Y1886D01*
X2398Y1885D01*
X2399Y1884D01*
X2400Y1883D01*
X2401Y1882D01*
X2402Y1881D01*
X2403Y1880D01*
X2404Y1879D01*
X2405Y1878D01*
X2406Y1877D01*
X2407Y1876D01*
X2408Y1876D01*
X2409Y1875D01*
X2410Y1874D01*
X2411Y1873D01*
X2412Y1872D01*
X2413Y1871D01*
X2414Y1870D01*
X2415Y1869D01*
X2416Y1868D01*
X2417Y1867D01*
X2418Y1866D01*
X2419Y1865D01*
X2420Y1864D01*
X2421Y1863D01*
X2422Y1862D01*
X2423Y1861D01*
X2424Y1860D01*
X2425Y1859D01*
X2426Y1858D01*
X2427Y1857D01*
X2428Y1856D01*
X2429Y1855D01*
X2430Y1854D01*
X2431Y1853D01*
X2432Y1852D01*
X2433Y1851D01*
X2434Y1850D01*
X2435Y1849D01*
X2436Y1848D01*
X2437Y1847D01*
X2438Y1846D01*
X2439Y1845D01*
X2440Y1844D01*
X2441Y1843D01*
X2442Y1842D01*
X2443Y1841D01*
X2444Y1840D01*
X2445Y1839D01*
X2446Y1838D01*
X2447Y1837D01*
X2448Y1836D01*
X2449Y1835D01*
X2450Y1834D01*
X2451Y1833D01*
X2451Y1832D01*
X2452Y1831D01*
X2453Y1830D01*
X2454Y1829D01*
X2455Y1828D01*
X2456Y1827D01*
X2457Y1826D01*
X2458Y1825D01*
X2459Y1824D01*
X2460Y1823D01*
X2461Y1822D01*
X2462Y1821D01*
X2463Y1820D01*
X2464Y1819D01*
X2464Y1818D01*
X2465Y1817D01*
X2466Y1816D01*
X2467Y1815D01*
X2468Y1814D01*
X2469Y1813D01*
X2470Y1812D01*
X2471Y1811D01*
X2472Y1810D01*
X2473Y1809D01*
X2474Y1808D01*
X2474Y1807D01*
X2475Y1806D01*
X2476Y1805D01*
X2477Y1804D01*
X2478Y1803D01*
X2479Y1802D01*
X2480Y1801D01*
X2481Y1800D01*
X2482Y1799D01*
X2482Y1798D01*
X2483Y1797D01*
X2484Y1796D01*
X2485Y1795D01*
X2486Y1794D01*
X2487Y1793D01*
X2488Y1792D01*
X2489Y1791D01*
X2489Y1790D01*
X2490Y1789D01*
X2491Y1788D01*
X2492Y1787D01*
X2493Y1786D01*
X2494Y1785D01*
X2495Y1784D01*
X2495Y1783D01*
X2496Y1782D01*
X2497Y1781D01*
X2498Y1780D01*
X2499Y1779D01*
X2500Y1778D01*
X2500Y1777D01*
X2501Y1776D01*
X2502Y1775D01*
X2503Y1774D01*
X2504Y1773D01*
X2505Y1772D01*
X2505Y1771D01*
X2506Y1770D01*
X2507Y1769D01*
X2508Y1768D01*
X2509Y1767D01*
X2510Y1766D01*
X2510Y1765D01*
X2511Y1764D01*
X2512Y1763D01*
X2513Y1762D01*
X2514Y1761D01*
X2514Y1760D01*
X2515Y1759D01*
X2516Y1758D01*
X2517Y1757D01*
X2518Y1756D01*
X2518Y1755D01*
X2519Y1754D01*
X2520Y1753D01*
X2521Y1752D01*
X2522Y1751D01*
X2522Y1750D01*
X2523Y1749D01*
X2524Y1748D01*
X2525Y1747D01*
X2526Y1746D01*
X2526Y1745D01*
X2527Y1744D01*
X2528Y1743D01*
X2529Y1742D01*
X2529Y1741D01*
X2530Y1740D01*
X2531Y1739D01*
X2532Y1738D01*
X2532Y1737D01*
X2533Y1736D01*
X2534Y1735D01*
X2535Y1734D01*
X2535Y1733D01*
X2536Y1732D01*
X2537Y1731D01*
X2538Y1730D01*
X2538Y1729D01*
X2539Y1728D01*
X2540Y1727D01*
X2541Y1726D01*
X2541Y1725D01*
X2542Y1724D01*
X2543Y1723D01*
X2544Y1722D01*
X2544Y1721D01*
X2545Y1720D01*
X2546Y1719D01*
X2547Y1718D01*
X2547Y1717D01*
X2548Y1716D01*
X2549Y1715D01*
X2549Y1714D01*
X2550Y1713D01*
X2551Y1712D01*
X2552Y1711D01*
X2552Y1710D01*
X2553Y1709D01*
X2554Y1708D01*
X2554Y1707D01*
X2555Y1706D01*
X2556Y1705D01*
X2557Y1704D01*
X2557Y1703D01*
X2558Y1702D01*
X2559Y1701D01*
X2560Y1700D01*
X2560Y1699D01*
X2561Y1698D01*
X2562Y1697D01*
X2562Y1696D01*
X2563Y1695D01*
X2564Y1694D01*
X2564Y1693D01*
X2565Y1692D01*
X2566Y1691D01*
X2566Y1690D01*
X2567Y1689D01*
X2568Y1688D01*
X2568Y1687D01*
X2569Y1686D01*
X2570Y1685D01*
X2570Y1684D01*
X2571Y1683D01*
X2572Y1682D01*
X2572Y1681D01*
X2573Y1680D01*
X2574Y1679D01*
X2574Y1678D01*
X2575Y1677D01*
X2576Y1676D01*
X2577Y1675D01*
X2577Y1674D01*
X2578Y1673D01*
X2578Y1672D01*
X2579Y1671D01*
X2580Y1670D01*
X2580Y1669D01*
X2581Y1668D01*
X2582Y1667D01*
X2582Y1666D01*
X2583Y1665D01*
X2584Y1664D01*
X2584Y1663D01*
X2585Y1662D01*
X2586Y1661D01*
X2586Y1660D01*
X2587Y1659D01*
X2587Y1658D01*
X2588Y1657D01*
X2589Y1656D01*
X2589Y1655D01*
X2590Y1654D01*
X2591Y1653D01*
X2591Y1652D01*
X2592Y1651D01*
X2593Y1650D01*
X2593Y1649D01*
X2594Y1648D01*
X2594Y1647D01*
X2595Y1646D01*
X2596Y1645D01*
X2596Y1644D01*
X2597Y1643D01*
X2597Y1642D01*
X2598Y1641D01*
X2599Y1640D01*
X2599Y1639D01*
X2600Y1638D01*
X2600Y1637D01*
X2601Y1636D01*
X2602Y1635D01*
X2602Y1634D01*
X2603Y1633D01*
X2603Y1632D01*
X2604Y1631D01*
X2605Y1630D01*
X2605Y1629D01*
X2606Y1628D01*
X2606Y1627D01*
X2607Y1626D01*
X2608Y1625D01*
X2608Y1624D01*
X2609Y1623D01*
X2609Y1622D01*
X2610Y1621D01*
X2610Y1620D01*
X2611Y1619D01*
X2612Y1618D01*
X2612Y1617D01*
X2613Y1616D01*
X2613Y1615D01*
X2614Y1614D01*
X2614Y1613D01*
X2615Y1612D01*
X2616Y1611D01*
X2616Y1610D01*
X2617Y1609D01*
X2617Y1608D01*
X2618Y1607D01*
X2618Y1606D01*
X2619Y1605D01*
X2619Y1604D01*
X2620Y1603D01*
X2621Y1602D01*
X2621Y1601D01*
X2622Y1600D01*
X2622Y1599D01*
X2623Y1598D01*
X2623Y1597D01*
X2624Y1596D01*
X2624Y1595D01*
X2625Y1594D01*
X2625Y1593D01*
X2626Y1592D01*
X2627Y1591D01*
X2627Y1590D01*
X2628Y1589D01*
X2628Y1588D01*
X2629Y1587D01*
X2629Y1586D01*
X2630Y1585D01*
X2630Y1584D01*
X2631Y1583D01*
X2631Y1582D01*
X2632Y1581D01*
X2632Y1580D01*
X2633Y1579D01*
X2633Y1578D01*
X2634Y1577D01*
X2634Y1576D01*
X2635Y1575D01*
X2635Y1574D01*
X2636Y1573D01*
X2636Y1572D01*
X2637Y1571D01*
X2637Y1570D01*
X2638Y1569D01*
X2638Y1568D01*
X2639Y1567D01*
X2639Y1566D01*
X2640Y1565D01*
X2640Y1564D01*
X2641Y1563D01*
X2641Y1562D01*
X2642Y1561D01*
X2642Y1560D01*
X2643Y1559D01*
X2643Y1558D01*
X2644Y1557D01*
X2644Y1556D01*
X2645Y1555D01*
X2645Y1554D01*
X2646Y1553D01*
X2646Y1552D01*
X2647Y1551D01*
X2647Y1550D01*
X2648Y1549D01*
X2648Y1548D01*
X2649Y1547D01*
X2649Y1546D01*
X2650Y1545D01*
X2650Y1544D01*
X2651Y1543D01*
X2651Y1542D01*
X2652Y1541D01*
X2652Y1539D01*
X2653Y1538D01*
X2653Y1537D01*
X2654Y1536D01*
X2654Y1535D01*
X2655Y1534D01*
X2655Y1533D01*
X2656Y1532D01*
X2656Y1531D01*
X2657Y1530D01*
X2657Y1529D01*
X2658Y1528D01*
X2658Y1526D01*
X2659Y1525D01*
X2659Y1524D01*
X2660Y1523D01*
X2660Y1522D01*
X2661Y1521D01*
X2661Y1520D01*
X2662Y1519D01*
X2662Y1517D01*
X2663Y1516D01*
X2663Y1515D01*
X2664Y1514D01*
X2664Y1513D01*
X2665Y1512D01*
X2665Y1510D01*
X2666Y1509D01*
X2666Y1508D01*
X2667Y1507D01*
X2667Y1506D01*
X2668Y1505D01*
X2668Y1503D01*
X2669Y1502D01*
X2669Y1501D01*
X2670Y1500D01*
X2670Y1499D01*
X2671Y1498D01*
X2671Y1496D01*
X2672Y1495D01*
X2672Y1493D01*
X2673Y1492D01*
X2673Y1491D01*
X2674Y1490D01*
X2674Y1488D01*
X2675Y1487D01*
X2675Y1486D01*
X2676Y1485D01*
X2676Y1483D01*
X2677Y1482D01*
X2677Y1481D01*
X2678Y1480D01*
X2678Y1478D01*
X2679Y1477D01*
X2679Y1476D01*
X2680Y1475D01*
X2680Y1473D01*
X2681Y1472D01*
X2681Y1471D01*
X2682Y1470D01*
X2682Y1468D01*
X2683Y1467D01*
X2683Y1465D01*
X2684Y1464D01*
X2684Y1462D01*
X2685Y1461D01*
X2685Y1459D01*
X2686Y1458D01*
X2686Y1457D01*
X2687Y1456D01*
X2687Y1454D01*
X2688Y1453D01*
X2688Y1451D01*
X2689Y1450D01*
X2689Y1448D01*
X2690Y1447D01*
X2690Y1446D01*
X2691Y1445D01*
X2691Y1443D01*
X2692Y1442D01*
X2692Y1440D01*
X2693Y1439D01*
X2693Y1437D01*
X2694Y1436D01*
X2694Y1433D01*
X2695Y1432D01*
X2695Y1430D01*
X2696Y1429D01*
X2696Y1427D01*
X2697Y1426D01*
X2697Y1424D01*
X2698Y1423D01*
X2698Y1421D01*
X2699Y1420D01*
X2699Y1418D01*
X2700Y1417D01*
X2700Y1415D01*
X2701Y1414D01*
X2701Y1412D01*
X2702Y1411D01*
X2702Y1408D01*
X2703Y1407D01*
X2703Y1405D01*
X2704Y1404D01*
X2704Y1401D01*
X2705Y1400D01*
X2705Y1398D01*
X2706Y1397D01*
X2706Y1395D01*
X2707Y1394D01*
X2707Y1391D01*
X2708Y1390D01*
X2708Y1388D01*
X2709Y1387D01*
X2709Y1384D01*
X2710Y1383D01*
X2710Y1380D01*
X2711Y1379D01*
X2711Y1376D01*
X2712Y1375D01*
X2712Y1372D01*
X2713Y1371D01*
X2713Y1369D01*
X2714Y1368D01*
X2714Y1365D01*
X2715Y1364D01*
X2715Y1361D01*
X2716Y1360D01*
X2716Y1357D01*
X2717Y1356D01*
X2717Y1352D01*
X2718Y1351D01*
X2718Y1348D01*
X2719Y1347D01*
X2719Y1344D01*
X2720Y1343D01*
X2720Y1339D01*
X2721Y1338D01*
X2721Y1335D01*
X2722Y1334D01*
X2722Y1330D01*
X2723Y1329D01*
X2723Y1325D01*
X2724Y1324D01*
X2724Y1320D01*
X2725Y1319D01*
X2725Y1315D01*
X2726Y1314D01*
X2726Y1310D01*
X2727Y1309D01*
X2727Y1305D01*
X2728Y1304D01*
X2728Y1299D01*
X2729Y1298D01*
X2729Y1294D01*
X2730Y1293D01*
X2730Y1288D01*
X2731Y1287D01*
X2731Y1282D01*
X2732Y1281D01*
X2732Y1275D01*
X2733Y1274D01*
X2733Y1268D01*
X2734Y1267D01*
X2734Y1261D01*
X2735Y1260D01*
X2735Y1253D01*
X2736Y1252D01*
X2736Y1245D01*
X2737Y1244D01*
X2737Y1236D01*
X2738Y1235D01*
X2738Y1226D01*
X2739Y1225D01*
X2739Y1216D01*
X2740Y1215D01*
X2740Y1203D01*
X2741Y1202D01*
X2741Y1187D01*
X2742Y1186D01*
X2742Y1165D01*
X2743Y1164D01*
X2743Y1104D01*
X2742Y1103D01*
X2742Y1082D01*
X2741Y1081D01*
X2741Y1066D01*
X2740Y1065D01*
X2740Y1053D01*
X2739Y1052D01*
X2739Y1043D01*
X2738Y1042D01*
X2738Y1033D01*
X2737Y1032D01*
X2737Y1024D01*
X2736Y1023D01*
X2736Y1016D01*
X2735Y1015D01*
X2735Y1008D01*
X2734Y1007D01*
X2734Y1001D01*
X2733Y1000D01*
X2733Y994D01*
X2732Y993D01*
X2732Y987D01*
X2731Y986D01*
X2731Y981D01*
X2730Y980D01*
X2730Y975D01*
X2729Y974D01*
X2729Y970D01*
X2728Y969D01*
X2728Y964D01*
X2727Y963D01*
X2727Y959D01*
X2726Y958D01*
X2726Y954D01*
X2725Y953D01*
X2725Y949D01*
X2724Y948D01*
X2724Y944D01*
X2723Y943D01*
X2723Y939D01*
X2722Y938D01*
X2722Y934D01*
X2721Y933D01*
X2721Y930D01*
X2720Y929D01*
X2720Y925D01*
X2719Y924D01*
X2719Y921D01*
X2718Y920D01*
X2718Y917D01*
X2717Y916D01*
X2717Y912D01*
X2716Y911D01*
X2716Y908D01*
X2715Y907D01*
X2715Y904D01*
X2714Y903D01*
X2714Y900D01*
X2713Y899D01*
X2713Y897D01*
X2712Y896D01*
X2712Y893D01*
X2711Y892D01*
X2711Y889D01*
X2710Y888D01*
X2710Y885D01*
X2709Y884D01*
X2709Y881D01*
X2708Y880D01*
X2708Y878D01*
X2707Y877D01*
X2707Y874D01*
X2706Y873D01*
X2706Y871D01*
X2705Y870D01*
X2705Y868D01*
X2704Y867D01*
X2704Y864D01*
X2703Y863D01*
X2703Y861D01*
X2702Y860D01*
X2702Y857D01*
X2701Y856D01*
X2701Y854D01*
X2700Y853D01*
X2700Y851D01*
X2699Y850D01*
X2699Y848D01*
X2698Y847D01*
X2698Y845D01*
X2697Y844D01*
X2697Y842D01*
X2696Y841D01*
X2696Y839D01*
X2695Y838D01*
X2695Y836D01*
X2694Y835D01*
X2694Y832D01*
X2693Y831D01*
X2693Y829D01*
X2692Y828D01*
X2692Y826D01*
X2691Y825D01*
X2691Y823D01*
X2690Y822D01*
X2690Y821D01*
X2689Y820D01*
X2689Y818D01*
X2688Y817D01*
X2688Y815D01*
X2687Y814D01*
X2687Y812D01*
X2686Y811D01*
X2686Y810D01*
X2685Y809D01*
X2685Y807D01*
X2684Y806D01*
X2684Y804D01*
X2683Y803D01*
X2683Y801D01*
X2682Y800D01*
X2682Y798D01*
X2681Y797D01*
X2681Y796D01*
X2680Y795D01*
X2680Y793D01*
X2679Y792D01*
X2679Y791D01*
X2678Y790D01*
X2678Y788D01*
X2677Y787D01*
X2677Y786D01*
X2676Y785D01*
X2676Y783D01*
X2675Y782D01*
X2675Y781D01*
X2674Y780D01*
X2674Y778D01*
X2673Y777D01*
X2673Y776D01*
X2672Y775D01*
X2672Y773D01*
X2671Y772D01*
X2671Y770D01*
X2670Y769D01*
X2670Y768D01*
X2669Y767D01*
X2669Y766D01*
X2668Y765D01*
X2668Y763D01*
X2667Y762D01*
X2667Y761D01*
X2666Y760D01*
X2666Y759D01*
X2665Y758D01*
X2665Y756D01*
X2664Y755D01*
X2664Y754D01*
X2663Y753D01*
X2663Y752D01*
X2662Y751D01*
X2662Y749D01*
X2661Y748D01*
X2661Y747D01*
X2660Y746D01*
X2660Y745D01*
X2659Y744D01*
X2659Y743D01*
X2658Y742D01*
X2658Y740D01*
X2657Y739D01*
X2657Y738D01*
X2656Y737D01*
X2656Y736D01*
X2655Y735D01*
X2655Y734D01*
X2654Y733D01*
X2654Y732D01*
X2653Y731D01*
X2653Y730D01*
X2652Y729D01*
X2652Y727D01*
X2651Y726D01*
X2651Y725D01*
X2650Y724D01*
X2650Y723D01*
X2649Y722D01*
X2649Y721D01*
X2648Y720D01*
X2648Y719D01*
X2647Y718D01*
X2647Y717D01*
X2646Y716D01*
X2646Y715D01*
X2645Y714D01*
X2645Y713D01*
X2644Y712D01*
X2644Y711D01*
X2643Y710D01*
X2643Y709D01*
X2642Y708D01*
X2642Y707D01*
X2641Y706D01*
X2641Y705D01*
X2640Y704D01*
X2640Y703D01*
X2639Y702D01*
X2639Y701D01*
X2638Y700D01*
X2638Y699D01*
X2637Y698D01*
X2637Y697D01*
X2636Y696D01*
X2636Y694D01*
X2635Y693D01*
X2634Y692D01*
X2634Y691D01*
X2633Y690D01*
X2633Y689D01*
X2632Y688D01*
X2632Y687D01*
X2631Y686D01*
X2631Y685D01*
X2630Y684D01*
X2630Y683D01*
X2629Y682D01*
X2629Y681D01*
X2628Y680D01*
X2628Y679D01*
X2627Y678D01*
X2627Y677D01*
X2626Y676D01*
X2625Y675D01*
X2625Y674D01*
X2624Y673D01*
X2624Y672D01*
X2623Y671D01*
X2623Y670D01*
X2622Y669D01*
X2622Y668D01*
X2621Y667D01*
X2621Y666D01*
X2620Y665D01*
X2619Y664D01*
X2619Y663D01*
X2618Y662D01*
X2618Y661D01*
X2617Y660D01*
X2617Y659D01*
X2616Y658D01*
X2616Y657D01*
X2615Y656D01*
X2614Y655D01*
X2614Y654D01*
X2613Y653D01*
X2613Y652D01*
X2612Y651D01*
X2612Y650D01*
X2611Y649D01*
X2610Y648D01*
X2610Y647D01*
X2609Y646D01*
X2609Y645D01*
X2608Y644D01*
X2608Y643D01*
X2607Y642D01*
X2606Y641D01*
X2606Y640D01*
X2605Y639D01*
X2605Y638D01*
X2604Y637D01*
X2603Y636D01*
X2603Y635D01*
X2602Y634D01*
X2602Y633D01*
X2601Y632D01*
X2600Y631D01*
X2600Y630D01*
X2599Y629D01*
X2599Y628D01*
X2598Y627D01*
X2597Y626D01*
X2597Y625D01*
X2596Y624D01*
X2596Y623D01*
X2595Y622D01*
X2594Y621D01*
X2594Y620D01*
X2593Y619D01*
X2593Y618D01*
X2592Y617D01*
X2591Y616D01*
X2591Y615D01*
X2590Y614D01*
X2589Y613D01*
X2589Y612D01*
X2588Y611D01*
X2587Y610D01*
X2587Y609D01*
X2586Y608D01*
X2586Y607D01*
X2585Y606D01*
X2584Y605D01*
X2584Y604D01*
X2583Y603D01*
X2582Y602D01*
X2582Y601D01*
X2581Y600D01*
X2580Y599D01*
X2580Y598D01*
X2579Y597D01*
X2578Y596D01*
X2578Y595D01*
X2577Y594D01*
X2577Y593D01*
X2576Y592D01*
X2575Y591D01*
X2575Y590D01*
X2574Y589D01*
X2573Y588D01*
X2572Y587D01*
X2572Y586D01*
X2571Y585D01*
X2570Y584D01*
X2570Y583D01*
X2569Y582D01*
X2568Y581D01*
X2568Y580D01*
X2567Y579D01*
X2566Y578D01*
X2566Y577D01*
X2565Y576D01*
X2564Y575D01*
X2564Y574D01*
X2563Y573D01*
X2562Y572D01*
X2562Y571D01*
X2561Y570D01*
X2560Y569D01*
X2560Y568D01*
X2559Y567D01*
X2558Y566D01*
X2557Y565D01*
X2557Y564D01*
X2556Y563D01*
X2555Y562D01*
X2555Y561D01*
X2554Y560D01*
X2553Y559D01*
X2552Y558D01*
X2552Y557D01*
X2551Y556D01*
X2550Y555D01*
X2549Y554D01*
X2549Y553D01*
X2548Y552D01*
X2547Y551D01*
X2547Y550D01*
X2546Y549D01*
X2545Y548D01*
X2544Y547D01*
X2544Y546D01*
X2543Y545D01*
X2542Y544D01*
X2541Y543D01*
X2541Y542D01*
X2540Y541D01*
X2539Y540D01*
X2538Y539D01*
X2538Y538D01*
X2537Y537D01*
X2536Y536D01*
X2535Y535D01*
X2535Y534D01*
X2534Y533D01*
X2533Y532D01*
X2532Y531D01*
X2532Y530D01*
X2531Y529D01*
X2530Y528D01*
X2529Y527D01*
X2529Y526D01*
X2528Y525D01*
X2527Y524D01*
X2526Y523D01*
X2526Y522D01*
X2525Y521D01*
X2524Y520D01*
X2523Y519D01*
X2522Y518D01*
X2522Y517D01*
X2521Y516D01*
X2520Y515D01*
X2519Y514D01*
X2518Y513D01*
X2518Y512D01*
X2517Y511D01*
X2516Y510D01*
X2515Y509D01*
X2514Y508D01*
X2514Y507D01*
X2513Y506D01*
X2512Y505D01*
X2511Y504D01*
X2510Y503D01*
X2510Y502D01*
X2509Y501D01*
X2508Y500D01*
X2507Y499D01*
X2506Y498D01*
X2505Y497D01*
X2505Y496D01*
X2504Y495D01*
X2503Y494D01*
X2502Y493D01*
X2501Y492D01*
X2500Y491D01*
X2500Y490D01*
X2499Y489D01*
X2498Y488D01*
X2497Y487D01*
X2496Y486D01*
X2495Y485D01*
X2495Y484D01*
X2494Y483D01*
X2493Y482D01*
X2492Y481D01*
X2491Y480D01*
X2490Y479D01*
X2489Y478D01*
X2489Y477D01*
X2488Y476D01*
X2487Y475D01*
X2486Y474D01*
X2485Y473D01*
X2484Y472D01*
X2483Y471D01*
X2482Y470D01*
X2482Y469D01*
X2481Y468D01*
X2480Y467D01*
X2479Y466D01*
X2478Y465D01*
X2477Y464D01*
X2476Y463D01*
X2475Y462D01*
X2474Y461D01*
X2474Y460D01*
X2473Y459D01*
X2472Y458D01*
X2471Y457D01*
X2470Y456D01*
X2469Y455D01*
X2468Y454D01*
X2467Y453D01*
X2466Y452D01*
X2465Y451D01*
X2464Y450D01*
X2464Y449D01*
X2463Y448D01*
X2462Y447D01*
X2461Y446D01*
X2460Y445D01*
X2459Y444D01*
X2458Y443D01*
X2457Y442D01*
X2456Y441D01*
X2455Y440D01*
X2454Y439D01*
X2453Y438D01*
X2452Y437D01*
X2451Y436D01*
X2451Y435D01*
X2450Y434D01*
X2449Y433D01*
X2448Y432D01*
X2447Y431D01*
X2446Y430D01*
X2445Y429D01*
X2444Y428D01*
X2443Y427D01*
X2442Y426D01*
X2441Y425D01*
X2440Y424D01*
X2439Y423D01*
X2438Y422D01*
X2437Y421D01*
X2436Y420D01*
X2435Y419D01*
X2434Y418D01*
X2433Y417D01*
X2432Y416D01*
X2431Y415D01*
X2430Y414D01*
X2429Y413D01*
X2428Y412D01*
X2427Y411D01*
X2426Y410D01*
X2425Y409D01*
X2424Y408D01*
X2423Y407D01*
X2422Y406D01*
X2421Y405D01*
X2420Y404D01*
X2419Y403D01*
X2418Y402D01*
X2417Y401D01*
X2416Y400D01*
X2415Y399D01*
X2414Y398D01*
X2413Y397D01*
X2412Y396D01*
X2411Y395D01*
X2410Y394D01*
X2409Y393D01*
X2408Y392D01*
X2407Y392D01*
X2406Y391D01*
X2405Y390D01*
X2404Y389D01*
X2403Y388D01*
X2402Y387D01*
X2401Y386D01*
X2400Y385D01*
X2399Y384D01*
X2398Y383D01*
X2397Y382D01*
X2396Y381D01*
X2395Y380D01*
X2394Y379D01*
X2393Y379D01*
X2392Y378D01*
X2391Y377D01*
X2390Y376D01*
X2389Y375D01*
X2388Y374D01*
X2387Y373D01*
X2386Y372D01*
X2385Y371D01*
X2384Y370D01*
X2383Y369D01*
X2382Y368D01*
X2381Y368D01*
X2380Y367D01*
X2379Y366D01*
X2378Y365D01*
X2377Y364D01*
X2376Y363D01*
X2375Y362D01*
X2374Y361D01*
X2373Y361D01*
X2372Y360D01*
X2371Y359D01*
X2370Y358D01*
X2369Y357D01*
X2368Y356D01*
X2367Y355D01*
X2366Y354D01*
X2365Y353D01*
X2364Y353D01*
X2363Y352D01*
X2362Y351D01*
X2361Y350D01*
X2360Y349D01*
X2359Y348D01*
X2358Y347D01*
X2357Y347D01*
X2356Y346D01*
X2355Y345D01*
X2354Y344D01*
X2353Y343D01*
X2352Y342D01*
X2351Y342D01*
X2350Y341D01*
X2349Y340D01*
X2348Y339D01*
X2347Y338D01*
X2346Y337D01*
X2345Y337D01*
X2344Y336D01*
X2343Y335D01*
X2342Y334D01*
X2341Y333D01*
X2340Y332D01*
X2339Y332D01*
X2338Y331D01*
X2337Y330D01*
X2336Y329D01*
X2335Y328D01*
X2334Y328D01*
X2333Y327D01*
X2332Y326D01*
X2331Y325D01*
X2330Y324D01*
X2329Y323D01*
X2328Y323D01*
X2327Y322D01*
X2326Y321D01*
X2325Y320D01*
X2324Y319D01*
X2323Y319D01*
X2322Y318D01*
X2321Y317D01*
X2320Y316D01*
X2319Y315D01*
X2318Y315D01*
X2317Y314D01*
X2316Y313D01*
X2315Y312D01*
X2314Y312D01*
X2313Y311D01*
X2312Y310D01*
X2311Y309D01*
X2310Y308D01*
X2309Y308D01*
X2308Y307D01*
X2307Y306D01*
X2306Y305D01*
X2305Y305D01*
X2304Y304D01*
X2303Y303D01*
X2302Y302D01*
X2301Y302D01*
X2300Y301D01*
X2299Y300D01*
X2298Y299D01*
X2297Y298D01*
X2296Y298D01*
X2295Y297D01*
X2294Y296D01*
X2293Y295D01*
X2292Y295D01*
X2291Y294D01*
X2290Y293D01*
X2289Y293D01*
X2288Y292D01*
X2287Y291D01*
X2286Y290D01*
X2285Y290D01*
X2284Y289D01*
X2283Y288D01*
X2282Y287D01*
X2281Y287D01*
X2280Y286D01*
X2279Y285D01*
X2278Y284D01*
X2277Y284D01*
X2276Y283D01*
X2275Y282D01*
X2274Y282D01*
X2273Y281D01*
X2272Y280D01*
X2271Y279D01*
X2270Y279D01*
X2269Y278D01*
X2268Y277D01*
X2267Y276D01*
X2266Y276D01*
X2265Y275D01*
X2264Y274D01*
X2263Y274D01*
X2262Y273D01*
X2261Y272D01*
X2260Y272D01*
X2259Y271D01*
X2258Y270D01*
X2257Y270D01*
X2256Y269D01*
X2255Y268D01*
X2254Y267D01*
X2253Y267D01*
X2252Y266D01*
X2251Y265D01*
X2250Y265D01*
X2249Y264D01*
X2248Y263D01*
X2247Y263D01*
X2246Y262D01*
X2245Y261D01*
X2244Y260D01*
X2243Y260D01*
X2242Y259D01*
X2241Y258D01*
X2240Y258D01*
X2239Y257D01*
X2238Y256D01*
X2237Y256D01*
X2236Y255D01*
X2235Y254D01*
X2234Y254D01*
X2233Y253D01*
X2232Y252D01*
X2231Y252D01*
X2230Y251D01*
X2229Y250D01*
X2228Y250D01*
X2227Y249D01*
X2226Y248D01*
X2225Y248D01*
X2224Y247D01*
X2223Y246D01*
X2222Y246D01*
X2221Y245D01*
X2220Y245D01*
X2219Y244D01*
X2218Y243D01*
X2217Y243D01*
X2216Y242D01*
X2215Y241D01*
X2214Y241D01*
X2213Y240D01*
X2212Y239D01*
X2211Y239D01*
X2210Y238D01*
X2209Y237D01*
X2208Y237D01*
X2207Y236D01*
X2206Y236D01*
X2205Y235D01*
X2204Y234D01*
X2203Y234D01*
X2202Y233D01*
X2201Y232D01*
X2200Y232D01*
X2199Y231D01*
X2198Y231D01*
X2197Y230D01*
X2196Y229D01*
X2195Y229D01*
X2194Y228D01*
X2193Y227D01*
X2192Y227D01*
X2191Y226D01*
X2190Y226D01*
X2189Y225D01*
X2188Y224D01*
X2187Y224D01*
X2186Y223D01*
X2185Y223D01*
X2184Y222D01*
X2183Y221D01*
X2182Y221D01*
X2181Y220D01*
X2180Y220D01*
X2179Y219D01*
X2178Y218D01*
X2177Y218D01*
X2176Y217D01*
X2175Y217D01*
X2174Y216D01*
X2173Y215D01*
X2172Y215D01*
X2171Y214D01*
X2170Y214D01*
X2169Y213D01*
X2168Y212D01*
X2167Y212D01*
X2166Y211D01*
X2165Y211D01*
X2164Y210D01*
X2163Y209D01*
X2162Y209D01*
X2161Y208D01*
X2160Y208D01*
X2159Y207D01*
X2158Y207D01*
X2157Y206D01*
X2156Y205D01*
X2155Y205D01*
X2154Y204D01*
X2153Y204D01*
X2152Y203D01*
X2151Y203D01*
X2150Y202D01*
X2149Y201D01*
X2148Y201D01*
X2147Y200D01*
X2146Y200D01*
X2145Y199D01*
X2144Y199D01*
X2143Y198D01*
X2142Y197D01*
X2141Y197D01*
X2140Y196D01*
X2139Y196D01*
X2138Y195D01*
X2137Y195D01*
X2136Y194D01*
X2135Y193D01*
X2134Y193D01*
X2133Y192D01*
X2132Y192D01*
X2131Y191D01*
X2130Y191D01*
X2129Y190D01*
X2128Y190D01*
X2127Y189D01*
X2126Y189D01*
X2125Y188D01*
X2124Y188D01*
X2123Y187D01*
X2122Y186D01*
X2121Y186D01*
X2120Y185D01*
X2119Y185D01*
X2118Y184D01*
X2117Y184D01*
X2116Y183D01*
X2115Y183D01*
X2114Y182D01*
X2113Y182D01*
X2112Y181D01*
X2111Y180D01*
X2110Y180D01*
X2109Y179D01*
X2108Y179D01*
X2107Y178D01*
X2106Y178D01*
X2105Y177D01*
X2104Y177D01*
X2103Y176D01*
X2102Y176D01*
X2101Y175D01*
X2100Y175D01*
X2099Y174D01*
X2098Y174D01*
X2097Y173D01*
X2096Y173D01*
X2095Y172D01*
X2094Y172D01*
X2093Y171D01*
X2092Y171D01*
X2091Y170D01*
X2090Y170D01*
X2089Y169D01*
X2088Y169D01*
X2087Y168D01*
X2086Y168D01*
X2085Y167D01*
X2084Y167D01*
X2083Y166D01*
X2082Y166D01*
X2081Y165D01*
X2080Y165D01*
X2079Y164D01*
X2078Y164D01*
X2077Y163D01*
X2076Y163D01*
X2075Y162D01*
X2074Y162D01*
X2073Y161D01*
X2072Y161D01*
X2071Y160D01*
X2070Y160D01*
X2069Y159D01*
X2068Y159D01*
X2067Y158D01*
X2066Y158D01*
X2065Y157D01*
X2064Y157D01*
X2063Y156D01*
X2062Y156D01*
X2061Y155D01*
X2060Y155D01*
X2059Y154D01*
X2058Y154D01*
X2057Y153D01*
X2056Y153D01*
X2055Y152D01*
X2054Y152D01*
X2053Y151D01*
X2052Y151D01*
X2051Y150D01*
X2050Y150D01*
X2049Y150D01*
X2048Y149D01*
X2047Y149D01*
X2046Y148D01*
X2045Y148D01*
X2044Y147D01*
X2043Y147D01*
X2042Y146D01*
X2041Y146D01*
X2040Y145D01*
X2039Y145D01*
X2038Y145D01*
X2037Y144D01*
X2036Y144D01*
X2035Y143D01*
X2034Y143D01*
X2033Y142D01*
X2032Y142D01*
X2031Y141D01*
X2030Y141D01*
X2029Y140D01*
X2028Y140D01*
X2027Y139D01*
X2026Y139D01*
X2025Y139D01*
X2024Y138D01*
X2023Y138D01*
X2022Y137D01*
X2021Y137D01*
X2020Y136D01*
X2019Y136D01*
X2018Y135D01*
X2017Y135D01*
X2016Y135D01*
X2015Y134D01*
X2014Y134D01*
X2013Y133D01*
X2012Y133D01*
X2011Y132D01*
X2010Y132D01*
X2009Y132D01*
X2008Y131D01*
X2007Y131D01*
X2006Y130D01*
X2005Y130D01*
X2004Y129D01*
X2003Y129D01*
X2002Y129D01*
X2001Y128D01*
X2000Y128D01*
X1999Y127D01*
X1998Y127D01*
X1997Y126D01*
X1996Y126D01*
X1995Y125D01*
X1994Y125D01*
X1993Y125D01*
X1992Y124D01*
X1991Y124D01*
X1990Y123D01*
X1989Y123D01*
X1988Y123D01*
X1987Y122D01*
X1986Y122D01*
X1985Y121D01*
X1984Y121D01*
X1983Y121D01*
X1982Y120D01*
X1981Y120D01*
X1980Y119D01*
X1979Y119D01*
X1978Y119D01*
X1977Y118D01*
X1976Y118D01*
X1975Y117D01*
X1974Y117D01*
X1973Y116D01*
X1972Y116D01*
X1971Y116D01*
X1970Y115D01*
X1969Y115D01*
X1968Y114D01*
X1967Y114D01*
X1966Y114D01*
X1965Y113D01*
X1964Y113D01*
X1963Y112D01*
X1962Y112D01*
X1961Y112D01*
X1960Y111D01*
X1959Y111D01*
X1958Y111D01*
X1957Y110D01*
X1956Y110D01*
X1955Y109D01*
X1954Y109D01*
X1953Y109D01*
X1952Y108D01*
X1951Y108D01*
X1950Y107D01*
X1949Y107D01*
X1948Y107D01*
X1947Y106D01*
X1946Y106D01*
X1945Y106D01*
X1944Y105D01*
X1943Y105D01*
X1942Y104D01*
X1941Y104D01*
X1940Y104D01*
X1939Y103D01*
X1938Y103D01*
X1937Y102D01*
X1936Y102D01*
X1935Y102D01*
X1934Y101D01*
X1933Y101D01*
X1932Y101D01*
X1931Y100D01*
X1930Y100D01*
X1929Y100D01*
X1928Y99D01*
X1927Y99D01*
X1926Y98D01*
X1925Y98D01*
X1924Y98D01*
X1923Y97D01*
X1922Y97D01*
X1921Y97D01*
X1920Y96D01*
X1919Y96D01*
X1918Y96D01*
X1917Y95D01*
X1916Y95D01*
X1915Y94D01*
X1914Y94D01*
X1913Y94D01*
X1912Y93D01*
X1911Y93D01*
X1910Y93D01*
X1909Y92D01*
X1908Y92D01*
X1907Y92D01*
X1906Y91D01*
X1905Y91D01*
X1904Y91D01*
X1903Y90D01*
X1902Y90D01*
X1901Y90D01*
X1900Y89D01*
X1899Y89D01*
X1898Y88D01*
X1897Y88D01*
X1896Y88D01*
X1895Y87D01*
X1894Y87D01*
X1893Y87D01*
X1892Y86D01*
X1891Y86D01*
X1890Y86D01*
X1889Y85D01*
X1888Y85D01*
X1887Y85D01*
X1886Y84D01*
X1885Y84D01*
X1884Y84D01*
X1883Y83D01*
X1882Y83D01*
X1881Y83D01*
X1880Y82D01*
X1879Y82D01*
X1878Y82D01*
X1877Y81D01*
X1876Y81D01*
X1875Y81D01*
X1874Y80D01*
X1873Y80D01*
X1872Y80D01*
X1871Y79D01*
X1870Y79D01*
X1869Y79D01*
X1868Y79D01*
X1867Y78D01*
X1866Y78D01*
X1865Y78D01*
X1864Y77D01*
X1863Y77D01*
X1862Y77D01*
X1861Y76D01*
X1860Y76D01*
X1859Y76D01*
X1858Y75D01*
X1857Y75D01*
X1856Y75D01*
X1855Y74D01*
X1854Y74D01*
X1853Y74D01*
X1852Y74D01*
X1851Y73D01*
X1850Y73D01*
X1849Y73D01*
X1848Y72D01*
X1847Y72D01*
X1846Y72D01*
X1845Y71D01*
X1844Y71D01*
X1843Y71D01*
X1842Y70D01*
X1841Y70D01*
X1840Y70D01*
X1839Y70D01*
X1838Y69D01*
X1837Y69D01*
X1836Y69D01*
X1835Y68D01*
X1834Y68D01*
X1833Y68D01*
X1832Y67D01*
X1831Y67D01*
X1830Y67D01*
X1829Y67D01*
X1828Y66D01*
X1827Y66D01*
X1826Y66D01*
X1825Y65D01*
X1824Y65D01*
X1823Y65D01*
X1822Y65D01*
X1821Y64D01*
X1820Y64D01*
X1819Y64D01*
X1818Y63D01*
X1817Y63D01*
X1816Y63D01*
X1815Y63D01*
X1814Y62D01*
X1813Y62D01*
X1812Y62D01*
X1811Y61D01*
X1810Y61D01*
X1809Y61D01*
X1808Y61D01*
X1807Y60D01*
X1806Y60D01*
X1805Y60D01*
X1804Y60D01*
X1803Y59D01*
X1802Y59D01*
X1801Y59D01*
X1800Y58D01*
X1799Y58D01*
X1798Y58D01*
X1797Y58D01*
X1796Y57D01*
X1795Y57D01*
X1794Y57D01*
X1793Y57D01*
X1792Y56D01*
X1791Y56D01*
X1790Y56D01*
X1789Y56D01*
X1788Y55D01*
X1787Y55D01*
X1786Y55D01*
X1785Y54D01*
X1784Y54D01*
X1783Y54D01*
X1782Y54D01*
X1781Y53D01*
X1780Y53D01*
X1779Y53D01*
X1778Y53D01*
X1777Y52D01*
X1776Y52D01*
X1775Y52D01*
X1774Y52D01*
X1773Y51D01*
X1772Y51D01*
X1771Y51D01*
X1770Y51D01*
X1769Y50D01*
X1768Y50D01*
X1767Y50D01*
X1766Y50D01*
X1765Y49D01*
X1764Y49D01*
X1763Y49D01*
X1762Y49D01*
X1761Y48D01*
X1760Y48D01*
X1759Y48D01*
X1758Y48D01*
X1757Y47D01*
X1756Y47D01*
X1755Y47D01*
X1754Y47D01*
X1753Y46D01*
X1752Y46D01*
X1751Y46D01*
X1750Y46D01*
X1749Y45D01*
X1748Y45D01*
X1747Y45D01*
X1746Y45D01*
X1745Y45D01*
X1744Y44D01*
X1743Y44D01*
X1742Y44D01*
X1741Y44D01*
X1740Y43D01*
X1739Y43D01*
X1738Y43D01*
X1737Y43D01*
X1736Y43D01*
X1735Y42D01*
X1734Y42D01*
X1733Y42D01*
X1732Y42D01*
X1731Y41D01*
X1730Y41D01*
X1729Y41D01*
X1728Y41D01*
X1727Y41D01*
X1726Y40D01*
X1725Y40D01*
X1724Y40D01*
X1723Y40D01*
X1722Y39D01*
X1721Y39D01*
X1720Y39D01*
X1719Y39D01*
X1718Y38D01*
X1717Y38D01*
X1716Y38D01*
X1715Y38D01*
X1714Y38D01*
X1713Y37D01*
X1712Y37D01*
X1711Y37D01*
X1710Y37D01*
X1709Y37D01*
X1708Y36D01*
X1707Y36D01*
X1706Y36D01*
X1705Y36D01*
X1704Y36D01*
X1703Y35D01*
X1702Y35D01*
X1701Y35D01*
X1700Y35D01*
X1699Y35D01*
X1698Y34D01*
X1697Y34D01*
X1696Y34D01*
X1695Y34D01*
X1694Y34D01*
X1693Y33D01*
X1692Y33D01*
X1691Y33D01*
X1690Y33D01*
X1689Y33D01*
X1688Y32D01*
X1687Y32D01*
X1686Y32D01*
X1685Y32D01*
X1684Y32D01*
X1683Y31D01*
X1682Y31D01*
X1681Y31D01*
X1680Y31D01*
X1679Y31D01*
X1678Y30D01*
X1677Y30D01*
X1676Y30D01*
X1675Y30D01*
X1674Y30D01*
X1673Y30D01*
X1672Y29D01*
X1671Y29D01*
X1670Y29D01*
X1669Y29D01*
X1668Y29D01*
X1667Y28D01*
X1666Y28D01*
X1665Y28D01*
X1664Y28D01*
X1663Y28D01*
X1662Y28D01*
X1661Y27D01*
X1660Y27D01*
X1659Y27D01*
X1658Y27D01*
X1657Y27D01*
X1656Y26D01*
X1655Y26D01*
X1654Y26D01*
X1653Y26D01*
X1652Y26D01*
X1651Y26D01*
X1650Y25D01*
X1649Y25D01*
X1648Y25D01*
X1647Y25D01*
X1646Y25D01*
X1645Y25D01*
X1644Y24D01*
X1643Y24D01*
X1642Y24D01*
X1641Y24D01*
X1640Y24D01*
X1639Y24D01*
X1638Y23D01*
X1637Y23D01*
X1636Y23D01*
X1635Y23D01*
X1634Y23D01*
X1633Y23D01*
X1632Y22D01*
X1631Y22D01*
X1630Y22D01*
X1629Y22D01*
X1628Y22D01*
X1627Y22D01*
X1626Y22D01*
X1625Y21D01*
X1624Y21D01*
X1623Y21D01*
X1622Y21D01*
X1621Y21D01*
X1620Y21D01*
X1619Y20D01*
X1618Y20D01*
X1617Y20D01*
X1616Y20D01*
X1615Y20D01*
X1614Y20D01*
X1613Y20D01*
X1612Y19D01*
X1611Y19D01*
X1610Y19D01*
X1609Y19D01*
X1608Y19D01*
X1607Y19D01*
X1606Y19D01*
X1605Y18D01*
X1604Y18D01*
X1603Y18D01*
X1602Y18D01*
X1601Y18D01*
X1600Y18D01*
X1599Y18D01*
X1598Y17D01*
X1597Y17D01*
X1596Y17D01*
X1595Y17D01*
X1594Y17D01*
X1593Y17D01*
X1592Y17D01*
X1591Y17D01*
X1590Y16D01*
X1589Y16D01*
X1588Y16D01*
X1587Y16D01*
X1586Y16D01*
X1585Y16D01*
X1584Y16D01*
X1583Y15D01*
X1582Y15D01*
X1581Y15D01*
X1580Y15D01*
X1579Y15D01*
X1578Y15D01*
X1577Y15D01*
X1576Y15D01*
X1575Y14D01*
X1574Y14D01*
X1573Y14D01*
X1572Y14D01*
X1571Y14D01*
X1570Y14D01*
X1569Y14D01*
X1568Y14D01*
X1567Y14D01*
X1566Y13D01*
X1565Y13D01*
X1564Y13D01*
X1563Y13D01*
X1562Y13D01*
X1561Y13D01*
X1560Y13D01*
X1559Y13D01*
X1558Y12D01*
X1557Y12D01*
X1556Y12D01*
X1555Y12D01*
X1554Y12D01*
X1553Y12D01*
X1552Y12D01*
X1551Y12D01*
X1550Y12D01*
X1549Y11D01*
X1548Y11D01*
X1547Y11D01*
X1546Y11D01*
X1545Y11D01*
X1544Y11D01*
X1543Y11D01*
X1542Y11D01*
X1541Y11D01*
X1540Y11D01*
X1539Y10D01*
X1538Y10D01*
X1537Y10D01*
X1536Y10D01*
X1535Y10D01*
X1534Y10D01*
X1533Y10D01*
X1532Y10D01*
X1531Y10D01*
X1530Y10D01*
X1529Y9D01*
X1528Y9D01*
X1527Y9D01*
X1526Y9D01*
X1525Y9D01*
X1524Y9D01*
X1523Y9D01*
X1522Y9D01*
X1521Y9D01*
X1520Y9D01*
X1519Y9D01*
X1518Y8D01*
X1517Y8D01*
X1516Y8D01*
X1515Y8D01*
X1514Y8D01*
X1513Y8D01*
X1512Y8D01*
X1511Y8D01*
X1510Y8D01*
X1509Y8D01*
X1508Y8D01*
X1507Y8D01*
X1506Y7D01*
X1505Y7D01*
X1504Y7D01*
X1503Y7D01*
X1502Y7D01*
X1501Y7D01*
X1500Y7D01*
X1499Y7D01*
X1498Y7D01*
X1497Y7D01*
X1496Y7D01*
X1495Y7D01*
X1494Y7D01*
X1493Y6D01*
X1492Y6D01*
X1491Y6D01*
X1490Y6D01*
X1489Y6D01*
X1488Y6D01*
X1487Y6D01*
X1486Y6D01*
X1485Y6D01*
X1484Y6D01*
X1483Y6D01*
X1482Y6D01*
X1481Y6D01*
X1480Y6D01*
X1479Y5D01*
X1478Y5D01*
X1477Y5D01*
X1476Y5D01*
X1475Y5D01*
X1474Y5D01*
X1473Y5D01*
X1472Y5D01*
X1471Y5D01*
X1470Y5D01*
X1469Y5D01*
X1468Y5D01*
X1467Y5D01*
X1466Y5D01*
X1465Y5D01*
X1464Y5D01*
X1463Y5D01*
X1462Y5D01*
X1461Y4D01*
X1460Y4D01*
X1459Y4D01*
X1458Y4D01*
X1457Y4D01*
X1456Y4D01*
X1455Y4D01*
X1454Y4D01*
X1453Y4D01*
X1452Y4D01*
X1451Y4D01*
X1450Y4D01*
X1449Y4D01*
X1448Y4D01*
X1447Y4D01*
X1446Y4D01*
X1445Y4D01*
X1444Y4D01*
X1443Y4D01*
X1442Y3D01*
X1441Y3D01*
X1440Y3D01*
X1439Y3D01*
X1438Y3D01*
X1437Y3D01*
X1436Y3D01*
X1435Y3D01*
X1434Y3D01*
X1433Y3D01*
X1432Y3D01*
X1431Y3D01*
X1430Y3D01*
X1429Y3D01*
X1428Y3D01*
X1427Y3D01*
X1426Y3D01*
X1425Y3D01*
X1424Y3D01*
X1423Y3D01*
X1422Y3D01*
X1421Y3D01*
X1420Y3D01*
X1419Y3D01*
X1418Y3D01*
X1417Y3D01*
X1416Y3D01*
X1415Y3D01*
X1414Y3D01*
X1413Y3D01*
X1412Y3D01*
X1411Y2D01*
X1410Y2D01*
X1409Y2D01*
X1408Y2D01*
X1407Y2D01*
X1406Y2D01*
X1405Y2D01*
X1404Y2D01*
X1403Y2D01*
X1402Y2D01*
X1401Y2D01*
X1400Y2D01*
X1399Y2D01*
X1398Y2D01*
X1397Y2D01*
X1396Y2D01*
X1395Y2D01*
X1394Y2D01*
X1393Y2D01*
X1392Y2D01*
X1391Y2D01*
X1390Y2D01*
X1389Y2D01*
X1388Y2D01*
X1387Y2D01*
X1386Y2D01*
X1385Y2D01*
X1384Y2D01*
X1383Y2D01*
X1382Y2D01*
X1381Y2D01*
X1380Y2D01*
X1379Y2D01*
X1378Y2D01*
X1377Y2D01*
X1376Y2D01*
X1375Y2D01*
X1374Y2D01*
X1373Y2D01*
X1372Y2D01*
X1371Y2D01*
X1370Y2D01*
X1369Y2D01*
X1368Y2D01*
X1367Y2D01*
X1366Y2D01*
X1365Y2D01*
X1364Y2D01*
X1363Y2D01*
X1362Y2D01*
X1361Y2D01*
X1360Y2D01*
X1359Y2D01*
X1358Y2D01*
X1357Y2D01*
X1356Y2D01*
X1355Y2D01*
X1354Y2D01*
X1353Y2D01*
X1352Y2D01*
X1351Y2D01*
X1350Y2D01*
X1349Y2D01*
X1348Y2D01*
X1347Y2D01*
X1346Y2D01*
X1345Y2D01*
X1344Y2D01*
X1343Y2D01*
X1342Y2D01*
X1341Y2D01*
X1340Y2D01*
X1339Y2D01*
X1338Y2D01*
X1337Y2D01*
X1336Y2D01*
X1335Y2D01*
X1334Y2D01*
X1333Y2D01*
X1332Y2D01*
X1331Y3D01*
X1330Y3D01*
X1329Y3D01*
X1328Y3D01*
X1327Y3D01*
X1326Y3D01*
X1325Y3D01*
X1324Y3D01*
X1323Y3D01*
X1322Y3D01*
X1321Y3D01*
X1320Y3D01*
X1319Y3D01*
X1318Y3D01*
X1317Y3D01*
X1316Y3D01*
X1315Y3D01*
X1314Y3D01*
X1313Y3D01*
X1312Y3D01*
X1311Y3D01*
X1310Y3D01*
X1309Y3D01*
X1308Y3D01*
X1307Y3D01*
X1306Y3D01*
X1305Y3D01*
X1304Y3D01*
X1303Y3D01*
X1302Y3D01*
X1301Y3D01*
X1300Y4D01*
X1299Y4D01*
X1298Y4D01*
X1297Y4D01*
X1296Y4D01*
X1295Y4D01*
X1294Y4D01*
X1293Y4D01*
X1292Y4D01*
X1291Y4D01*
X1290Y4D01*
X1289Y4D01*
X1288Y4D01*
X1287Y4D01*
X1286Y4D01*
X1285Y4D01*
X1284Y4D01*
X1283Y4D01*
X1282Y4D01*
X1281Y5D01*
X1280Y5D01*
X1279Y5D01*
X1278Y5D01*
X1277Y5D01*
X1276Y5D01*
X1275Y5D01*
X1274Y5D01*
X1273Y5D01*
X1272Y5D01*
X1271Y5D01*
X1270Y5D01*
X1269Y5D01*
X1268Y5D01*
X1267Y5D01*
X1266Y5D01*
X1265Y5D01*
X1264Y5D01*
X1263Y6D01*
X1262Y6D01*
X1261Y6D01*
X1260Y6D01*
X1259Y6D01*
X1258Y6D01*
X1257Y6D01*
X1256Y6D01*
X1255Y6D01*
X1254Y6D01*
X1253Y6D01*
X1252Y6D01*
X1251Y6D01*
X1250Y6D01*
X1249Y7D01*
X1248Y7D01*
X1247Y7D01*
X1246Y7D01*
X1245Y7D01*
X1244Y7D01*
X1243Y7D01*
X1242Y7D01*
X1241Y7D01*
X1240Y7D01*
X1239Y7D01*
X1238Y7D01*
X1237Y7D01*
X1236Y8D01*
X1235Y8D01*
X1234Y8D01*
X1233Y8D01*
X1232Y8D01*
X1231Y8D01*
X1230Y8D01*
X1229Y8D01*
X1228Y8D01*
X1227Y8D01*
X1226Y8D01*
X1225Y8D01*
X1224Y9D01*
X1223Y9D01*
X1222Y9D01*
X1221Y9D01*
X1220Y9D01*
X1219Y9D01*
X1218Y9D01*
X1217Y9D01*
X1216Y9D01*
X1215Y9D01*
X1214Y9D01*
X1213Y10D01*
X1212Y10D01*
X1211Y10D01*
X1210Y10D01*
X1209Y10D01*
X1208Y10D01*
X1207Y10D01*
X1206Y10D01*
X1205Y10D01*
X1204Y10D01*
X1203Y11D01*
X1202Y11D01*
X1201Y11D01*
X1200Y11D01*
X1199Y11D01*
X1198Y11D01*
X1197Y11D01*
X1196Y11D01*
X1195Y11D01*
X1194Y11D01*
X1193Y12D01*
X1192Y12D01*
X1191Y12D01*
X1190Y12D01*
X1189Y12D01*
X1188Y12D01*
X1187Y12D01*
X1186Y12D01*
X1185Y12D01*
X1184Y13D01*
X1183Y13D01*
X1182Y13D01*
X1181Y13D01*
X1180Y13D01*
X1179Y13D01*
X1178Y13D01*
X1177Y13D01*
X1176Y14D01*
X1175Y14D01*
X1174Y14D01*
X1173Y14D01*
X1172Y14D01*
X1171Y14D01*
X1170Y14D01*
X1169Y14D01*
X1168Y14D01*
X1167Y15D01*
X1166Y15D01*
X1165Y15D01*
X1164Y15D01*
X1163Y15D01*
X1162Y15D01*
X1161Y15D01*
X1160Y15D01*
X1159Y16D01*
X1158Y16D01*
X1157Y16D01*
X1156Y16D01*
X1155Y16D01*
X1154Y16D01*
X1153Y16D01*
X1152Y17D01*
X1151Y17D01*
X1150Y17D01*
X1149Y17D01*
X1148Y17D01*
X1147Y17D01*
X1146Y17D01*
X1145Y17D01*
X1144Y18D01*
X1143Y18D01*
X1142Y18D01*
X1141Y18D01*
X1140Y18D01*
X1139Y18D01*
X1138Y18D01*
X1137Y19D01*
X1136Y19D01*
X1135Y19D01*
X1134Y19D01*
X1133Y19D01*
X1132Y19D01*
X1131Y19D01*
X1130Y20D01*
X1129Y20D01*
X1128Y20D01*
X1127Y20D01*
X1126Y20D01*
X1125Y20D01*
X1124Y20D01*
X1123Y21D01*
X1122Y21D01*
X1121Y21D01*
X1120Y21D01*
X1119Y21D01*
X1118Y21D01*
X1117Y22D01*
X1116Y22D01*
X1115Y22D01*
X1114Y22D01*
X1113Y22D01*
X1112Y22D01*
X1111Y22D01*
X1110Y23D01*
X1109Y23D01*
X1108Y23D01*
X1107Y23D01*
X1106Y23D01*
X1105Y23D01*
X1104Y24D01*
X1103Y24D01*
X1102Y24D01*
X1101Y24D01*
X1100Y24D01*
X1099Y24D01*
X1098Y25D01*
X1097Y25D01*
X1096Y25D01*
X1095Y25D01*
X1094Y25D01*
X1093Y25D01*
X1092Y26D01*
X1091Y26D01*
X1090Y26D01*
X1089Y26D01*
X1088Y26D01*
X1087Y26D01*
X1086Y27D01*
X1085Y27D01*
X1084Y27D01*
X1083Y27D01*
X1082Y27D01*
X1081Y28D01*
X1080Y28D01*
X1079Y28D01*
X1078Y28D01*
X1077Y28D01*
X1076Y28D01*
X1075Y29D01*
X1074Y29D01*
X1073Y29D01*
X1072Y29D01*
X1071Y29D01*
X1070Y30D01*
X1069Y30D01*
X1068Y30D01*
X1067Y30D01*
X1066Y30D01*
X1065Y30D01*
X1064Y31D01*
X1063Y31D01*
X1062Y31D01*
X1061Y31D01*
X1060Y31D01*
X1059Y32D01*
X1058Y32D01*
X1057Y32D01*
X1056Y32D01*
X1055Y32D01*
X1054Y33D01*
X1053Y33D01*
X1052Y33D01*
X1051Y33D01*
X1050Y33D01*
X1049Y34D01*
X1048Y34D01*
X1047Y34D01*
X1046Y34D01*
X1045Y34D01*
X1044Y35D01*
X1043Y35D01*
X1042Y35D01*
X1041Y35D01*
X1040Y35D01*
X1039Y36D01*
X1038Y36D01*
X1037Y36D01*
X1036Y36D01*
X1035Y36D01*
X1034Y37D01*
X1033Y37D01*
X1032Y37D01*
X1031Y37D01*
X1030Y37D01*
X1029Y38D01*
X1028Y38D01*
X1027Y38D01*
X1026Y38D01*
X1025Y38D01*
X1024Y39D01*
X1023Y39D01*
X1022Y39D01*
X1021Y39D01*
X1020Y40D01*
X1019Y40D01*
X1018Y40D01*
X1017Y40D01*
X1016Y41D01*
X1015Y41D01*
X1014Y41D01*
X1013Y41D01*
X1012Y41D01*
X1011Y42D01*
X1010Y42D01*
X1009Y42D01*
X1008Y42D01*
X1007Y43D01*
X1006Y43D01*
X1005Y43D01*
X1004Y43D01*
X1003Y43D01*
X1002Y44D01*
X1001Y44D01*
X1000Y44D01*
X999Y44D01*
X998Y45D01*
X997Y45D01*
X996Y45D01*
X995Y45D01*
X994Y45D01*
X993Y46D01*
X992Y46D01*
X991Y46D01*
X990Y46D01*
X989Y47D01*
X988Y47D01*
X987Y47D01*
X986Y47D01*
X985Y48D01*
X984Y48D01*
X983Y48D01*
X982Y48D01*
X981Y49D01*
X980Y49D01*
X979Y49D01*
X978Y49D01*
X977Y50D01*
X976Y50D01*
X975Y50D01*
X974Y50D01*
X973Y51D01*
X972Y51D01*
X971Y51D01*
X970Y51D01*
X969Y52D01*
X968Y52D01*
X967Y52D01*
X966Y52D01*
X965Y53D01*
X964Y53D01*
X963Y53D01*
X962Y53D01*
X961Y54D01*
X960Y54D01*
X959Y54D01*
X958Y54D01*
X957Y55D01*
X956Y55D01*
X955Y55D01*
X954Y56D01*
X953Y56D01*
X952Y56D01*
X951Y56D01*
X950Y57D01*
X949Y57D01*
X948Y57D01*
X947Y57D01*
X946Y58D01*
X945Y58D01*
X944Y58D01*
X943Y58D01*
X942Y59D01*
X941Y59D01*
X940Y59D01*
X939Y60D01*
X938Y60D01*
X937Y60D01*
X936Y60D01*
X935Y61D01*
X934Y61D01*
X933Y61D01*
X932Y61D01*
X931Y62D01*
X930Y62D01*
X929Y62D01*
X928Y63D01*
X927Y63D01*
X926Y63D01*
X925Y63D01*
X924Y64D01*
X923Y64D01*
X922Y64D01*
X921Y65D01*
X920Y65D01*
X919Y65D01*
X918Y65D01*
X917Y66D01*
X916Y66D01*
X915Y66D01*
X914Y67D01*
X913Y67D01*
X912Y67D01*
X911Y67D01*
X910Y68D01*
X909Y68D01*
X908Y68D01*
X907Y69D01*
X906Y69D01*
X905Y69D01*
X904Y70D01*
X903Y70D01*
X902Y70D01*
X901Y70D01*
X900Y71D01*
X899Y71D01*
X898Y71D01*
X897Y72D01*
X896Y72D01*
X895Y72D01*
X894Y73D01*
X893Y73D01*
X892Y73D01*
X891Y74D01*
X890Y74D01*
X889Y74D01*
X888Y74D01*
X887Y75D01*
X886Y75D01*
X885Y75D01*
X884Y76D01*
X883Y76D01*
X882Y76D01*
X881Y77D01*
X880Y77D01*
X879Y77D01*
X878Y78D01*
X877Y78D01*
X876Y78D01*
X875Y79D01*
X874Y79D01*
X873Y79D01*
X872Y79D01*
X871Y80D01*
X870Y80D01*
X869Y80D01*
X868Y81D01*
X867Y81D01*
X866Y81D01*
X865Y82D01*
X864Y82D01*
X863Y82D01*
X862Y83D01*
X861Y83D01*
X860Y83D01*
X859Y84D01*
X858Y84D01*
X857Y84D01*
X856Y85D01*
X855Y85D01*
X854Y85D01*
X853Y86D01*
X852Y86D01*
X851Y86D01*
X850Y87D01*
X849Y87D01*
X848Y87D01*
X847Y88D01*
X846Y88D01*
X845Y88D01*
X844Y89D01*
X843Y89D01*
X842Y90D01*
X841Y90D01*
X840Y90D01*
X839Y91D01*
X838Y91D01*
X837Y91D01*
X836Y92D01*
X835Y92D01*
X834Y92D01*
X833Y93D01*
X832Y93D01*
X831Y93D01*
X830Y94D01*
X829Y94D01*
X828Y94D01*
X827Y95D01*
X826Y95D01*
X825Y96D01*
X824Y96D01*
X823Y96D01*
X822Y97D01*
X821Y97D01*
X820Y97D01*
X819Y98D01*
X818Y98D01*
X817Y98D01*
X816Y99D01*
X815Y99D01*
X814Y100D01*
X813Y100D01*
X812Y100D01*
X811Y101D01*
X810Y101D01*
X809Y101D01*
X808Y102D01*
X807Y102D01*
X806Y102D01*
X805Y103D01*
X804Y103D01*
X803Y104D01*
X802Y104D01*
X801Y104D01*
X800Y105D01*
X799Y105D01*
X798Y105D01*
X797Y106D01*
X796Y106D01*
X795Y107D01*
X794Y107D01*
X793Y107D01*
X792Y108D01*
X791Y108D01*
X790Y109D01*
X789Y109D01*
X788Y109D01*
X787Y110D01*
X786Y110D01*
X785Y111D01*
X784Y111D01*
X783Y111D01*
X782Y112D01*
X781Y112D01*
X780Y112D01*
X779Y113D01*
X778Y113D01*
X777Y114D01*
X776Y114D01*
X775Y114D01*
X774Y115D01*
X773Y115D01*
X772Y116D01*
X771Y116D01*
X770Y116D01*
X769Y117D01*
X768Y117D01*
X767Y118D01*
X766Y118D01*
X765Y119D01*
X764Y119D01*
X763Y119D01*
X762Y120D01*
X761Y120D01*
X760Y121D01*
X759Y121D01*
X758Y121D01*
X757Y122D01*
X756Y122D01*
X755Y123D01*
X754Y123D01*
X753Y123D01*
X752Y124D01*
X751Y124D01*
X750Y125D01*
X749Y125D01*
X748Y125D01*
X747Y126D01*
X746Y126D01*
X745Y127D01*
X744Y127D01*
X743Y128D01*
X742Y128D01*
X741Y128D01*
X740Y129D01*
X739Y129D01*
X738Y130D01*
X737Y130D01*
X736Y131D01*
X735Y131D01*
X734Y132D01*
X733Y132D01*
X732Y132D01*
X731Y133D01*
X730Y133D01*
X729Y134D01*
X728Y134D01*
X727Y135D01*
X726Y135D01*
X725Y135D01*
X724Y136D01*
X723Y136D01*
X722Y137D01*
X721Y137D01*
X720Y138D01*
X719Y138D01*
X718Y139D01*
X717Y139D01*
X716Y139D01*
X715Y140D01*
X714Y140D01*
X713Y141D01*
X712Y141D01*
X711Y142D01*
X710Y142D01*
X709Y143D01*
X708Y143D01*
X707Y144D01*
X706Y144D01*
X705Y144D01*
X704Y145D01*
X703Y145D01*
X702Y146D01*
X701Y146D01*
X700Y147D01*
X699Y147D01*
X698Y148D01*
X697Y148D01*
X696Y149D01*
X695Y149D01*
X694Y150D01*
X693Y150D01*
X692Y150D01*
X691Y151D01*
X690Y151D01*
X689Y152D01*
X688Y152D01*
X687Y153D01*
X686Y153D01*
X685Y154D01*
X684Y154D01*
X683Y155D01*
X682Y155D01*
X681Y156D01*
X680Y156D01*
X679Y157D01*
X678Y157D01*
X677Y158D01*
X676Y158D01*
X675Y159D01*
X674Y159D01*
X673Y160D01*
X672Y160D01*
X671Y161D01*
X670Y161D01*
X669Y162D01*
X668Y162D01*
X667Y163D01*
X666Y163D01*
X665Y164D01*
X664Y164D01*
X663Y165D01*
X662Y165D01*
X661Y166D01*
X660Y166D01*
X659Y167D01*
X658Y167D01*
X657Y168D01*
X656Y168D01*
X655Y169D01*
X654Y169D01*
X653Y170D01*
X652Y170D01*
X651Y171D01*
X650Y171D01*
X649Y172D01*
X648Y172D01*
X647Y173D01*
X646Y173D01*
X645Y174D01*
X644Y174D01*
X643Y175D01*
X642Y175D01*
X641Y176D01*
X640Y176D01*
X639Y177D01*
X638Y177D01*
X637Y178D01*
X636Y178D01*
X635Y179D01*
X634Y179D01*
X633Y180D01*
X632Y180D01*
X631Y181D01*
X630Y182D01*
X629Y182D01*
X628Y183D01*
X627Y183D01*
X626Y184D01*
X625Y184D01*
X624Y185D01*
X623Y185D01*
X622Y186D01*
X621Y186D01*
X620Y187D01*
X619Y187D01*
X618Y188D01*
X617Y189D01*
X616Y189D01*
X615Y190D01*
X614Y190D01*
X613Y191D01*
X612Y191D01*
X611Y192D01*
X610Y192D01*
X609Y193D01*
X608Y193D01*
X607Y194D01*
X606Y195D01*
X605Y195D01*
X604Y196D01*
X603Y196D01*
X602Y197D01*
X601Y197D01*
X600Y198D01*
X599Y199D01*
X598Y199D01*
X597Y200D01*
X596Y200D01*
X595Y201D01*
X594Y201D01*
X593Y202D01*
X592Y203D01*
X591Y203D01*
X590Y204D01*
X589Y204D01*
X588Y205D01*
X587Y205D01*
X586Y206D01*
X585Y207D01*
X584Y207D01*
X583Y208D01*
X582Y208D01*
X581Y209D01*
X580Y209D01*
X579Y210D01*
X578Y211D01*
X577Y211D01*
X576Y212D01*
X575Y212D01*
X574Y213D01*
X573Y214D01*
X572Y214D01*
X571Y215D01*
X570Y215D01*
X569Y216D01*
X568Y217D01*
X567Y217D01*
X566Y218D01*
X565Y218D01*
X564Y219D01*
X563Y220D01*
X562Y220D01*
X561Y221D01*
X560Y221D01*
X559Y222D01*
X558Y223D01*
X557Y223D01*
X556Y224D01*
X555Y224D01*
X554Y225D01*
X553Y226D01*
X552Y226D01*
X551Y227D01*
X550Y227D01*
X549Y228D01*
X548Y229D01*
X547Y229D01*
X546Y230D01*
X545Y231D01*
X544Y231D01*
X543Y232D01*
X542Y232D01*
X541Y233D01*
X540Y234D01*
X539Y234D01*
X538Y235D01*
X537Y236D01*
X536Y236D01*
X535Y237D01*
X534Y237D01*
X533Y238D01*
X532Y239D01*
X531Y239D01*
X530Y240D01*
X529Y241D01*
X528Y241D01*
X527Y242D01*
X526Y243D01*
X525Y243D01*
X524Y244D01*
X523Y244D01*
X522Y245D01*
X521Y246D01*
X520Y246D01*
X519Y247D01*
X518Y248D01*
X517Y248D01*
X516Y249D01*
X515Y250D01*
X514Y250D01*
X513Y251D01*
X512Y252D01*
X511Y252D01*
X510Y253D01*
X509Y254D01*
X508Y254D01*
X507Y255D01*
X506Y256D01*
X505Y256D01*
X504Y257D01*
X503Y258D01*
X502Y258D01*
X501Y259D01*
X500Y260D01*
X499Y260D01*
X498Y261D01*
X497Y262D01*
X496Y263D01*
X495Y263D01*
X494Y264D01*
X493Y265D01*
X492Y265D01*
X491Y266D01*
X490Y267D01*
X489Y267D01*
X488Y268D01*
X487Y269D01*
X486Y270D01*
X485Y270D01*
X484Y271D01*
X483Y272D01*
X482Y272D01*
X481Y273D01*
X480Y274D01*
X479Y274D01*
X478Y275D01*
X477Y276D01*
X476Y276D01*
X475Y277D01*
X474Y278D01*
X473Y279D01*
X472Y279D01*
X471Y280D01*
X470Y281D01*
X469Y282D01*
X468Y282D01*
X467Y283D01*
X466Y284D01*
X465Y284D01*
X464Y285D01*
X463Y286D01*
X462Y287D01*
X461Y287D01*
X460Y288D01*
X459Y289D01*
X458Y290D01*
X457Y290D01*
X456Y291D01*
X455Y292D01*
X454Y293D01*
X453Y293D01*
X452Y294D01*
X451Y295D01*
X450Y295D01*
X449Y296D01*
X448Y297D01*
X447Y298D01*
X446Y298D01*
X445Y299D01*
X444Y300D01*
X443Y301D01*
X442Y302D01*
X441Y302D01*
X440Y303D01*
X439Y304D01*
X438Y305D01*
X437Y305D01*
X436Y306D01*
X435Y307D01*
X434Y308D01*
X433Y308D01*
X432Y309D01*
X431Y310D01*
X430Y311D01*
X429Y312D01*
X428Y312D01*
X427Y313D01*
X426Y314D01*
X425Y315D01*
X424Y315D01*
X423Y316D01*
X422Y317D01*
X421Y318D01*
X420Y319D01*
X419Y319D01*
X418Y320D01*
X417Y321D01*
X416Y322D01*
X415Y323D01*
X414Y323D01*
X413Y324D01*
X412Y325D01*
X411Y326D01*
X410Y327D01*
X409Y327D01*
X408Y328D01*
X407Y329D01*
X406Y330D01*
X405Y331D01*
X404Y332D01*
X403Y332D01*
X402Y333D01*
X401Y334D01*
X400Y335D01*
X399Y336D01*
X398Y336D01*
X397Y337D01*
X396Y338D01*
X395Y339D01*
X394Y340D01*
X393Y341D01*
X392Y342D01*
X391Y342D01*
X390Y343D01*
X389Y344D01*
X388Y345D01*
X387Y346D01*
X386Y347D01*
X385Y347D01*
X384Y348D01*
X383Y349D01*
X382Y350D01*
X381Y351D01*
X380Y352D01*
X379Y353D01*
X378Y353D01*
X377Y354D01*
X376Y355D01*
X375Y356D01*
X374Y357D01*
X373Y358D01*
X372Y359D01*
X371Y360D01*
X370Y361D01*
X369Y361D01*
X368Y362D01*
X367Y363D01*
X366Y364D01*
X365Y365D01*
X364Y366D01*
X363Y367D01*
X362Y368D01*
X361Y368D01*
X360Y369D01*
X359Y370D01*
X358Y371D01*
X357Y372D01*
X356Y373D01*
X355Y374D01*
X354Y375D01*
X353Y376D01*
X352Y377D01*
X351Y378D01*
X350Y379D01*
X349Y379D01*
X348Y380D01*
X347Y381D01*
X346Y382D01*
X345Y383D01*
X344Y384D01*
X343Y385D01*
X342Y386D01*
X341Y387D01*
X340Y388D01*
X339Y389D01*
X338Y390D01*
X337Y391D01*
X336Y392D01*
X335Y392D01*
X334Y393D01*
X333Y394D01*
X332Y395D01*
X331Y396D01*
X330Y397D01*
X329Y398D01*
X328Y399D01*
X327Y400D01*
X326Y401D01*
X325Y402D01*
X324Y403D01*
X323Y404D01*
X322Y405D01*
X321Y406D01*
X320Y407D01*
X319Y408D01*
X318Y409D01*
X317Y410D01*
X316Y411D01*
X315Y412D01*
X314Y413D01*
X313Y414D01*
X312Y415D01*
X311Y416D01*
X310Y417D01*
X309Y418D01*
X308Y419D01*
X307Y420D01*
X306Y421D01*
X305Y422D01*
X304Y423D01*
X303Y424D01*
X302Y425D01*
X301Y426D01*
X300Y427D01*
X299Y428D01*
X298Y429D01*
X297Y430D01*
X296Y431D01*
X295Y432D01*
X294Y433D01*
X293Y434D01*
X292Y435D01*
X292Y436D01*
X291Y437D01*
X290Y438D01*
X289Y439D01*
X288Y440D01*
X287Y441D01*
X286Y442D01*
X285Y443D01*
X284Y444D01*
X283Y445D01*
X282Y446D01*
X281Y447D01*
X280Y448D01*
X279Y449D01*
X279Y450D01*
X278Y451D01*
X277Y452D01*
X276Y453D01*
X275Y454D01*
X274Y455D01*
X273Y456D01*
X272Y457D01*
X271Y458D01*
X270Y459D01*
X269Y460D01*
X269Y461D01*
X268Y462D01*
X267Y463D01*
X266Y464D01*
X265Y465D01*
X264Y466D01*
X263Y467D01*
X262Y468D01*
X261Y469D01*
X261Y470D01*
X260Y471D01*
X259Y472D01*
X258Y473D01*
X257Y474D01*
X256Y475D01*
X255Y476D01*
X254Y477D01*
X254Y478D01*
X253Y479D01*
X252Y480D01*
X251Y481D01*
X250Y482D01*
X249Y483D01*
X248Y484D01*
X248Y485D01*
X247Y486D01*
X246Y487D01*
X245Y488D01*
X244Y489D01*
X243Y490D01*
X243Y491D01*
X242Y492D01*
X241Y493D01*
X240Y494D01*
X239Y495D01*
X238Y496D01*
X238Y497D01*
X237Y498D01*
X236Y499D01*
X235Y500D01*
X234Y501D01*
X233Y502D01*
X233Y503D01*
X232Y504D01*
X231Y505D01*
X230Y506D01*
X229Y507D01*
X229Y508D01*
X228Y509D01*
X227Y510D01*
X226Y511D01*
X225Y512D01*
X225Y513D01*
X224Y514D01*
X223Y515D01*
X222Y516D01*
X221Y517D01*
X221Y518D01*
X220Y519D01*
X219Y520D01*
X218Y521D01*
X217Y522D01*
X217Y523D01*
X216Y524D01*
X215Y525D01*
X214Y526D01*
X214Y527D01*
X213Y528D01*
X212Y529D01*
X211Y530D01*
X211Y531D01*
X210Y532D01*
X209Y533D01*
X208Y534D01*
X208Y535D01*
X207Y536D01*
X206Y537D01*
X205Y538D01*
X205Y539D01*
X204Y540D01*
X203Y541D01*
X202Y542D01*
X202Y543D01*
X201Y544D01*
X200Y545D01*
X199Y546D01*
X199Y547D01*
X198Y548D01*
X197Y549D01*
X196Y550D01*
X196Y551D01*
X195Y552D01*
X194Y553D01*
X194Y554D01*
X193Y555D01*
X192Y556D01*
X191Y557D01*
X191Y558D01*
X190Y559D01*
X189Y560D01*
X188Y561D01*
X188Y562D01*
X187Y563D01*
X186Y564D01*
X186Y565D01*
X185Y566D01*
X184Y567D01*
X183Y568D01*
X183Y569D01*
X182Y570D01*
X181Y571D01*
X181Y572D01*
X180Y573D01*
X179Y574D01*
X179Y575D01*
X178Y576D01*
X177Y577D01*
X177Y578D01*
X176Y579D01*
X175Y580D01*
X175Y581D01*
X174Y582D01*
X173Y583D01*
X173Y584D01*
X172Y585D01*
X171Y586D01*
X171Y587D01*
X170Y588D01*
X169Y589D01*
X168Y590D01*
X168Y591D01*
X167Y592D01*
X166Y593D01*
X166Y594D01*
X165Y595D01*
X165Y596D01*
X164Y597D01*
X163Y598D01*
X163Y599D01*
X162Y600D01*
X161Y601D01*
X161Y602D01*
X160Y603D01*
X159Y604D01*
X159Y605D01*
X158Y606D01*
X157Y607D01*
X157Y608D01*
X156Y609D01*
X156Y610D01*
X155Y611D01*
X154Y612D01*
X154Y613D01*
X153Y614D01*
X152Y615D01*
X152Y616D01*
X151Y617D01*
X150Y618D01*
X150Y619D01*
X149Y620D01*
X149Y621D01*
X148Y622D01*
X147Y623D01*
X147Y624D01*
X146Y625D01*
X146Y626D01*
X145Y627D01*
X144Y628D01*
X144Y629D01*
X143Y630D01*
X143Y631D01*
X142Y632D01*
X141Y633D01*
X141Y634D01*
X140Y635D01*
X140Y636D01*
X139Y637D01*
X138Y638D01*
X138Y639D01*
X137Y640D01*
X137Y641D01*
X136Y642D01*
X135Y643D01*
X135Y644D01*
X134Y645D01*
X134Y646D01*
X133Y647D01*
X133Y648D01*
X132Y649D01*
X131Y650D01*
X131Y651D01*
X130Y652D01*
X130Y653D01*
X129Y654D01*
X129Y655D01*
X128Y656D01*
X127Y657D01*
X127Y658D01*
X126Y659D01*
X126Y660D01*
X125Y661D01*
X125Y662D01*
X124Y663D01*
X124Y664D01*
X123Y665D01*
X122Y666D01*
X122Y667D01*
X121Y668D01*
X121Y669D01*
X120Y670D01*
X120Y671D01*
X119Y672D01*
X119Y673D01*
X118Y674D01*
X118Y675D01*
X117Y676D01*
X116Y677D01*
X116Y678D01*
X115Y679D01*
X115Y680D01*
X114Y681D01*
X114Y682D01*
X113Y683D01*
X113Y684D01*
X112Y685D01*
X112Y686D01*
X111Y687D01*
X111Y688D01*
X110Y689D01*
X110Y690D01*
X109Y691D01*
X109Y692D01*
X108Y693D01*
X107Y694D01*
X107Y696D01*
X106Y697D01*
X106Y698D01*
X105Y699D01*
X105Y700D01*
X104Y701D01*
X104Y702D01*
X103Y703D01*
X103Y704D01*
X102Y705D01*
X102Y706D01*
X101Y707D01*
X101Y708D01*
X100Y709D01*
X100Y710D01*
X99Y711D01*
X99Y712D01*
X98Y713D01*
X98Y714D01*
X97Y715D01*
X97Y716D01*
X96Y717D01*
X96Y718D01*
X95Y719D01*
X95Y720D01*
X94Y721D01*
X94Y722D01*
X93Y723D01*
X93Y724D01*
X92Y725D01*
X92Y726D01*
X91Y727D01*
X91Y729D01*
X90Y730D01*
X90Y731D01*
X89Y732D01*
X89Y733D01*
X88Y734D01*
X88Y735D01*
X87Y736D01*
X87Y737D01*
X86Y738D01*
X86Y739D01*
X85Y740D01*
X85Y742D01*
X84Y743D01*
X84Y744D01*
X83Y745D01*
X83Y746D01*
X82Y747D01*
X82Y748D01*
X81Y749D01*
X81Y751D01*
X80Y752D01*
X80Y753D01*
X79Y754D01*
X79Y755D01*
X78Y756D01*
X78Y758D01*
X77Y759D01*
X77Y760D01*
X76Y761D01*
X76Y762D01*
X75Y763D01*
X75Y765D01*
X74Y766D01*
X74Y767D01*
X73Y768D01*
X73Y769D01*
X72Y770D01*
X72Y772D01*
X71Y773D01*
X71Y774D01*
X70Y775D01*
X70Y777D01*
X69Y778D01*
X69Y780D01*
X68Y781D01*
X68Y782D01*
X67Y783D01*
X67Y785D01*
X66Y786D01*
X66Y787D01*
X65Y788D01*
X65Y790D01*
X64Y791D01*
X64Y792D01*
X63Y793D01*
X63Y795D01*
X62Y796D01*
X62Y797D01*
X61Y798D01*
X61Y800D01*
X60Y801D01*
X60Y803D01*
X59Y804D01*
X59Y806D01*
X58Y807D01*
X58Y809D01*
X57Y810D01*
X57Y811D01*
X56Y812D01*
X56Y814D01*
X55Y815D01*
X55Y817D01*
X54Y818D01*
X54Y820D01*
X53Y821D01*
X53Y822D01*
X52Y823D01*
X52Y825D01*
X51Y826D01*
X51Y828D01*
X50Y829D01*
X50Y831D01*
X49Y832D01*
X49Y834D01*
X48Y835D01*
X48Y838D01*
X47Y839D01*
X47Y841D01*
X46Y842D01*
X46Y844D01*
X45Y845D01*
X45Y847D01*
X44Y848D01*
X44Y850D01*
X43Y851D01*
X43Y853D01*
X42Y854D01*
X42Y856D01*
X41Y857D01*
X41Y860D01*
X40Y861D01*
X40Y863D01*
X39Y864D01*
X39Y867D01*
X38Y868D01*
X38Y870D01*
X37Y871D01*
X37Y873D01*
X36Y874D01*
X36Y877D01*
X35Y878D01*
X35Y880D01*
X34Y881D01*
X34Y884D01*
X33Y885D01*
X33Y888D01*
X32Y889D01*
X32Y892D01*
X31Y893D01*
X31Y895D01*
X30Y896D01*
X30Y899D01*
X29Y900D01*
X29Y903D01*
X28Y904D01*
X28Y907D01*
X27Y908D01*
X27Y911D01*
X26Y912D01*
X26Y916D01*
X25Y917D01*
X25Y920D01*
X24Y921D01*
X24Y924D01*
X23Y925D01*
X23Y929D01*
X22Y930D01*
X22Y933D01*
X21Y934D01*
X21Y938D01*
X20Y939D01*
X20Y943D01*
X19Y944D01*
X19Y948D01*
X18Y949D01*
X18Y953D01*
X17Y954D01*
X17Y958D01*
X16Y959D01*
X16Y963D01*
X15Y964D01*
X15Y969D01*
X14Y970D01*
X14Y974D01*
X13Y975D01*
X13Y980D01*
X12Y981D01*
X12Y986D01*
X11Y987D01*
X11Y993D01*
X10Y994D01*
X10Y1000D01*
X9Y1001D01*
X9Y1007D01*
X8Y1008D01*
X8Y1015D01*
X7Y1016D01*
X7Y1023D01*
X6Y1024D01*
X6Y1032D01*
X5Y1033D01*
X5Y1041D01*
X4Y1042D01*
X4Y1052D01*
X3Y1053D01*
X3Y1065D01*
X2Y1066D01*
X2Y1081D01*
X1Y1082D01*
X1Y1103D01*
X0Y1104D01*
X0Y1164D01*
X1Y1165D01*
X1Y1186D01*
X2Y1187D01*
X2Y1202D01*
X3Y1203D01*
X3Y1215D01*
X4Y1216D01*
X4Y1226D01*
X5Y1227D01*
X5Y1235D01*
X6Y1236D01*
X6Y1244D01*
X7Y1245D01*
X7Y1252D01*
X8Y1253D01*
X8Y1260D01*
X9Y1261D01*
X9Y1267D01*
X10Y1268D01*
X10Y1274D01*
X11Y1275D01*
X11Y1281D01*
X12Y1282D01*
X12Y1287D01*
X13Y1288D01*
X13Y1293D01*
X14Y1294D01*
X14Y1298D01*
X15Y1299D01*
X15Y1304D01*
X16Y1305D01*
X16Y1309D01*
X17Y1310D01*
X17Y1314D01*
X18Y1315D01*
X18Y1319D01*
X19Y1320D01*
X19Y1324D01*
X20Y1325D01*
X20Y1329D01*
X21Y1330D01*
X21Y1334D01*
X22Y1335D01*
X22Y1338D01*
X23Y1339D01*
X23Y1343D01*
X24Y1344D01*
X24Y1347D01*
X25Y1348D01*
X25Y1351D01*
X26Y1352D01*
X26Y1356D01*
X27Y1357D01*
X27Y1360D01*
X28Y1361D01*
X28Y1364D01*
X29Y1365D01*
X29Y1368D01*
X30Y1369D01*
X30Y1371D01*
X31Y1372D01*
X31Y1375D01*
X32Y1376D01*
X32Y1379D01*
X33Y1380D01*
X33Y1383D01*
X34Y1384D01*
X34Y1387D01*
X35Y1388D01*
X35Y1390D01*
X36Y1391D01*
X36Y1394D01*
X37Y1395D01*
X37Y1397D01*
X38Y1398D01*
X38Y1400D01*
X39Y1401D01*
X39Y1404D01*
X40Y1405D01*
X40Y1407D01*
X41Y1408D01*
X41Y1411D01*
X42Y1412D01*
X42Y1414D01*
X43Y1415D01*
X43Y1417D01*
X44Y1418D01*
X44Y1420D01*
X45Y1421D01*
X45Y1423D01*
X46Y1424D01*
X46Y1426D01*
X47Y1427D01*
X47Y1429D01*
X48Y1430D01*
X48Y1432D01*
X49Y1433D01*
X49Y1436D01*
X50Y1437D01*
X50Y1439D01*
X51Y1440D01*
X51Y1442D01*
X52Y1443D01*
X52Y1445D01*
X53Y1446D01*
X53Y1447D01*
X54Y1448D01*
X54Y1450D01*
X55Y1451D01*
X55Y1453D01*
X56Y1454D01*
X56Y1456D01*
X57Y1457D01*
X57Y1458D01*
X58Y1459D01*
X58Y1461D01*
X59Y1462D01*
X59Y1464D01*
X60Y1465D01*
X60Y1467D01*
X61Y1468D01*
X61Y1470D01*
X62Y1471D01*
X62Y1472D01*
X63Y1473D01*
X63Y1475D01*
X64Y1476D01*
X64Y1477D01*
X65Y1478D01*
X65Y1480D01*
X66Y1481D01*
X66Y1482D01*
X67Y1483D01*
X67Y1485D01*
X68Y1486D01*
X68Y1487D01*
X69Y1488D01*
X69Y1490D01*
X70Y1491D01*
X70Y1492D01*
X71Y1493D01*
X71Y1495D01*
X72Y1496D01*
X72Y1498D01*
X73Y1499D01*
X73Y1500D01*
X74Y1501D01*
X74Y1502D01*
X75Y1503D01*
X75Y1505D01*
X76Y1506D01*
X76Y1507D01*
X77Y1508D01*
X77Y1509D01*
X78Y1510D01*
X78Y1512D01*
X79Y1513D01*
X79Y1514D01*
X80Y1515D01*
X80Y1516D01*
X81Y1517D01*
X81Y1519D01*
X82Y1520D01*
X82Y1521D01*
X83Y1522D01*
X83Y1523D01*
X84Y1524D01*
X84Y1525D01*
X85Y1526D01*
X85Y1528D01*
X86Y1529D01*
X86Y1530D01*
X87Y1531D01*
X87Y1532D01*
X88Y1533D01*
X88Y1534D01*
X89Y1535D01*
X89Y1536D01*
X90Y1537D01*
X90Y1538D01*
X91Y1539D01*
X91Y1541D01*
X92Y1542D01*
X92Y1543D01*
X93Y1544D01*
X93Y1545D01*
X94Y1546D01*
X94Y1547D01*
X95Y1548D01*
X95Y1549D01*
X96Y1550D01*
X96Y1551D01*
X97Y1552D01*
X97Y1553D01*
X98Y1554D01*
X98Y1555D01*
X99Y1556D01*
X99Y1557D01*
X100Y1558D01*
X100Y1559D01*
X101Y1560D01*
X101Y1561D01*
X102Y1562D01*
X102Y1563D01*
X103Y1564D01*
X103Y1565D01*
X104Y1566D01*
X104Y1567D01*
X105Y1568D01*
X105Y1569D01*
X106Y1570D01*
X106Y1571D01*
X107Y1572D01*
X107Y1574D01*
X108Y1575D01*
X109Y1576D01*
X109Y1577D01*
X110Y1578D01*
X110Y1579D01*
X111Y1580D01*
X111Y1581D01*
X112Y1582D01*
X112Y1583D01*
X113Y1584D01*
X113Y1585D01*
X114Y1586D01*
X114Y1587D01*
X115Y1588D01*
X115Y1589D01*
X116Y1590D01*
X116Y1591D01*
X117Y1592D01*
X118Y1593D01*
X118Y1594D01*
X119Y1595D01*
X119Y1596D01*
X120Y1597D01*
X120Y1598D01*
X121Y1599D01*
X121Y1600D01*
X122Y1601D01*
X122Y1602D01*
X123Y1603D01*
X124Y1604D01*
X124Y1605D01*
X125Y1606D01*
X125Y1607D01*
X126Y1608D01*
X126Y1609D01*
X127Y1610D01*
X127Y1611D01*
X128Y1612D01*
X129Y1613D01*
X129Y1614D01*
X130Y1615D01*
X130Y1616D01*
X131Y1617D01*
X131Y1618D01*
X132Y1619D01*
X133Y1620D01*
X133Y1621D01*
X134Y1622D01*
X134Y1623D01*
X135Y1624D01*
X135Y1625D01*
X136Y1626D01*
X137Y1627D01*
X137Y1628D01*
X138Y1629D01*
X138Y1630D01*
X139Y1631D01*
X140Y1632D01*
X140Y1633D01*
X141Y1634D01*
X141Y1635D01*
X142Y1636D01*
X143Y1637D01*
X143Y1638D01*
X144Y1639D01*
X144Y1640D01*
X145Y1641D01*
X146Y1642D01*
X146Y1643D01*
X147Y1644D01*
X147Y1645D01*
X148Y1646D01*
X149Y1647D01*
X149Y1648D01*
X150Y1649D01*
X150Y1650D01*
X151Y1651D01*
X152Y1652D01*
X152Y1653D01*
X153Y1654D01*
X154Y1655D01*
X154Y1656D01*
X155Y1657D01*
X156Y1658D01*
X156Y1659D01*
X157Y1660D01*
X157Y1661D01*
X158Y1662D01*
X159Y1663D01*
X159Y1664D01*
X160Y1665D01*
X161Y1666D01*
X161Y1667D01*
X162Y1668D01*
X163Y1669D01*
X163Y1670D01*
X164Y1671D01*
X165Y1672D01*
X165Y1673D01*
X166Y1674D01*
X166Y1675D01*
X167Y1676D01*
X168Y1677D01*
X169Y1678D01*
X169Y1679D01*
X170Y1680D01*
X171Y1681D01*
X171Y1682D01*
X172Y1683D01*
X173Y1684D01*
X173Y1685D01*
X174Y1686D01*
X175Y1687D01*
X175Y1688D01*
X176Y1689D01*
X177Y1690D01*
X177Y1691D01*
X178Y1692D01*
X179Y1693D01*
X179Y1694D01*
X180Y1695D01*
X181Y1696D01*
X181Y1697D01*
X182Y1698D01*
X183Y1699D01*
X183Y1700D01*
X184Y1701D01*
X185Y1702D01*
X186Y1703D01*
X186Y1704D01*
X187Y1705D01*
X188Y1706D01*
X188Y1707D01*
X189Y1708D01*
X190Y1709D01*
X191Y1710D01*
X191Y1711D01*
X192Y1712D01*
X193Y1713D01*
X194Y1714D01*
X194Y1715D01*
X195Y1716D01*
X196Y1717D01*
X196Y1718D01*
X197Y1719D01*
X198Y1720D01*
X199Y1721D01*
X199Y1722D01*
X200Y1723D01*
X201Y1724D01*
X202Y1725D01*
X202Y1726D01*
X203Y1727D01*
X204Y1728D01*
X205Y1729D01*
X205Y1730D01*
X206Y1731D01*
X207Y1732D01*
X208Y1733D01*
X208Y1734D01*
X209Y1735D01*
X210Y1736D01*
X211Y1737D01*
X211Y1738D01*
X212Y1739D01*
X213Y1740D01*
X214Y1741D01*
X214Y1742D01*
X215Y1743D01*
X216Y1744D01*
X217Y1745D01*
X217Y1746D01*
X218Y1747D01*
X219Y1748D01*
X220Y1749D01*
X221Y1750D01*
X221Y1751D01*
X222Y1752D01*
X223Y1753D01*
X224Y1754D01*
X225Y1755D01*
X225Y1756D01*
X226Y1757D01*
X227Y1758D01*
X228Y1759D01*
X229Y1760D01*
X229Y1761D01*
X230Y1762D01*
X231Y1763D01*
X232Y1764D01*
X233Y1765D01*
X233Y1766D01*
X234Y1767D01*
X235Y1768D01*
X236Y1769D01*
X237Y1770D01*
X238Y1771D01*
X238Y1772D01*
X239Y1773D01*
X240Y1774D01*
X241Y1775D01*
X242Y1776D01*
X243Y1777D01*
X243Y1778D01*
X244Y1779D01*
X245Y1780D01*
X246Y1781D01*
X247Y1782D01*
X248Y1783D01*
X248Y1784D01*
X249Y1785D01*
X250Y1786D01*
X251Y1787D01*
X252Y1788D01*
X253Y1789D01*
X254Y1790D01*
X254Y1791D01*
X255Y1792D01*
X256Y1793D01*
X257Y1794D01*
X258Y1795D01*
X259Y1796D01*
X260Y1797D01*
X261Y1798D01*
X261Y1799D01*
X262Y1800D01*
X263Y1801D01*
X264Y1802D01*
X265Y1803D01*
X266Y1804D01*
X267Y1805D01*
X268Y1806D01*
X269Y1807D01*
X269Y1808D01*
X270Y1809D01*
X271Y1810D01*
X272Y1811D01*
X273Y1812D01*
X274Y1813D01*
X275Y1814D01*
X276Y1815D01*
X277Y1816D01*
X278Y1817D01*
X279Y1818D01*
X279Y1819D01*
X280Y1820D01*
X281Y1821D01*
X282Y1822D01*
X283Y1823D01*
X284Y1824D01*
X285Y1825D01*
X286Y1826D01*
X287Y1827D01*
X288Y1828D01*
X289Y1829D01*
X290Y1830D01*
X291Y1831D01*
X292Y1832D01*
X292Y1833D01*
X293Y1834D01*
X294Y1835D01*
X295Y1836D01*
X296Y1837D01*
X297Y1838D01*
X298Y1839D01*
X299Y1840D01*
X300Y1841D01*
X301Y1842D01*
X302Y1843D01*
X303Y1844D01*
X304Y1845D01*
X305Y1846D01*
X306Y1847D01*
X307Y1848D01*
X308Y1849D01*
X309Y1850D01*
X310Y1851D01*
X311Y1852D01*
X312Y1853D01*
X313Y1854D01*
X314Y1855D01*
X315Y1856D01*
X316Y1857D01*
X317Y1858D01*
X318Y1859D01*
X319Y1860D01*
X320Y1861D01*
X321Y1862D01*
X322Y1863D01*
X323Y1864D01*
X324Y1865D01*
X325Y1866D01*
X326Y1867D01*
X327Y1868D01*
X328Y1869D01*
X329Y1870D01*
X330Y1871D01*
X331Y1872D01*
X332Y1873D01*
X333Y1874D01*
X334Y1875D01*
X335Y1876D01*
X336Y1876D01*
X337Y1877D01*
X338Y1878D01*
X339Y1879D01*
X340Y1880D01*
X341Y1881D01*
X342Y1882D01*
X343Y1883D01*
X344Y1884D01*
X345Y1885D01*
X346Y1886D01*
X347Y1887D01*
X348Y1888D01*
X349Y1889D01*
X350Y1889D01*
X351Y1890D01*
X352Y1891D01*
X353Y1892D01*
X354Y1893D01*
X355Y1894D01*
X356Y1895D01*
X357Y1896D01*
X358Y1897D01*
X359Y1898D01*
X360Y1899D01*
X361Y1899D01*
X362Y1900D01*
X363Y1901D01*
X364Y1902D01*
X365Y1903D01*
X366Y1904D01*
X367Y1905D01*
X368Y1906D01*
X369Y1907D01*
X370Y1907D01*
X371Y1908D01*
X372Y1909D01*
X373Y1910D01*
X374Y1911D01*
X375Y1912D01*
X376Y1913D01*
X377Y1914D01*
X378Y1915D01*
X379Y1915D01*
X380Y1916D01*
X381Y1917D01*
X382Y1918D01*
X383Y1919D01*
X384Y1920D01*
X385Y1921D01*
X386Y1921D01*
X387Y1922D01*
X388Y1923D01*
X389Y1924D01*
X390Y1925D01*
X391Y1926D01*
X392Y1926D01*
X393Y1927D01*
X394Y1928D01*
X395Y1929D01*
X396Y1930D01*
X397Y1931D01*
X398Y1931D01*
X399Y1932D01*
X400Y1933D01*
X401Y1934D01*
X402Y1935D01*
X403Y1936D01*
X404Y1936D01*
X405Y1937D01*
X406Y1938D01*
X407Y1939D01*
X408Y1940D01*
X409Y1940D01*
X410Y1941D01*
X411Y1942D01*
X412Y1943D01*
X413Y1944D01*
X414Y1945D01*
X415Y1945D01*
X416Y1946D01*
X417Y1947D01*
X418Y1948D01*
X419Y1949D01*
X420Y1949D01*
X421Y1950D01*
X422Y1951D01*
X423Y1952D01*
X424Y1953D01*
X425Y1953D01*
X426Y1954D01*
X427Y1955D01*
X428Y1956D01*
X429Y1956D01*
X430Y1957D01*
X431Y1958D01*
X432Y1959D01*
X433Y1960D01*
X434Y1960D01*
X435Y1961D01*
X436Y1962D01*
X437Y1963D01*
X438Y1963D01*
X439Y1964D01*
X440Y1965D01*
X441Y1966D01*
X442Y1966D01*
X443Y1967D01*
X444Y1968D01*
X445Y1969D01*
X446Y1970D01*
X447Y1970D01*
X448Y1971D01*
X449Y1972D01*
X450Y1973D01*
X451Y1973D01*
X452Y1974D01*
X453Y1975D01*
X454Y1975D01*
X455Y1976D01*
X456Y1977D01*
X457Y1978D01*
X458Y1978D01*
X459Y1979D01*
X460Y1980D01*
X461Y1981D01*
X462Y1981D01*
X463Y1982D01*
X464Y1983D01*
X465Y1984D01*
X466Y1984D01*
X467Y1985D01*
X468Y1986D01*
X469Y1986D01*
X470Y1987D01*
X471Y1988D01*
X472Y1989D01*
X473Y1989D01*
X474Y1990D01*
X475Y1991D01*
X476Y1992D01*
X477Y1992D01*
X478Y1993D01*
X479Y1994D01*
X480Y1994D01*
X481Y1995D01*
X482Y1996D01*
X483Y1996D01*
X484Y1997D01*
X485Y1998D01*
X486Y1998D01*
X487Y1999D01*
X488Y2000D01*
X489Y2001D01*
X490Y2001D01*
X491Y2002D01*
X492Y2003D01*
X493Y2003D01*
X494Y2004D01*
X495Y2005D01*
X496Y2005D01*
X497Y2006D01*
X498Y2007D01*
X499Y2008D01*
X500Y2008D01*
X501Y2009D01*
X502Y2010D01*
X503Y2010D01*
X504Y2011D01*
X505Y2012D01*
X506Y2012D01*
X507Y2013D01*
X508Y2014D01*
X509Y2014D01*
X510Y2015D01*
X511Y2016D01*
X512Y2016D01*
X513Y2017D01*
X514Y2018D01*
X515Y2018D01*
X516Y2019D01*
X517Y2020D01*
X518Y2020D01*
X519Y2021D01*
X520Y2021D01*
X521Y2022D01*
X522Y2023D01*
X523Y2023D01*
X524Y2024D01*
X525Y2025D01*
X526Y2025D01*
X527Y2026D01*
X528Y2027D01*
X529Y2027D01*
X530Y2028D01*
X531Y2029D01*
X532Y2029D01*
X533Y2030D01*
X534Y2031D01*
X535Y2031D01*
X536Y2032D01*
X537Y2032D01*
X538Y2033D01*
X539Y2034D01*
X540Y2034D01*
X541Y2035D01*
X542Y2036D01*
X543Y2036D01*
X544Y2037D01*
X545Y2037D01*
X546Y2038D01*
X547Y2039D01*
X548Y2039D01*
X549Y2040D01*
X550Y2041D01*
X551Y2041D01*
X552Y2042D01*
X553Y2042D01*
X554Y2043D01*
X555Y2044D01*
X556Y2044D01*
X557Y2045D01*
X558Y2045D01*
X559Y2046D01*
X560Y2047D01*
X561Y2047D01*
X562Y2048D01*
X563Y2048D01*
X564Y2049D01*
X565Y2050D01*
X566Y2050D01*
X567Y2051D01*
X568Y2051D01*
X569Y2052D01*
X570Y2053D01*
X571Y2053D01*
X572Y2054D01*
X573Y2054D01*
X574Y2055D01*
X575Y2056D01*
X576Y2056D01*
X577Y2057D01*
X578Y2057D01*
X579Y2058D01*
X580Y2059D01*
X581Y2059D01*
X582Y2060D01*
X583Y2060D01*
X584Y2061D01*
X585Y2061D01*
X586Y2062D01*
X587Y2063D01*
X588Y2063D01*
X589Y2064D01*
X590Y2064D01*
X591Y2065D01*
X592Y2065D01*
X593Y2066D01*
X594Y2067D01*
X595Y2067D01*
X596Y2068D01*
X597Y2068D01*
X598Y2069D01*
X599Y2069D01*
X600Y2070D01*
X601Y2071D01*
X602Y2071D01*
X603Y2072D01*
X604Y2072D01*
X605Y2073D01*
X606Y2073D01*
X607Y2074D01*
X608Y2075D01*
X609Y2075D01*
X610Y2076D01*
X611Y2076D01*
X612Y2077D01*
X613Y2077D01*
X614Y2078D01*
X615Y2078D01*
X616Y2079D01*
X617Y2079D01*
X618Y2080D01*
X619Y2080D01*
X620Y2081D01*
X621Y2082D01*
X622Y2082D01*
X623Y2083D01*
X624Y2083D01*
X625Y2084D01*
X626Y2084D01*
X627Y2085D01*
X628Y2085D01*
X629Y2086D01*
X630Y2086D01*
X631Y2087D01*
X632Y2088D01*
X633Y2088D01*
X634Y2089D01*
X635Y2089D01*
X636Y2090D01*
X637Y2090D01*
X638Y2091D01*
X639Y2091D01*
X640Y2092D01*
X641Y2092D01*
X642Y2093D01*
X643Y2093D01*
X644Y2094D01*
X645Y2094D01*
X646Y2095D01*
X647Y2095D01*
X648Y2096D01*
X649Y2096D01*
X650Y2097D01*
X651Y2097D01*
X652Y2098D01*
X653Y2098D01*
X654Y2099D01*
X655Y2099D01*
X656Y2100D01*
X657Y2100D01*
X658Y2101D01*
X659Y2101D01*
X660Y2102D01*
X661Y2102D01*
X662Y2103D01*
X663Y2103D01*
X664Y2104D01*
X665Y2104D01*
X666Y2105D01*
X667Y2105D01*
X668Y2106D01*
X669Y2106D01*
X670Y2107D01*
X671Y2107D01*
X672Y2108D01*
X673Y2108D01*
X674Y2109D01*
X675Y2109D01*
X676Y2110D01*
X677Y2110D01*
X678Y2111D01*
X679Y2111D01*
X680Y2112D01*
X681Y2112D01*
X682Y2113D01*
X683Y2113D01*
X684Y2114D01*
X685Y2114D01*
X686Y2115D01*
X687Y2115D01*
X688Y2116D01*
X689Y2116D01*
X690Y2117D01*
X691Y2117D01*
X692Y2118D01*
X693Y2118D01*
X694Y2118D01*
X695Y2119D01*
X696Y2119D01*
X697Y2120D01*
X698Y2120D01*
X699Y2121D01*
X700Y2121D01*
X701Y2122D01*
X702Y2122D01*
X703Y2123D01*
X704Y2123D01*
X705Y2123D01*
X706Y2124D01*
X707Y2124D01*
X708Y2125D01*
X709Y2125D01*
X710Y2126D01*
X711Y2126D01*
X712Y2127D01*
X713Y2127D01*
X714Y2128D01*
X715Y2128D01*
X716Y2129D01*
X717Y2129D01*
X718Y2129D01*
X719Y2130D01*
X720Y2130D01*
X721Y2131D01*
X722Y2131D01*
X723Y2132D01*
X724Y2132D01*
X725Y2133D01*
X726Y2133D01*
X727Y2133D01*
X728Y2134D01*
X729Y2134D01*
X730Y2135D01*
X731Y2135D01*
X732Y2136D01*
X733Y2136D01*
X734Y2136D01*
X735Y2137D01*
X736Y2137D01*
X737Y2138D01*
X738Y2138D01*
X739Y2139D01*
X740Y2139D01*
X741Y2139D01*
X742Y2140D01*
X743Y2140D01*
X744Y2141D01*
X745Y2141D01*
X746Y2142D01*
X747Y2142D01*
X748Y2143D01*
X749Y2143D01*
X750Y2143D01*
X751Y2144D01*
X752Y2144D01*
X753Y2145D01*
X754Y2145D01*
X755Y2145D01*
X756Y2146D01*
X757Y2146D01*
X758Y2147D01*
X759Y2147D01*
X760Y2147D01*
X761Y2148D01*
X762Y2148D01*
X763Y2149D01*
X764Y2149D01*
X765Y2149D01*
X766Y2150D01*
X767Y2150D01*
X768Y2151D01*
X769Y2151D01*
X770Y2152D01*
X771Y2152D01*
X772Y2152D01*
X773Y2153D01*
X774Y2153D01*
X775Y2154D01*
X776Y2154D01*
X777Y2154D01*
X778Y2155D01*
X779Y2155D01*
X780Y2156D01*
X781Y2156D01*
X782Y2156D01*
X783Y2157D01*
X784Y2157D01*
X785Y2157D01*
X786Y2158D01*
X787Y2158D01*
X788Y2159D01*
X789Y2159D01*
X790Y2159D01*
X791Y2160D01*
X792Y2160D01*
X793Y2161D01*
X794Y2161D01*
X795Y2161D01*
X796Y2162D01*
X797Y2162D01*
X798Y2162D01*
X799Y2163D01*
X800Y2163D01*
X801Y2164D01*
X802Y2164D01*
X803Y2164D01*
X804Y2165D01*
X805Y2165D01*
X806Y2166D01*
X807Y2166D01*
X808Y2166D01*
X809Y2167D01*
X810Y2167D01*
X811Y2167D01*
X812Y2168D01*
X813Y2168D01*
X814Y2168D01*
X815Y2169D01*
X816Y2169D01*
X817Y2170D01*
X818Y2170D01*
X819Y2170D01*
X820Y2171D01*
X821Y2171D01*
X822Y2171D01*
X823Y2172D01*
X824Y2172D01*
X825Y2172D01*
X826Y2173D01*
X827Y2173D01*
X828Y2174D01*
X829Y2174D01*
X830Y2174D01*
X831Y2175D01*
X832Y2175D01*
X833Y2175D01*
X834Y2176D01*
X835Y2176D01*
X836Y2176D01*
X837Y2177D01*
X838Y2177D01*
X839Y2177D01*
X840Y2178D01*
X841Y2178D01*
X842Y2178D01*
X843Y2179D01*
X844Y2179D01*
X845Y2179D01*
X846Y2180D01*
X847Y2180D01*
X848Y2181D01*
X849Y2181D01*
X850Y2181D01*
X851Y2182D01*
X852Y2182D01*
X853Y2182D01*
X854Y2183D01*
X855Y2183D01*
X856Y2183D01*
X857Y2184D01*
X858Y2184D01*
X859Y2184D01*
X860Y2185D01*
X861Y2185D01*
X862Y2185D01*
X863Y2186D01*
X864Y2186D01*
X865Y2186D01*
X866Y2187D01*
X867Y2187D01*
X868Y2187D01*
X869Y2188D01*
X870Y2188D01*
X871Y2188D01*
X872Y2189D01*
X873Y2189D01*
X874Y2189D01*
X875Y2189D01*
X876Y2190D01*
X877Y2190D01*
X878Y2190D01*
X879Y2191D01*
X880Y2191D01*
X881Y2191D01*
X882Y2192D01*
X883Y2192D01*
X884Y2192D01*
X885Y2193D01*
X886Y2193D01*
X887Y2193D01*
X888Y2194D01*
X889Y2194D01*
X890Y2194D01*
X891Y2194D01*
X892Y2195D01*
X893Y2195D01*
X894Y2195D01*
X895Y2196D01*
X896Y2196D01*
X897Y2196D01*
X898Y2197D01*
X899Y2197D01*
X900Y2197D01*
X901Y2198D01*
X902Y2198D01*
X903Y2198D01*
X904Y2198D01*
X905Y2199D01*
X906Y2199D01*
X907Y2199D01*
X908Y2200D01*
X909Y2200D01*
X910Y2200D01*
X911Y2201D01*
X912Y2201D01*
X913Y2201D01*
X914Y2201D01*
X915Y2202D01*
X916Y2202D01*
X917Y2202D01*
X918Y2203D01*
X919Y2203D01*
X920Y2203D01*
X921Y2203D01*
X922Y2204D01*
X923Y2204D01*
X924Y2204D01*
X925Y2205D01*
X926Y2205D01*
X927Y2205D01*
X928Y2205D01*
X929Y2206D01*
X930Y2206D01*
X931Y2206D01*
X932Y2207D01*
X933Y2207D01*
X934Y2207D01*
X935Y2207D01*
X936Y2208D01*
X937Y2208D01*
X938Y2208D01*
X939Y2208D01*
X940Y2209D01*
X941Y2209D01*
X942Y2209D01*
X943Y2210D01*
X944Y2210D01*
X945Y2210D01*
X946Y2210D01*
X947Y2211D01*
X948Y2211D01*
X949Y2211D01*
X950Y2211D01*
X951Y2212D01*
X952Y2212D01*
X953Y2212D01*
X954Y2212D01*
X955Y2213D01*
X956Y2213D01*
X957Y2213D01*
X958Y2214D01*
X959Y2214D01*
X960Y2214D01*
X961Y2214D01*
X962Y2215D01*
X963Y2215D01*
X964Y2215D01*
X965Y2215D01*
X966Y2216D01*
X967Y2216D01*
X968Y2216D01*
X969Y2216D01*
X970Y2217D01*
X971Y2217D01*
X972Y2217D01*
X973Y2217D01*
X974Y2218D01*
X975Y2218D01*
X976Y2218D01*
X977Y2218D01*
X978Y2219D01*
X979Y2219D01*
X980Y2219D01*
X981Y2219D01*
X982Y2220D01*
X983Y2220D01*
X984Y2220D01*
X985Y2220D01*
X986Y2221D01*
X987Y2221D01*
X988Y2221D01*
X989Y2221D01*
X990Y2222D01*
X991Y2222D01*
X992Y2222D01*
X993Y2222D01*
X994Y2223D01*
X995Y2223D01*
X996Y2223D01*
X997Y2223D01*
X998Y2223D01*
X999Y2224D01*
X1000Y2224D01*
X1001Y2224D01*
X1002Y2224D01*
X1003Y2225D01*
X1004Y2225D01*
X1005Y2225D01*
X1006Y2225D01*
X1007Y2225D01*
X1008Y2226D01*
X1009Y2226D01*
X1010Y2226D01*
X1011Y2226D01*
X1012Y2227D01*
X1013Y2227D01*
X1014Y2227D01*
X1015Y2227D01*
X1016Y2227D01*
X1017Y2228D01*
X1018Y2228D01*
X1019Y2228D01*
X1020Y2228D01*
X1021Y2229D01*
X1022Y2229D01*
X1023Y2229D01*
X1024Y2229D01*
X1025Y2229D01*
X1026Y2230D01*
X1027Y2230D01*
X1028Y2230D01*
X1029Y2230D01*
X1030Y2231D01*
X1031Y2231D01*
X1032Y2231D01*
X1033Y2231D01*
X1034Y2231D01*
X1035Y2232D01*
X1036Y2232D01*
X1037Y2232D01*
X1038Y2232D01*
X1039Y2232D01*
X1040Y2233D01*
X1041Y2233D01*
X1042Y2233D01*
X1043Y2233D01*
X1044Y2233D01*
X1045Y2234D01*
X1046Y2234D01*
X1047Y2234D01*
X1048Y2234D01*
X1049Y2234D01*
X1050Y2235D01*
X1051Y2235D01*
X1052Y2235D01*
X1053Y2235D01*
X1054Y2235D01*
X1055Y2236D01*
X1056Y2236D01*
X1057Y2236D01*
X1058Y2236D01*
X1059Y2236D01*
X1060Y2237D01*
X1061Y2237D01*
X1062Y2237D01*
X1063Y2237D01*
X1064Y2237D01*
X1065Y2238D01*
X1066Y2238D01*
X1067Y2238D01*
X1068Y2238D01*
X1069Y2238D01*
X1070Y2238D01*
X1071Y2239D01*
X1072Y2239D01*
X1073Y2239D01*
X1074Y2239D01*
X1075Y2239D01*
X1076Y2240D01*
X1077Y2240D01*
X1078Y2240D01*
X1079Y2240D01*
X1080Y2240D01*
X1081Y2240D01*
X1082Y2241D01*
X1083Y2241D01*
X1084Y2241D01*
X1085Y2241D01*
X1086Y2241D01*
X1087Y2242D01*
X1088Y2242D01*
X1089Y2242D01*
X1090Y2242D01*
X1091Y2242D01*
X1092Y2242D01*
X1093Y2243D01*
X1094Y2243D01*
X1095Y2243D01*
X1096Y2243D01*
X1097Y2243D01*
X1098Y2243D01*
X1099Y2244D01*
X1100Y2244D01*
X1101Y2244D01*
X1102Y2244D01*
X1103Y2244D01*
X1104Y2244D01*
X1105Y2245D01*
X1106Y2245D01*
X1107Y2245D01*
X1108Y2245D01*
X1109Y2245D01*
X1110Y2245D01*
X1111Y2245D01*
X1112Y2246D01*
X1113Y2246D01*
X1114Y2246D01*
X1115Y2246D01*
X1116Y2246D01*
X1117Y2246D01*
X1118Y2247D01*
X1119Y2247D01*
X1120Y2247D01*
X1121Y2247D01*
X1122Y2247D01*
X1123Y2247D01*
X1124Y2248D01*
X1125Y2248D01*
X1126Y2248D01*
X1127Y2248D01*
X1128Y2248D01*
X1129Y2248D01*
X1130Y2248D01*
X1131Y2249D01*
X1132Y2249D01*
X1133Y2249D01*
X1134Y2249D01*
X1135Y2249D01*
X1136Y2249D01*
X1137Y2249D01*
X1138Y2250D01*
X1139Y2250D01*
X1140Y2250D01*
X1141Y2250D01*
X1142Y2250D01*
X1143Y2250D01*
X1144Y2250D01*
X1145Y2251D01*
X1146Y2251D01*
X1147Y2251D01*
X1148Y2251D01*
X1149Y2251D01*
X1150Y2251D01*
X1151Y2251D01*
X1152Y2251D01*
X1153Y2252D01*
X1154Y2252D01*
X1155Y2252D01*
X1156Y2252D01*
X1157Y2252D01*
X1158Y2252D01*
X1159Y2252D01*
X1160Y2253D01*
X1161Y2253D01*
X1162Y2253D01*
X1163Y2253D01*
X1164Y2253D01*
X1165Y2253D01*
X1166Y2253D01*
X1167Y2253D01*
X1168Y2254D01*
X1169Y2254D01*
X1170Y2254D01*
X1171Y2254D01*
X1172Y2254D01*
X1173Y2254D01*
X1174Y2254D01*
X1175Y2254D01*
X1176Y2254D01*
X1177Y2255D01*
X1178Y2255D01*
X1179Y2255D01*
X1180Y2255D01*
X1181Y2255D01*
X1182Y2255D01*
X1183Y2255D01*
X1184Y2255D01*
X1185Y2256D01*
X1186Y2256D01*
X1187Y2256D01*
X1188Y2256D01*
X1189Y2256D01*
X1190Y2256D01*
X1191Y2256D01*
X1192Y2256D01*
X1193Y2256D01*
X1194Y2257D01*
X1195Y2257D01*
X1196Y2257D01*
X1197Y2257D01*
X1198Y2257D01*
X1199Y2257D01*
X1200Y2257D01*
X1201Y2257D01*
X1202Y2257D01*
X1203Y2257D01*
X1204Y2258D01*
X1205Y2258D01*
X1206Y2258D01*
X1207Y2258D01*
X1208Y2258D01*
X1209Y2258D01*
X1210Y2258D01*
X1211Y2258D01*
X1212Y2258D01*
X1213Y2258D01*
X1214Y2259D01*
X1215Y2259D01*
X1216Y2259D01*
X1217Y2259D01*
X1218Y2259D01*
X1219Y2259D01*
X1220Y2259D01*
X1221Y2259D01*
X1222Y2259D01*
X1223Y2259D01*
X1224Y2259D01*
X1225Y2260D01*
X1226Y2260D01*
X1227Y2260D01*
X1228Y2260D01*
X1229Y2260D01*
X1230Y2260D01*
X1231Y2260D01*
X1232Y2260D01*
X1233Y2260D01*
X1234Y2260D01*
X1235Y2260D01*
X1236Y2261D01*
X1237Y2261D01*
X1238Y2261D01*
X1239Y2261D01*
X1240Y2261D01*
X1241Y2261D01*
X1242Y2261D01*
X1243Y2261D01*
X1244Y2261D01*
X1245Y2261D01*
X1246Y2261D01*
X1247Y2261D01*
X1248Y2261D01*
X1249Y2261D01*
X1250Y2262D01*
X1251Y2262D01*
X1252Y2262D01*
X1253Y2262D01*
X1254Y2262D01*
X1255Y2262D01*
X1256Y2262D01*
X1257Y2262D01*
X1258Y2262D01*
X1259Y2262D01*
X1260Y2262D01*
X1261Y2262D01*
X1262Y2262D01*
X1263Y2262D01*
X1264Y2263D01*
X1265Y2263D01*
X1266Y2263D01*
X1267Y2263D01*
X1268Y2263D01*
X1269Y2263D01*
X1270Y2263D01*
X1271Y2263D01*
X1272Y2263D01*
X1273Y2263D01*
X1274Y2263D01*
X1275Y2263D01*
X1276Y2263D01*
X1277Y2263D01*
X1278Y2263D01*
X1279Y2263D01*
X1280Y2263D01*
X1281Y2263D01*
X1282Y2264D01*
X1283Y2264D01*
X1284Y2264D01*
X1285Y2264D01*
X1286Y2264D01*
X1287Y2264D01*
X1288Y2264D01*
X1289Y2264D01*
X1290Y2264D01*
X1291Y2264D01*
X1292Y2264D01*
X1293Y2264D01*
X1294Y2264D01*
X1295Y2264D01*
X1296Y2264D01*
X1297Y2264D01*
X1298Y2264D01*
X1299Y2264D01*
X1300Y2264D01*
X1301Y2265D01*
X1302Y2265D01*
X1303Y2265D01*
X1304Y2265D01*
X1305Y2265D01*
X1306Y2265D01*
X1307Y2265D01*
X1308Y2265D01*
X1309Y2265D01*
X1310Y2265D01*
X1311Y2265D01*
X1312Y2265D01*
X1313Y2265D01*
X1314Y2265D01*
X1315Y2265D01*
X1316Y2265D01*
X1317Y2265D01*
X1318Y2265D01*
X1319Y2265D01*
X1320Y2265D01*
X1321Y2265D01*
X1322Y2265D01*
X1323Y2265D01*
X1324Y2265D01*
X1325Y2265D01*
X1326Y2265D01*
X1327Y2265D01*
X1328Y2265D01*
X1329Y2265D01*
X1330Y2265D01*
X1331Y2265D01*
X1332Y2266D01*
D02*
G04 End of contour*
M02*